G04 #@! TF.FileFunction,Copper,L2,Bot,Signal*
%FSLAX46Y46*%
G04 Gerber Fmt 4.6, Leading zero omitted, Abs format (unit mm)*
G04 Created by KiCad (PCBNEW 4.0.2-stable) date 7/5/2016 2:11:45 AM*
%MOMM*%
G01*
G04 APERTURE LIST*
%ADD10C,0.100000*%
%ADD11C,3.500000*%
%ADD12R,2.600000X2.000000*%
%ADD13O,2.600000X2.000000*%
%ADD14R,1.727200X1.727200*%
%ADD15O,1.727200X1.727200*%
%ADD16C,2.000000*%
%ADD17C,1.100000*%
%ADD18C,1.700000*%
%ADD19C,0.700000*%
%ADD20C,0.450000*%
%ADD21C,1.700000*%
%ADD22C,1.100000*%
%ADD23C,1.300000*%
%ADD24C,0.300000*%
G04 APERTURE END LIST*
D10*
D11*
X121671080Y-90545920D03*
X121945400Y-57302400D03*
X145100040Y-103515160D03*
D12*
X109992160Y-51811040D03*
D13*
X109992160Y-55311040D03*
D12*
X110027720Y-59334400D03*
D13*
X110027720Y-62834400D03*
D14*
X143789400Y-49428400D03*
D15*
X146329400Y-49428400D03*
X143789400Y-51968400D03*
X146329400Y-51968400D03*
X143789400Y-54508400D03*
X146329400Y-54508400D03*
X143789400Y-57048400D03*
X146329400Y-57048400D03*
X143789400Y-59588400D03*
X146329400Y-59588400D03*
X143789400Y-62128400D03*
X146329400Y-62128400D03*
X143789400Y-64668400D03*
X146329400Y-64668400D03*
X143789400Y-67208400D03*
X146329400Y-67208400D03*
X143789400Y-69748400D03*
X146329400Y-69748400D03*
X143789400Y-72288400D03*
X146329400Y-72288400D03*
X143789400Y-74828400D03*
X146329400Y-74828400D03*
X143789400Y-77368400D03*
X146329400Y-77368400D03*
X143789400Y-79908400D03*
X146329400Y-79908400D03*
X143789400Y-82448400D03*
X146329400Y-82448400D03*
X143789400Y-84988400D03*
X146329400Y-84988400D03*
X143789400Y-87528400D03*
X146329400Y-87528400D03*
X143789400Y-90068400D03*
X146329400Y-90068400D03*
X143789400Y-92608400D03*
X146329400Y-92608400D03*
X143789400Y-95148400D03*
X146329400Y-95148400D03*
X143789400Y-97688400D03*
X146329400Y-97688400D03*
D12*
X109052200Y-93990280D03*
D13*
X109042200Y-97490280D03*
X108972200Y-100990280D03*
X109052200Y-104490280D03*
D11*
X145054320Y-44119800D03*
D16*
X111160560Y-80848200D03*
X111160560Y-73248520D03*
D17*
X140568680Y-73771760D03*
X135793480Y-59598560D03*
X133304280Y-59623960D03*
X132008880Y-59623960D03*
X134548880Y-59634120D03*
X124973080Y-47889160D03*
X125811280Y-46949360D03*
X133761480Y-44739560D03*
X134879080Y-44739560D03*
D18*
X127614680Y-96098360D03*
X139095480Y-83982560D03*
X139095480Y-85735160D03*
X125811280Y-96072960D03*
D17*
X119715280Y-73720960D03*
X119766080Y-71384160D03*
X119739920Y-72552560D03*
X140568680Y-72552560D03*
X140543280Y-74990960D03*
D18*
X129087880Y-85379560D03*
X130129280Y-83880960D03*
X135971280Y-85150962D03*
D17*
X136328988Y-49262868D03*
X137368280Y-49565560D03*
X135387080Y-73492360D03*
X136580880Y-73492360D03*
X138511280Y-49590956D03*
X137749280Y-73466960D03*
X140289280Y-48422560D03*
X139654280Y-46288960D03*
X140289280Y-47304960D03*
X123144280Y-67091560D03*
X124287280Y-67091560D03*
D19*
X143789400Y-59588400D02*
X132044440Y-59588400D01*
X132044440Y-59588400D02*
X132008880Y-59623960D01*
D20*
X133304280Y-59623960D02*
X132008880Y-59623960D01*
X134548880Y-59634120D02*
X133314440Y-59634120D01*
X133314440Y-59634120D02*
X133304280Y-59623960D01*
X148163280Y-62834520D02*
X148163280Y-56342280D01*
X148163280Y-56342280D02*
X146329400Y-54508400D01*
X146329400Y-64668400D02*
X148163280Y-62834520D01*
X134747000Y-59588400D02*
X134701280Y-59634120D01*
X124973080Y-47787560D02*
X124973080Y-47889160D01*
X124423081Y-48439159D02*
X124973080Y-47889160D01*
X109342200Y-97490280D02*
X115981480Y-90851000D01*
X109042200Y-97490280D02*
X109342200Y-97490280D01*
X115981480Y-56880760D02*
X124423081Y-48439159D01*
X115981480Y-90851000D02*
X115981480Y-56880760D01*
X125811280Y-46949360D02*
X124973080Y-47787560D01*
X108972200Y-100990280D02*
X109971960Y-100990280D01*
X109971960Y-100990280D02*
X117937280Y-93024960D01*
X117937280Y-93024960D02*
X117937280Y-57210960D01*
X117937280Y-57210960D02*
X130408680Y-44739560D01*
X130408680Y-44739560D02*
X134101263Y-44739560D01*
X134101263Y-44739560D02*
X134879080Y-44739560D01*
X134879080Y-44739560D02*
X133761480Y-44739560D01*
D21*
X136225280Y-95996760D02*
X136149080Y-96072960D01*
X136149080Y-96072960D02*
X125811280Y-96072960D01*
X136225280Y-96072960D02*
X136225280Y-95996760D01*
X136225280Y-95996760D02*
X139095480Y-93126560D01*
X139095480Y-83982560D02*
X139095480Y-85735160D01*
X139095480Y-93126560D02*
X139095480Y-85735160D01*
D19*
X138765280Y-93278960D02*
X139273280Y-92770960D01*
X139273280Y-92770960D02*
X139273280Y-85404960D01*
D22*
X119715280Y-73720960D02*
X119715280Y-72577200D01*
X119715280Y-72577200D02*
X119739920Y-72552560D01*
X119766080Y-71384160D02*
X119766080Y-72526400D01*
X119766080Y-72526400D02*
X119739920Y-72552560D01*
X146329400Y-49428400D02*
X146329400Y-48519080D01*
X146329400Y-48519080D02*
X145064480Y-47254160D01*
X140644880Y-44612560D02*
X139070080Y-44612560D01*
X145064480Y-47254160D02*
X143286480Y-47254160D01*
X143286480Y-47254160D02*
X140644880Y-44612560D01*
X139070080Y-44612560D02*
X119766080Y-63916560D01*
X119766080Y-63916560D02*
X119766080Y-72526400D01*
D20*
X140568680Y-72552560D02*
X140568680Y-74965560D01*
D19*
X140568680Y-74965560D02*
X140543280Y-74990960D01*
D23*
X130129280Y-83880960D02*
X130129280Y-84338160D01*
X130129280Y-84338160D02*
X129087880Y-85379560D01*
X130129280Y-83880960D02*
X134701278Y-83880960D01*
X134701278Y-83880960D02*
X135971280Y-85150962D01*
D19*
X136328988Y-49304085D02*
X136328988Y-49262868D01*
X136590463Y-49565560D02*
X136328988Y-49304085D01*
X137368280Y-49565560D02*
X136590463Y-49565560D01*
X138511280Y-49590956D02*
X137393676Y-49590956D01*
X137393676Y-49590956D02*
X137368280Y-49565560D01*
X137961281Y-50140955D02*
X138511280Y-49590956D01*
X121493280Y-66608956D02*
X137961281Y-50140955D01*
X121493280Y-68386960D02*
X121493280Y-66608956D01*
X126573280Y-73466960D02*
X121493280Y-68386960D01*
X137749280Y-73466960D02*
X126573280Y-73466960D01*
D20*
X140289280Y-47304960D02*
X140289280Y-53548280D01*
X140289280Y-53548280D02*
X143789400Y-57048400D01*
X139654280Y-46288960D02*
X139654280Y-46669960D01*
X139654280Y-46669960D02*
X140289280Y-47304960D01*
D19*
X124287280Y-67091560D02*
X123144280Y-67091560D01*
X124378710Y-67208400D02*
X124287275Y-67116965D01*
X143789400Y-67208400D02*
X124378710Y-67208400D01*
D24*
G36*
X143692079Y-42077206D02*
X143014107Y-42753996D01*
X142646738Y-43638718D01*
X142645902Y-44596680D01*
X142863150Y-45122460D01*
X141499065Y-43758375D01*
X141107162Y-43496514D01*
X140644880Y-43404560D01*
X139070080Y-43404560D01*
X138607799Y-43496513D01*
X138215895Y-43758375D01*
X124353124Y-57621146D01*
X124353818Y-56825520D01*
X123987994Y-55940159D01*
X123311204Y-55262187D01*
X122426482Y-54894818D01*
X121502978Y-54894012D01*
X130774430Y-45622560D01*
X132936060Y-45622560D01*
X133076310Y-45763055D01*
X133520140Y-45947350D01*
X134000712Y-45947769D01*
X134320519Y-45815628D01*
X134637740Y-45947350D01*
X135118312Y-45947769D01*
X135562463Y-45764250D01*
X135902575Y-45424730D01*
X136086870Y-44980900D01*
X136087289Y-44500328D01*
X135903770Y-44056177D01*
X135564250Y-43716065D01*
X135120420Y-43531770D01*
X134639848Y-43531351D01*
X134320041Y-43663492D01*
X134002820Y-43531770D01*
X133522248Y-43531351D01*
X133078097Y-43714870D01*
X132936160Y-43856560D01*
X130408680Y-43856560D01*
X130070770Y-43923774D01*
X129784305Y-44115185D01*
X127019341Y-46880149D01*
X127019489Y-46710128D01*
X126835970Y-46265977D01*
X126496450Y-45925865D01*
X126052620Y-45741570D01*
X125572048Y-45741151D01*
X125127897Y-45924670D01*
X124787785Y-46264190D01*
X124603490Y-46708020D01*
X124603467Y-46734823D01*
X124289697Y-46864470D01*
X123949585Y-47203990D01*
X123765290Y-47647820D01*
X123765115Y-47848374D01*
X115357105Y-56256385D01*
X115165694Y-56542850D01*
X115165694Y-56542851D01*
X115098480Y-56880760D01*
X115098480Y-90485250D01*
X111023090Y-94560640D01*
X111023090Y-92990280D01*
X110977208Y-92746440D01*
X110833099Y-92522488D01*
X110613214Y-92372247D01*
X110352200Y-92319390D01*
X107752200Y-92319390D01*
X107508360Y-92365272D01*
X107284408Y-92509381D01*
X107134167Y-92729266D01*
X107081310Y-92990280D01*
X107081310Y-94990280D01*
X107127192Y-95234120D01*
X107271301Y-95458072D01*
X107491186Y-95608313D01*
X107752200Y-95661170D01*
X109922560Y-95661170D01*
X109689915Y-95893815D01*
X109380559Y-95832280D01*
X108703841Y-95832280D01*
X108069352Y-95958488D01*
X107531458Y-96317897D01*
X107172049Y-96855791D01*
X107045841Y-97490280D01*
X107172049Y-98124769D01*
X107531458Y-98662663D01*
X108069352Y-99022072D01*
X108703841Y-99148280D01*
X109380559Y-99148280D01*
X110015048Y-99022072D01*
X110552942Y-98662663D01*
X110912351Y-98124769D01*
X111038559Y-97490280D01*
X110964296Y-97116934D01*
X116605855Y-91475375D01*
X116797266Y-91188910D01*
X116864480Y-90851000D01*
X116864480Y-57246510D01*
X117092581Y-57018410D01*
X117054280Y-57210960D01*
X117054280Y-92659209D01*
X110130852Y-99582638D01*
X109945048Y-99458488D01*
X109310559Y-99332280D01*
X108633841Y-99332280D01*
X107999352Y-99458488D01*
X107461458Y-99817897D01*
X107102049Y-100355791D01*
X106975841Y-100990280D01*
X107102049Y-101624769D01*
X107461458Y-102162663D01*
X107999352Y-102522072D01*
X108633841Y-102648280D01*
X109310559Y-102648280D01*
X109945048Y-102522072D01*
X110482942Y-102162663D01*
X110842351Y-101624769D01*
X110905949Y-101305041D01*
X114182396Y-98028594D01*
X142306317Y-98028594D01*
X142500143Y-98496549D01*
X142907547Y-98928410D01*
X143449205Y-99171490D01*
X143685400Y-99041949D01*
X143685400Y-97792400D01*
X142436291Y-97792400D01*
X142306317Y-98028594D01*
X114182396Y-98028594D01*
X115839386Y-96371604D01*
X124303019Y-96371604D01*
X124532115Y-96926057D01*
X124955952Y-97350634D01*
X125510004Y-97580697D01*
X126109924Y-97581221D01*
X126110556Y-97580960D01*
X127252868Y-97580960D01*
X127313404Y-97606097D01*
X127913324Y-97606621D01*
X127975428Y-97580960D01*
X136149080Y-97580960D01*
X136187180Y-97573381D01*
X136225280Y-97580960D01*
X136802367Y-97466170D01*
X137291597Y-97139277D01*
X137445039Y-96909635D01*
X140161797Y-94192877D01*
X140488691Y-93703646D01*
X140603480Y-93126560D01*
X140603480Y-85735160D01*
X140603741Y-85436516D01*
X140603480Y-85435884D01*
X140603480Y-83982560D01*
X140603741Y-83683916D01*
X140374645Y-83129463D01*
X139950808Y-82704886D01*
X139396756Y-82474823D01*
X138796836Y-82474299D01*
X138242383Y-82703395D01*
X137817806Y-83127232D01*
X137587743Y-83681284D01*
X137587219Y-84281204D01*
X137587480Y-84281836D01*
X137587480Y-85734989D01*
X137587219Y-86033804D01*
X137587480Y-86034436D01*
X137587480Y-92501926D01*
X135524446Y-94564960D01*
X125811451Y-94564960D01*
X125512636Y-94564699D01*
X124958183Y-94793795D01*
X124533606Y-95217632D01*
X124303543Y-95771684D01*
X124303019Y-96371604D01*
X115839386Y-96371604D01*
X118561656Y-93649335D01*
X118753066Y-93362870D01*
X118820280Y-93024960D01*
X118820280Y-91022800D01*
X119262662Y-91022800D01*
X119628486Y-91908161D01*
X120305276Y-92586133D01*
X121189998Y-92953502D01*
X122147960Y-92954338D01*
X123033321Y-92588514D01*
X123711293Y-91911724D01*
X124078662Y-91027002D01*
X124079498Y-90069040D01*
X123713674Y-89183679D01*
X123036884Y-88505707D01*
X122152162Y-88138338D01*
X121194200Y-88137502D01*
X120308839Y-88503326D01*
X119630867Y-89180116D01*
X119263498Y-90064838D01*
X119262662Y-91022800D01*
X118820280Y-91022800D01*
X118820280Y-85678204D01*
X127579619Y-85678204D01*
X127808715Y-86232657D01*
X128232552Y-86657234D01*
X128786604Y-86887297D01*
X129386524Y-86887821D01*
X129940977Y-86658725D01*
X130365554Y-86234888D01*
X130566660Y-85750572D01*
X131054176Y-85263056D01*
X131103685Y-85188960D01*
X134159486Y-85188960D01*
X134493217Y-85522691D01*
X134692115Y-86004059D01*
X135115952Y-86428636D01*
X135670004Y-86658699D01*
X136269924Y-86659223D01*
X136824377Y-86430127D01*
X137248954Y-86006290D01*
X137479017Y-85452238D01*
X137479541Y-84852318D01*
X137250445Y-84297865D01*
X136826608Y-83873288D01*
X136342292Y-83672182D01*
X135626174Y-82956064D01*
X135201828Y-82672526D01*
X134701278Y-82572960D01*
X130911575Y-82572960D01*
X130430556Y-82373223D01*
X129830636Y-82372699D01*
X129276183Y-82601795D01*
X128851606Y-83025632D01*
X128621543Y-83579684D01*
X128621228Y-83940719D01*
X128234783Y-84100395D01*
X127810206Y-84524232D01*
X127580143Y-85078284D01*
X127579619Y-85678204D01*
X118820280Y-85678204D01*
X118820280Y-75230192D01*
X139335071Y-75230192D01*
X139518590Y-75674343D01*
X139858110Y-76014455D01*
X140301940Y-76198750D01*
X140782512Y-76199169D01*
X141226663Y-76015650D01*
X141566775Y-75676130D01*
X141751070Y-75232300D01*
X141751489Y-74751728D01*
X141610974Y-74411656D01*
X141776470Y-74013100D01*
X141776889Y-73532528D01*
X141623706Y-73161796D01*
X141776470Y-72793900D01*
X141776889Y-72313328D01*
X141593370Y-71869177D01*
X141253850Y-71529065D01*
X140810020Y-71344770D01*
X140329448Y-71344351D01*
X139885297Y-71527870D01*
X139545185Y-71867390D01*
X139360890Y-72311220D01*
X139360471Y-72791792D01*
X139513654Y-73162524D01*
X139360890Y-73530420D01*
X139360471Y-74010992D01*
X139500986Y-74351064D01*
X139335490Y-74749620D01*
X139335071Y-75230192D01*
X118820280Y-75230192D01*
X118820280Y-74534259D01*
X119030110Y-74744455D01*
X119473940Y-74928750D01*
X119954512Y-74929169D01*
X120398663Y-74745650D01*
X120738775Y-74406130D01*
X120923070Y-73962300D01*
X120923489Y-73481728D01*
X120923280Y-73481222D01*
X120923280Y-72852734D01*
X120947710Y-72793900D01*
X120947828Y-72658378D01*
X120974080Y-72526400D01*
X120974080Y-71384160D01*
X120974289Y-71144928D01*
X120974080Y-71144422D01*
X120974080Y-69293288D01*
X125860516Y-74179724D01*
X126187535Y-74398231D01*
X126573280Y-74474961D01*
X126573285Y-74474960D01*
X134661086Y-74474960D01*
X134701910Y-74515855D01*
X135145740Y-74700150D01*
X135626312Y-74700569D01*
X135984313Y-74552646D01*
X136339540Y-74700150D01*
X136820112Y-74700569D01*
X137196042Y-74545238D01*
X137507940Y-74674750D01*
X137988512Y-74675169D01*
X138432663Y-74491650D01*
X138772775Y-74152130D01*
X138957070Y-73708300D01*
X138957489Y-73227728D01*
X138773970Y-72783577D01*
X138434450Y-72443465D01*
X137990620Y-72259170D01*
X137510048Y-72258751D01*
X137134118Y-72414082D01*
X136822220Y-72284570D01*
X136341648Y-72284151D01*
X135983647Y-72432074D01*
X135628420Y-72284570D01*
X135147848Y-72284151D01*
X134724777Y-72458960D01*
X126990808Y-72458960D01*
X122780254Y-68248406D01*
X122902940Y-68299350D01*
X123383512Y-68299769D01*
X123716050Y-68162367D01*
X124045940Y-68299350D01*
X124526512Y-68299769D01*
X124728281Y-68216400D01*
X142638264Y-68216400D01*
X142683656Y-68284334D01*
X142974097Y-68478400D01*
X142683656Y-68672466D01*
X142353815Y-69166109D01*
X142237990Y-69748400D01*
X142353815Y-70330691D01*
X142683656Y-70824334D01*
X142974097Y-71018400D01*
X142683656Y-71212466D01*
X142353815Y-71706109D01*
X142237990Y-72288400D01*
X142353815Y-72870691D01*
X142683656Y-73364334D01*
X142974097Y-73558400D01*
X142683656Y-73752466D01*
X142353815Y-74246109D01*
X142237990Y-74828400D01*
X142353815Y-75410691D01*
X142683656Y-75904334D01*
X142974097Y-76098400D01*
X142683656Y-76292466D01*
X142353815Y-76786109D01*
X142237990Y-77368400D01*
X142353815Y-77950691D01*
X142683656Y-78444334D01*
X142974208Y-78638474D01*
X142907547Y-78668390D01*
X142500143Y-79100251D01*
X142306317Y-79568206D01*
X142436291Y-79804400D01*
X143685400Y-79804400D01*
X143685400Y-79784400D01*
X143893400Y-79784400D01*
X143893400Y-79804400D01*
X143913400Y-79804400D01*
X143913400Y-80012400D01*
X143893400Y-80012400D01*
X143893400Y-80032400D01*
X143685400Y-80032400D01*
X143685400Y-80012400D01*
X142436291Y-80012400D01*
X142306317Y-80248594D01*
X142500143Y-80716549D01*
X142907547Y-81148410D01*
X142974208Y-81178326D01*
X142683656Y-81372466D01*
X142353815Y-81866109D01*
X142237990Y-82448400D01*
X142353815Y-83030691D01*
X142683656Y-83524334D01*
X142974097Y-83718400D01*
X142683656Y-83912466D01*
X142353815Y-84406109D01*
X142237990Y-84988400D01*
X142353815Y-85570691D01*
X142683656Y-86064334D01*
X142974097Y-86258400D01*
X142683656Y-86452466D01*
X142353815Y-86946109D01*
X142237990Y-87528400D01*
X142353815Y-88110691D01*
X142683656Y-88604334D01*
X142974097Y-88798400D01*
X142683656Y-88992466D01*
X142353815Y-89486109D01*
X142237990Y-90068400D01*
X142353815Y-90650691D01*
X142683656Y-91144334D01*
X142974097Y-91338400D01*
X142683656Y-91532466D01*
X142353815Y-92026109D01*
X142237990Y-92608400D01*
X142353815Y-93190691D01*
X142683656Y-93684334D01*
X142974097Y-93878400D01*
X142683656Y-94072466D01*
X142353815Y-94566109D01*
X142237990Y-95148400D01*
X142353815Y-95730691D01*
X142683656Y-96224334D01*
X142974208Y-96418474D01*
X142907547Y-96448390D01*
X142500143Y-96880251D01*
X142306317Y-97348206D01*
X142436291Y-97584400D01*
X143685400Y-97584400D01*
X143685400Y-97564400D01*
X143893400Y-97564400D01*
X143893400Y-97584400D01*
X143913400Y-97584400D01*
X143913400Y-97792400D01*
X143893400Y-97792400D01*
X143893400Y-99041949D01*
X144129595Y-99171490D01*
X144671253Y-98928410D01*
X145058796Y-98517603D01*
X145223656Y-98764334D01*
X145717299Y-99094175D01*
X146299590Y-99210000D01*
X146359210Y-99210000D01*
X146941501Y-99094175D01*
X147435144Y-98764334D01*
X147764985Y-98270691D01*
X147880810Y-97688400D01*
X147764985Y-97106109D01*
X147435144Y-96612466D01*
X147144703Y-96418400D01*
X147435144Y-96224334D01*
X147764985Y-95730691D01*
X147880810Y-95148400D01*
X147764985Y-94566109D01*
X147435144Y-94072466D01*
X147144703Y-93878400D01*
X147435144Y-93684334D01*
X147764985Y-93190691D01*
X147880810Y-92608400D01*
X147764985Y-92026109D01*
X147435144Y-91532466D01*
X147144592Y-91338326D01*
X147211253Y-91308410D01*
X147618657Y-90876549D01*
X147812483Y-90408594D01*
X147682509Y-90172400D01*
X146433400Y-90172400D01*
X146433400Y-90192400D01*
X146225400Y-90192400D01*
X146225400Y-90172400D01*
X146205400Y-90172400D01*
X146205400Y-89964400D01*
X146225400Y-89964400D01*
X146225400Y-89944400D01*
X146433400Y-89944400D01*
X146433400Y-89964400D01*
X147682509Y-89964400D01*
X147812483Y-89728206D01*
X147618657Y-89260251D01*
X147211253Y-88828390D01*
X147144592Y-88798474D01*
X147435144Y-88604334D01*
X147764985Y-88110691D01*
X147880810Y-87528400D01*
X147764985Y-86946109D01*
X147435144Y-86452466D01*
X147144592Y-86258326D01*
X147211253Y-86228410D01*
X147618657Y-85796549D01*
X147812483Y-85328594D01*
X147682509Y-85092400D01*
X146433400Y-85092400D01*
X146433400Y-85112400D01*
X146225400Y-85112400D01*
X146225400Y-85092400D01*
X146205400Y-85092400D01*
X146205400Y-84884400D01*
X146225400Y-84884400D01*
X146225400Y-84864400D01*
X146433400Y-84864400D01*
X146433400Y-84884400D01*
X147682509Y-84884400D01*
X147812483Y-84648206D01*
X147618657Y-84180251D01*
X147211253Y-83748390D01*
X147144592Y-83718474D01*
X147435144Y-83524334D01*
X147764985Y-83030691D01*
X147880810Y-82448400D01*
X147764985Y-81866109D01*
X147435144Y-81372466D01*
X147144703Y-81178400D01*
X147435144Y-80984334D01*
X147764985Y-80490691D01*
X147880810Y-79908400D01*
X147764985Y-79326109D01*
X147435144Y-78832466D01*
X147144703Y-78638400D01*
X147435144Y-78444334D01*
X147764985Y-77950691D01*
X147880810Y-77368400D01*
X147764985Y-76786109D01*
X147435144Y-76292466D01*
X147144703Y-76098400D01*
X147435144Y-75904334D01*
X147764985Y-75410691D01*
X147880810Y-74828400D01*
X147764985Y-74246109D01*
X147435144Y-73752466D01*
X147144592Y-73558326D01*
X147211253Y-73528410D01*
X147618657Y-73096549D01*
X147812483Y-72628594D01*
X147682509Y-72392400D01*
X146433400Y-72392400D01*
X146433400Y-72412400D01*
X146225400Y-72412400D01*
X146225400Y-72392400D01*
X146205400Y-72392400D01*
X146205400Y-72184400D01*
X146225400Y-72184400D01*
X146225400Y-72164400D01*
X146433400Y-72164400D01*
X146433400Y-72184400D01*
X147682509Y-72184400D01*
X147812483Y-71948206D01*
X147618657Y-71480251D01*
X147211253Y-71048390D01*
X147144592Y-71018474D01*
X147435144Y-70824334D01*
X147764985Y-70330691D01*
X147880810Y-69748400D01*
X147764985Y-69166109D01*
X147435144Y-68672466D01*
X147144703Y-68478400D01*
X147435144Y-68284334D01*
X147764985Y-67790691D01*
X147880810Y-67208400D01*
X147764985Y-66626109D01*
X147435144Y-66132466D01*
X147144592Y-65938326D01*
X147211253Y-65908410D01*
X147618657Y-65476549D01*
X147812483Y-65008594D01*
X147682509Y-64772400D01*
X146433400Y-64772400D01*
X146433400Y-64792400D01*
X146225400Y-64792400D01*
X146225400Y-64772400D01*
X146205400Y-64772400D01*
X146205400Y-64564400D01*
X146225400Y-64564400D01*
X146225400Y-64544400D01*
X146433400Y-64544400D01*
X146433400Y-64564400D01*
X147682509Y-64564400D01*
X147812483Y-64328206D01*
X147618657Y-63860251D01*
X147211253Y-63428390D01*
X147144592Y-63398474D01*
X147435144Y-63204334D01*
X147764985Y-62710691D01*
X147880810Y-62128400D01*
X147764985Y-61546109D01*
X147435144Y-61052466D01*
X147144703Y-60858400D01*
X147435144Y-60664334D01*
X147764985Y-60170691D01*
X147880810Y-59588400D01*
X147764985Y-59006109D01*
X147435144Y-58512466D01*
X147144703Y-58318400D01*
X147435144Y-58124334D01*
X147764985Y-57630691D01*
X147880810Y-57048400D01*
X147764985Y-56466109D01*
X147435144Y-55972466D01*
X147144592Y-55778326D01*
X147211253Y-55748410D01*
X147618657Y-55316549D01*
X147812483Y-54848594D01*
X147682509Y-54612400D01*
X146433400Y-54612400D01*
X146433400Y-54632400D01*
X146225400Y-54632400D01*
X146225400Y-54612400D01*
X146205400Y-54612400D01*
X146205400Y-54404400D01*
X146225400Y-54404400D01*
X146225400Y-54384400D01*
X146433400Y-54384400D01*
X146433400Y-54404400D01*
X147682509Y-54404400D01*
X147812483Y-54168206D01*
X147618657Y-53700251D01*
X147211253Y-53268390D01*
X147144592Y-53238474D01*
X147435144Y-53044334D01*
X147764985Y-52550691D01*
X147880810Y-51968400D01*
X147764985Y-51386109D01*
X147435144Y-50892466D01*
X147144703Y-50698400D01*
X147435144Y-50504334D01*
X147764985Y-50010691D01*
X147880810Y-49428400D01*
X147764985Y-48846109D01*
X147533555Y-48499748D01*
X147445446Y-48056798D01*
X147183585Y-47664895D01*
X145918665Y-46399975D01*
X145889208Y-46380292D01*
X146416561Y-46162394D01*
X147094533Y-45485604D01*
X147461902Y-44600882D01*
X147462738Y-43642920D01*
X147096914Y-42757559D01*
X146420124Y-42079587D01*
X146003044Y-41906400D01*
X148446294Y-41906400D01*
X148446294Y-105805444D01*
X145856975Y-105807861D01*
X146462281Y-105557754D01*
X147140253Y-104880964D01*
X147507622Y-103996242D01*
X147508458Y-103038280D01*
X147142634Y-102152919D01*
X146465844Y-101474947D01*
X145581122Y-101107578D01*
X144623160Y-101106742D01*
X143737799Y-101472566D01*
X143059827Y-102149356D01*
X142692458Y-103034078D01*
X142691622Y-103992040D01*
X143057446Y-104877401D01*
X143734236Y-105555373D01*
X144345693Y-105809273D01*
X110267837Y-105841091D01*
X110598122Y-105589124D01*
X110923791Y-105028686D01*
X110970293Y-104851857D01*
X110842075Y-104594280D01*
X109156200Y-104594280D01*
X109156200Y-104614280D01*
X108948200Y-104614280D01*
X108948200Y-104594280D01*
X107262325Y-104594280D01*
X107134107Y-104851857D01*
X107180609Y-105028686D01*
X107506278Y-105589124D01*
X107839535Y-105843359D01*
X106386840Y-105844715D01*
X106386840Y-104128703D01*
X107134107Y-104128703D01*
X107262325Y-104386280D01*
X108948200Y-104386280D01*
X108948200Y-102832280D01*
X109156200Y-102832280D01*
X109156200Y-104386280D01*
X110842075Y-104386280D01*
X110970293Y-104128703D01*
X110923791Y-103951874D01*
X110598122Y-103391436D01*
X110082773Y-102998287D01*
X109456200Y-102832280D01*
X109156200Y-102832280D01*
X108948200Y-102832280D01*
X108648200Y-102832280D01*
X108021627Y-102998287D01*
X107506278Y-103391436D01*
X107180609Y-103951874D01*
X107134107Y-104128703D01*
X106386840Y-104128703D01*
X106386840Y-81176550D01*
X109502273Y-81176550D01*
X109754157Y-81786155D01*
X110220152Y-82252964D01*
X110829317Y-82505911D01*
X111488910Y-82506487D01*
X112098515Y-82254603D01*
X112565324Y-81788608D01*
X112818271Y-81179443D01*
X112818847Y-80519850D01*
X112566963Y-79910245D01*
X112100968Y-79443436D01*
X111491803Y-79190489D01*
X110832210Y-79189913D01*
X110222605Y-79441797D01*
X109755796Y-79907792D01*
X109502849Y-80516957D01*
X109502273Y-81176550D01*
X106386840Y-81176550D01*
X106386840Y-73576870D01*
X109502273Y-73576870D01*
X109754157Y-74186475D01*
X110220152Y-74653284D01*
X110829317Y-74906231D01*
X111488910Y-74906807D01*
X112098515Y-74654923D01*
X112565324Y-74188928D01*
X112818271Y-73579763D01*
X112818847Y-72920170D01*
X112566963Y-72310565D01*
X112100968Y-71843756D01*
X111491803Y-71590809D01*
X110832210Y-71590233D01*
X110222605Y-71842117D01*
X109755796Y-72308112D01*
X109502849Y-72917277D01*
X109502273Y-73576870D01*
X106386840Y-73576870D01*
X106386840Y-62834400D01*
X108031361Y-62834400D01*
X108157569Y-63468889D01*
X108516978Y-64006783D01*
X109054872Y-64366192D01*
X109689361Y-64492400D01*
X110366079Y-64492400D01*
X111000568Y-64366192D01*
X111538462Y-64006783D01*
X111897871Y-63468889D01*
X112024079Y-62834400D01*
X111897871Y-62199911D01*
X111538462Y-61662017D01*
X111000568Y-61302608D01*
X110366079Y-61176400D01*
X109689361Y-61176400D01*
X109054872Y-61302608D01*
X108516978Y-61662017D01*
X108157569Y-62199911D01*
X108031361Y-62834400D01*
X106386840Y-62834400D01*
X106386840Y-59602900D01*
X108069720Y-59602900D01*
X108069720Y-60465284D01*
X108169894Y-60707127D01*
X108354993Y-60892225D01*
X108596835Y-60992400D01*
X109759220Y-60992400D01*
X109923720Y-60827900D01*
X109923720Y-59438400D01*
X110131720Y-59438400D01*
X110131720Y-60827900D01*
X110296220Y-60992400D01*
X111458605Y-60992400D01*
X111700447Y-60892225D01*
X111885546Y-60707127D01*
X111985720Y-60465284D01*
X111985720Y-59602900D01*
X111821220Y-59438400D01*
X110131720Y-59438400D01*
X109923720Y-59438400D01*
X108234220Y-59438400D01*
X108069720Y-59602900D01*
X106386840Y-59602900D01*
X106386840Y-58203516D01*
X108069720Y-58203516D01*
X108069720Y-59065900D01*
X108234220Y-59230400D01*
X109923720Y-59230400D01*
X109923720Y-57840900D01*
X110131720Y-57840900D01*
X110131720Y-59230400D01*
X111821220Y-59230400D01*
X111985720Y-59065900D01*
X111985720Y-58203516D01*
X111885546Y-57961673D01*
X111700447Y-57776575D01*
X111458605Y-57676400D01*
X110296220Y-57676400D01*
X110131720Y-57840900D01*
X109923720Y-57840900D01*
X109759220Y-57676400D01*
X108596835Y-57676400D01*
X108354993Y-57776575D01*
X108169894Y-57961673D01*
X108069720Y-58203516D01*
X106386840Y-58203516D01*
X106386840Y-55311040D01*
X107995801Y-55311040D01*
X108122009Y-55945529D01*
X108481418Y-56483423D01*
X109019312Y-56842832D01*
X109653801Y-56969040D01*
X110330519Y-56969040D01*
X110965008Y-56842832D01*
X111502902Y-56483423D01*
X111862311Y-55945529D01*
X111988519Y-55311040D01*
X111862311Y-54676551D01*
X111502902Y-54138657D01*
X110965008Y-53779248D01*
X110330519Y-53653040D01*
X109653801Y-53653040D01*
X109019312Y-53779248D01*
X108481418Y-54138657D01*
X108122009Y-54676551D01*
X107995801Y-55311040D01*
X106386840Y-55311040D01*
X106386840Y-52079540D01*
X108034160Y-52079540D01*
X108034160Y-52941924D01*
X108134334Y-53183767D01*
X108319433Y-53368865D01*
X108561275Y-53469040D01*
X109723660Y-53469040D01*
X109888160Y-53304540D01*
X109888160Y-51915040D01*
X110096160Y-51915040D01*
X110096160Y-53304540D01*
X110260660Y-53469040D01*
X111423045Y-53469040D01*
X111664887Y-53368865D01*
X111849986Y-53183767D01*
X111950160Y-52941924D01*
X111950160Y-52079540D01*
X111785660Y-51915040D01*
X110096160Y-51915040D01*
X109888160Y-51915040D01*
X108198660Y-51915040D01*
X108034160Y-52079540D01*
X106386840Y-52079540D01*
X106386840Y-50680156D01*
X108034160Y-50680156D01*
X108034160Y-51542540D01*
X108198660Y-51707040D01*
X109888160Y-51707040D01*
X109888160Y-50317540D01*
X110096160Y-50317540D01*
X110096160Y-51707040D01*
X111785660Y-51707040D01*
X111950160Y-51542540D01*
X111950160Y-50680156D01*
X111849986Y-50438313D01*
X111664887Y-50253215D01*
X111423045Y-50153040D01*
X110260660Y-50153040D01*
X110096160Y-50317540D01*
X109888160Y-50317540D01*
X109723660Y-50153040D01*
X108561275Y-50153040D01*
X108319433Y-50253215D01*
X108134334Y-50438313D01*
X108034160Y-50680156D01*
X106386840Y-50680156D01*
X106386840Y-41906400D01*
X144105461Y-41906400D01*
X143692079Y-42077206D01*
X143692079Y-42077206D01*
G37*
X143692079Y-42077206D02*
X143014107Y-42753996D01*
X142646738Y-43638718D01*
X142645902Y-44596680D01*
X142863150Y-45122460D01*
X141499065Y-43758375D01*
X141107162Y-43496514D01*
X140644880Y-43404560D01*
X139070080Y-43404560D01*
X138607799Y-43496513D01*
X138215895Y-43758375D01*
X124353124Y-57621146D01*
X124353818Y-56825520D01*
X123987994Y-55940159D01*
X123311204Y-55262187D01*
X122426482Y-54894818D01*
X121502978Y-54894012D01*
X130774430Y-45622560D01*
X132936060Y-45622560D01*
X133076310Y-45763055D01*
X133520140Y-45947350D01*
X134000712Y-45947769D01*
X134320519Y-45815628D01*
X134637740Y-45947350D01*
X135118312Y-45947769D01*
X135562463Y-45764250D01*
X135902575Y-45424730D01*
X136086870Y-44980900D01*
X136087289Y-44500328D01*
X135903770Y-44056177D01*
X135564250Y-43716065D01*
X135120420Y-43531770D01*
X134639848Y-43531351D01*
X134320041Y-43663492D01*
X134002820Y-43531770D01*
X133522248Y-43531351D01*
X133078097Y-43714870D01*
X132936160Y-43856560D01*
X130408680Y-43856560D01*
X130070770Y-43923774D01*
X129784305Y-44115185D01*
X127019341Y-46880149D01*
X127019489Y-46710128D01*
X126835970Y-46265977D01*
X126496450Y-45925865D01*
X126052620Y-45741570D01*
X125572048Y-45741151D01*
X125127897Y-45924670D01*
X124787785Y-46264190D01*
X124603490Y-46708020D01*
X124603467Y-46734823D01*
X124289697Y-46864470D01*
X123949585Y-47203990D01*
X123765290Y-47647820D01*
X123765115Y-47848374D01*
X115357105Y-56256385D01*
X115165694Y-56542850D01*
X115165694Y-56542851D01*
X115098480Y-56880760D01*
X115098480Y-90485250D01*
X111023090Y-94560640D01*
X111023090Y-92990280D01*
X110977208Y-92746440D01*
X110833099Y-92522488D01*
X110613214Y-92372247D01*
X110352200Y-92319390D01*
X107752200Y-92319390D01*
X107508360Y-92365272D01*
X107284408Y-92509381D01*
X107134167Y-92729266D01*
X107081310Y-92990280D01*
X107081310Y-94990280D01*
X107127192Y-95234120D01*
X107271301Y-95458072D01*
X107491186Y-95608313D01*
X107752200Y-95661170D01*
X109922560Y-95661170D01*
X109689915Y-95893815D01*
X109380559Y-95832280D01*
X108703841Y-95832280D01*
X108069352Y-95958488D01*
X107531458Y-96317897D01*
X107172049Y-96855791D01*
X107045841Y-97490280D01*
X107172049Y-98124769D01*
X107531458Y-98662663D01*
X108069352Y-99022072D01*
X108703841Y-99148280D01*
X109380559Y-99148280D01*
X110015048Y-99022072D01*
X110552942Y-98662663D01*
X110912351Y-98124769D01*
X111038559Y-97490280D01*
X110964296Y-97116934D01*
X116605855Y-91475375D01*
X116797266Y-91188910D01*
X116864480Y-90851000D01*
X116864480Y-57246510D01*
X117092581Y-57018410D01*
X117054280Y-57210960D01*
X117054280Y-92659209D01*
X110130852Y-99582638D01*
X109945048Y-99458488D01*
X109310559Y-99332280D01*
X108633841Y-99332280D01*
X107999352Y-99458488D01*
X107461458Y-99817897D01*
X107102049Y-100355791D01*
X106975841Y-100990280D01*
X107102049Y-101624769D01*
X107461458Y-102162663D01*
X107999352Y-102522072D01*
X108633841Y-102648280D01*
X109310559Y-102648280D01*
X109945048Y-102522072D01*
X110482942Y-102162663D01*
X110842351Y-101624769D01*
X110905949Y-101305041D01*
X114182396Y-98028594D01*
X142306317Y-98028594D01*
X142500143Y-98496549D01*
X142907547Y-98928410D01*
X143449205Y-99171490D01*
X143685400Y-99041949D01*
X143685400Y-97792400D01*
X142436291Y-97792400D01*
X142306317Y-98028594D01*
X114182396Y-98028594D01*
X115839386Y-96371604D01*
X124303019Y-96371604D01*
X124532115Y-96926057D01*
X124955952Y-97350634D01*
X125510004Y-97580697D01*
X126109924Y-97581221D01*
X126110556Y-97580960D01*
X127252868Y-97580960D01*
X127313404Y-97606097D01*
X127913324Y-97606621D01*
X127975428Y-97580960D01*
X136149080Y-97580960D01*
X136187180Y-97573381D01*
X136225280Y-97580960D01*
X136802367Y-97466170D01*
X137291597Y-97139277D01*
X137445039Y-96909635D01*
X140161797Y-94192877D01*
X140488691Y-93703646D01*
X140603480Y-93126560D01*
X140603480Y-85735160D01*
X140603741Y-85436516D01*
X140603480Y-85435884D01*
X140603480Y-83982560D01*
X140603741Y-83683916D01*
X140374645Y-83129463D01*
X139950808Y-82704886D01*
X139396756Y-82474823D01*
X138796836Y-82474299D01*
X138242383Y-82703395D01*
X137817806Y-83127232D01*
X137587743Y-83681284D01*
X137587219Y-84281204D01*
X137587480Y-84281836D01*
X137587480Y-85734989D01*
X137587219Y-86033804D01*
X137587480Y-86034436D01*
X137587480Y-92501926D01*
X135524446Y-94564960D01*
X125811451Y-94564960D01*
X125512636Y-94564699D01*
X124958183Y-94793795D01*
X124533606Y-95217632D01*
X124303543Y-95771684D01*
X124303019Y-96371604D01*
X115839386Y-96371604D01*
X118561656Y-93649335D01*
X118753066Y-93362870D01*
X118820280Y-93024960D01*
X118820280Y-91022800D01*
X119262662Y-91022800D01*
X119628486Y-91908161D01*
X120305276Y-92586133D01*
X121189998Y-92953502D01*
X122147960Y-92954338D01*
X123033321Y-92588514D01*
X123711293Y-91911724D01*
X124078662Y-91027002D01*
X124079498Y-90069040D01*
X123713674Y-89183679D01*
X123036884Y-88505707D01*
X122152162Y-88138338D01*
X121194200Y-88137502D01*
X120308839Y-88503326D01*
X119630867Y-89180116D01*
X119263498Y-90064838D01*
X119262662Y-91022800D01*
X118820280Y-91022800D01*
X118820280Y-85678204D01*
X127579619Y-85678204D01*
X127808715Y-86232657D01*
X128232552Y-86657234D01*
X128786604Y-86887297D01*
X129386524Y-86887821D01*
X129940977Y-86658725D01*
X130365554Y-86234888D01*
X130566660Y-85750572D01*
X131054176Y-85263056D01*
X131103685Y-85188960D01*
X134159486Y-85188960D01*
X134493217Y-85522691D01*
X134692115Y-86004059D01*
X135115952Y-86428636D01*
X135670004Y-86658699D01*
X136269924Y-86659223D01*
X136824377Y-86430127D01*
X137248954Y-86006290D01*
X137479017Y-85452238D01*
X137479541Y-84852318D01*
X137250445Y-84297865D01*
X136826608Y-83873288D01*
X136342292Y-83672182D01*
X135626174Y-82956064D01*
X135201828Y-82672526D01*
X134701278Y-82572960D01*
X130911575Y-82572960D01*
X130430556Y-82373223D01*
X129830636Y-82372699D01*
X129276183Y-82601795D01*
X128851606Y-83025632D01*
X128621543Y-83579684D01*
X128621228Y-83940719D01*
X128234783Y-84100395D01*
X127810206Y-84524232D01*
X127580143Y-85078284D01*
X127579619Y-85678204D01*
X118820280Y-85678204D01*
X118820280Y-75230192D01*
X139335071Y-75230192D01*
X139518590Y-75674343D01*
X139858110Y-76014455D01*
X140301940Y-76198750D01*
X140782512Y-76199169D01*
X141226663Y-76015650D01*
X141566775Y-75676130D01*
X141751070Y-75232300D01*
X141751489Y-74751728D01*
X141610974Y-74411656D01*
X141776470Y-74013100D01*
X141776889Y-73532528D01*
X141623706Y-73161796D01*
X141776470Y-72793900D01*
X141776889Y-72313328D01*
X141593370Y-71869177D01*
X141253850Y-71529065D01*
X140810020Y-71344770D01*
X140329448Y-71344351D01*
X139885297Y-71527870D01*
X139545185Y-71867390D01*
X139360890Y-72311220D01*
X139360471Y-72791792D01*
X139513654Y-73162524D01*
X139360890Y-73530420D01*
X139360471Y-74010992D01*
X139500986Y-74351064D01*
X139335490Y-74749620D01*
X139335071Y-75230192D01*
X118820280Y-75230192D01*
X118820280Y-74534259D01*
X119030110Y-74744455D01*
X119473940Y-74928750D01*
X119954512Y-74929169D01*
X120398663Y-74745650D01*
X120738775Y-74406130D01*
X120923070Y-73962300D01*
X120923489Y-73481728D01*
X120923280Y-73481222D01*
X120923280Y-72852734D01*
X120947710Y-72793900D01*
X120947828Y-72658378D01*
X120974080Y-72526400D01*
X120974080Y-71384160D01*
X120974289Y-71144928D01*
X120974080Y-71144422D01*
X120974080Y-69293288D01*
X125860516Y-74179724D01*
X126187535Y-74398231D01*
X126573280Y-74474961D01*
X126573285Y-74474960D01*
X134661086Y-74474960D01*
X134701910Y-74515855D01*
X135145740Y-74700150D01*
X135626312Y-74700569D01*
X135984313Y-74552646D01*
X136339540Y-74700150D01*
X136820112Y-74700569D01*
X137196042Y-74545238D01*
X137507940Y-74674750D01*
X137988512Y-74675169D01*
X138432663Y-74491650D01*
X138772775Y-74152130D01*
X138957070Y-73708300D01*
X138957489Y-73227728D01*
X138773970Y-72783577D01*
X138434450Y-72443465D01*
X137990620Y-72259170D01*
X137510048Y-72258751D01*
X137134118Y-72414082D01*
X136822220Y-72284570D01*
X136341648Y-72284151D01*
X135983647Y-72432074D01*
X135628420Y-72284570D01*
X135147848Y-72284151D01*
X134724777Y-72458960D01*
X126990808Y-72458960D01*
X122780254Y-68248406D01*
X122902940Y-68299350D01*
X123383512Y-68299769D01*
X123716050Y-68162367D01*
X124045940Y-68299350D01*
X124526512Y-68299769D01*
X124728281Y-68216400D01*
X142638264Y-68216400D01*
X142683656Y-68284334D01*
X142974097Y-68478400D01*
X142683656Y-68672466D01*
X142353815Y-69166109D01*
X142237990Y-69748400D01*
X142353815Y-70330691D01*
X142683656Y-70824334D01*
X142974097Y-71018400D01*
X142683656Y-71212466D01*
X142353815Y-71706109D01*
X142237990Y-72288400D01*
X142353815Y-72870691D01*
X142683656Y-73364334D01*
X142974097Y-73558400D01*
X142683656Y-73752466D01*
X142353815Y-74246109D01*
X142237990Y-74828400D01*
X142353815Y-75410691D01*
X142683656Y-75904334D01*
X142974097Y-76098400D01*
X142683656Y-76292466D01*
X142353815Y-76786109D01*
X142237990Y-77368400D01*
X142353815Y-77950691D01*
X142683656Y-78444334D01*
X142974208Y-78638474D01*
X142907547Y-78668390D01*
X142500143Y-79100251D01*
X142306317Y-79568206D01*
X142436291Y-79804400D01*
X143685400Y-79804400D01*
X143685400Y-79784400D01*
X143893400Y-79784400D01*
X143893400Y-79804400D01*
X143913400Y-79804400D01*
X143913400Y-80012400D01*
X143893400Y-80012400D01*
X143893400Y-80032400D01*
X143685400Y-80032400D01*
X143685400Y-80012400D01*
X142436291Y-80012400D01*
X142306317Y-80248594D01*
X142500143Y-80716549D01*
X142907547Y-81148410D01*
X142974208Y-81178326D01*
X142683656Y-81372466D01*
X142353815Y-81866109D01*
X142237990Y-82448400D01*
X142353815Y-83030691D01*
X142683656Y-83524334D01*
X142974097Y-83718400D01*
X142683656Y-83912466D01*
X142353815Y-84406109D01*
X142237990Y-84988400D01*
X142353815Y-85570691D01*
X142683656Y-86064334D01*
X142974097Y-86258400D01*
X142683656Y-86452466D01*
X142353815Y-86946109D01*
X142237990Y-87528400D01*
X142353815Y-88110691D01*
X142683656Y-88604334D01*
X142974097Y-88798400D01*
X142683656Y-88992466D01*
X142353815Y-89486109D01*
X142237990Y-90068400D01*
X142353815Y-90650691D01*
X142683656Y-91144334D01*
X142974097Y-91338400D01*
X142683656Y-91532466D01*
X142353815Y-92026109D01*
X142237990Y-92608400D01*
X142353815Y-93190691D01*
X142683656Y-93684334D01*
X142974097Y-93878400D01*
X142683656Y-94072466D01*
X142353815Y-94566109D01*
X142237990Y-95148400D01*
X142353815Y-95730691D01*
X142683656Y-96224334D01*
X142974208Y-96418474D01*
X142907547Y-96448390D01*
X142500143Y-96880251D01*
X142306317Y-97348206D01*
X142436291Y-97584400D01*
X143685400Y-97584400D01*
X143685400Y-97564400D01*
X143893400Y-97564400D01*
X143893400Y-97584400D01*
X143913400Y-97584400D01*
X143913400Y-97792400D01*
X143893400Y-97792400D01*
X143893400Y-99041949D01*
X144129595Y-99171490D01*
X144671253Y-98928410D01*
X145058796Y-98517603D01*
X145223656Y-98764334D01*
X145717299Y-99094175D01*
X146299590Y-99210000D01*
X146359210Y-99210000D01*
X146941501Y-99094175D01*
X147435144Y-98764334D01*
X147764985Y-98270691D01*
X147880810Y-97688400D01*
X147764985Y-97106109D01*
X147435144Y-96612466D01*
X147144703Y-96418400D01*
X147435144Y-96224334D01*
X147764985Y-95730691D01*
X147880810Y-95148400D01*
X147764985Y-94566109D01*
X147435144Y-94072466D01*
X147144703Y-93878400D01*
X147435144Y-93684334D01*
X147764985Y-93190691D01*
X147880810Y-92608400D01*
X147764985Y-92026109D01*
X147435144Y-91532466D01*
X147144592Y-91338326D01*
X147211253Y-91308410D01*
X147618657Y-90876549D01*
X147812483Y-90408594D01*
X147682509Y-90172400D01*
X146433400Y-90172400D01*
X146433400Y-90192400D01*
X146225400Y-90192400D01*
X146225400Y-90172400D01*
X146205400Y-90172400D01*
X146205400Y-89964400D01*
X146225400Y-89964400D01*
X146225400Y-89944400D01*
X146433400Y-89944400D01*
X146433400Y-89964400D01*
X147682509Y-89964400D01*
X147812483Y-89728206D01*
X147618657Y-89260251D01*
X147211253Y-88828390D01*
X147144592Y-88798474D01*
X147435144Y-88604334D01*
X147764985Y-88110691D01*
X147880810Y-87528400D01*
X147764985Y-86946109D01*
X147435144Y-86452466D01*
X147144592Y-86258326D01*
X147211253Y-86228410D01*
X147618657Y-85796549D01*
X147812483Y-85328594D01*
X147682509Y-85092400D01*
X146433400Y-85092400D01*
X146433400Y-85112400D01*
X146225400Y-85112400D01*
X146225400Y-85092400D01*
X146205400Y-85092400D01*
X146205400Y-84884400D01*
X146225400Y-84884400D01*
X146225400Y-84864400D01*
X146433400Y-84864400D01*
X146433400Y-84884400D01*
X147682509Y-84884400D01*
X147812483Y-84648206D01*
X147618657Y-84180251D01*
X147211253Y-83748390D01*
X147144592Y-83718474D01*
X147435144Y-83524334D01*
X147764985Y-83030691D01*
X147880810Y-82448400D01*
X147764985Y-81866109D01*
X147435144Y-81372466D01*
X147144703Y-81178400D01*
X147435144Y-80984334D01*
X147764985Y-80490691D01*
X147880810Y-79908400D01*
X147764985Y-79326109D01*
X147435144Y-78832466D01*
X147144703Y-78638400D01*
X147435144Y-78444334D01*
X147764985Y-77950691D01*
X147880810Y-77368400D01*
X147764985Y-76786109D01*
X147435144Y-76292466D01*
X147144703Y-76098400D01*
X147435144Y-75904334D01*
X147764985Y-75410691D01*
X147880810Y-74828400D01*
X147764985Y-74246109D01*
X147435144Y-73752466D01*
X147144592Y-73558326D01*
X147211253Y-73528410D01*
X147618657Y-73096549D01*
X147812483Y-72628594D01*
X147682509Y-72392400D01*
X146433400Y-72392400D01*
X146433400Y-72412400D01*
X146225400Y-72412400D01*
X146225400Y-72392400D01*
X146205400Y-72392400D01*
X146205400Y-72184400D01*
X146225400Y-72184400D01*
X146225400Y-72164400D01*
X146433400Y-72164400D01*
X146433400Y-72184400D01*
X147682509Y-72184400D01*
X147812483Y-71948206D01*
X147618657Y-71480251D01*
X147211253Y-71048390D01*
X147144592Y-71018474D01*
X147435144Y-70824334D01*
X147764985Y-70330691D01*
X147880810Y-69748400D01*
X147764985Y-69166109D01*
X147435144Y-68672466D01*
X147144703Y-68478400D01*
X147435144Y-68284334D01*
X147764985Y-67790691D01*
X147880810Y-67208400D01*
X147764985Y-66626109D01*
X147435144Y-66132466D01*
X147144592Y-65938326D01*
X147211253Y-65908410D01*
X147618657Y-65476549D01*
X147812483Y-65008594D01*
X147682509Y-64772400D01*
X146433400Y-64772400D01*
X146433400Y-64792400D01*
X146225400Y-64792400D01*
X146225400Y-64772400D01*
X146205400Y-64772400D01*
X146205400Y-64564400D01*
X146225400Y-64564400D01*
X146225400Y-64544400D01*
X146433400Y-64544400D01*
X146433400Y-64564400D01*
X147682509Y-64564400D01*
X147812483Y-64328206D01*
X147618657Y-63860251D01*
X147211253Y-63428390D01*
X147144592Y-63398474D01*
X147435144Y-63204334D01*
X147764985Y-62710691D01*
X147880810Y-62128400D01*
X147764985Y-61546109D01*
X147435144Y-61052466D01*
X147144703Y-60858400D01*
X147435144Y-60664334D01*
X147764985Y-60170691D01*
X147880810Y-59588400D01*
X147764985Y-59006109D01*
X147435144Y-58512466D01*
X147144703Y-58318400D01*
X147435144Y-58124334D01*
X147764985Y-57630691D01*
X147880810Y-57048400D01*
X147764985Y-56466109D01*
X147435144Y-55972466D01*
X147144592Y-55778326D01*
X147211253Y-55748410D01*
X147618657Y-55316549D01*
X147812483Y-54848594D01*
X147682509Y-54612400D01*
X146433400Y-54612400D01*
X146433400Y-54632400D01*
X146225400Y-54632400D01*
X146225400Y-54612400D01*
X146205400Y-54612400D01*
X146205400Y-54404400D01*
X146225400Y-54404400D01*
X146225400Y-54384400D01*
X146433400Y-54384400D01*
X146433400Y-54404400D01*
X147682509Y-54404400D01*
X147812483Y-54168206D01*
X147618657Y-53700251D01*
X147211253Y-53268390D01*
X147144592Y-53238474D01*
X147435144Y-53044334D01*
X147764985Y-52550691D01*
X147880810Y-51968400D01*
X147764985Y-51386109D01*
X147435144Y-50892466D01*
X147144703Y-50698400D01*
X147435144Y-50504334D01*
X147764985Y-50010691D01*
X147880810Y-49428400D01*
X147764985Y-48846109D01*
X147533555Y-48499748D01*
X147445446Y-48056798D01*
X147183585Y-47664895D01*
X145918665Y-46399975D01*
X145889208Y-46380292D01*
X146416561Y-46162394D01*
X147094533Y-45485604D01*
X147461902Y-44600882D01*
X147462738Y-43642920D01*
X147096914Y-42757559D01*
X146420124Y-42079587D01*
X146003044Y-41906400D01*
X148446294Y-41906400D01*
X148446294Y-105805444D01*
X145856975Y-105807861D01*
X146462281Y-105557754D01*
X147140253Y-104880964D01*
X147507622Y-103996242D01*
X147508458Y-103038280D01*
X147142634Y-102152919D01*
X146465844Y-101474947D01*
X145581122Y-101107578D01*
X144623160Y-101106742D01*
X143737799Y-101472566D01*
X143059827Y-102149356D01*
X142692458Y-103034078D01*
X142691622Y-103992040D01*
X143057446Y-104877401D01*
X143734236Y-105555373D01*
X144345693Y-105809273D01*
X110267837Y-105841091D01*
X110598122Y-105589124D01*
X110923791Y-105028686D01*
X110970293Y-104851857D01*
X110842075Y-104594280D01*
X109156200Y-104594280D01*
X109156200Y-104614280D01*
X108948200Y-104614280D01*
X108948200Y-104594280D01*
X107262325Y-104594280D01*
X107134107Y-104851857D01*
X107180609Y-105028686D01*
X107506278Y-105589124D01*
X107839535Y-105843359D01*
X106386840Y-105844715D01*
X106386840Y-104128703D01*
X107134107Y-104128703D01*
X107262325Y-104386280D01*
X108948200Y-104386280D01*
X108948200Y-102832280D01*
X109156200Y-102832280D01*
X109156200Y-104386280D01*
X110842075Y-104386280D01*
X110970293Y-104128703D01*
X110923791Y-103951874D01*
X110598122Y-103391436D01*
X110082773Y-102998287D01*
X109456200Y-102832280D01*
X109156200Y-102832280D01*
X108948200Y-102832280D01*
X108648200Y-102832280D01*
X108021627Y-102998287D01*
X107506278Y-103391436D01*
X107180609Y-103951874D01*
X107134107Y-104128703D01*
X106386840Y-104128703D01*
X106386840Y-81176550D01*
X109502273Y-81176550D01*
X109754157Y-81786155D01*
X110220152Y-82252964D01*
X110829317Y-82505911D01*
X111488910Y-82506487D01*
X112098515Y-82254603D01*
X112565324Y-81788608D01*
X112818271Y-81179443D01*
X112818847Y-80519850D01*
X112566963Y-79910245D01*
X112100968Y-79443436D01*
X111491803Y-79190489D01*
X110832210Y-79189913D01*
X110222605Y-79441797D01*
X109755796Y-79907792D01*
X109502849Y-80516957D01*
X109502273Y-81176550D01*
X106386840Y-81176550D01*
X106386840Y-73576870D01*
X109502273Y-73576870D01*
X109754157Y-74186475D01*
X110220152Y-74653284D01*
X110829317Y-74906231D01*
X111488910Y-74906807D01*
X112098515Y-74654923D01*
X112565324Y-74188928D01*
X112818271Y-73579763D01*
X112818847Y-72920170D01*
X112566963Y-72310565D01*
X112100968Y-71843756D01*
X111491803Y-71590809D01*
X110832210Y-71590233D01*
X110222605Y-71842117D01*
X109755796Y-72308112D01*
X109502849Y-72917277D01*
X109502273Y-73576870D01*
X106386840Y-73576870D01*
X106386840Y-62834400D01*
X108031361Y-62834400D01*
X108157569Y-63468889D01*
X108516978Y-64006783D01*
X109054872Y-64366192D01*
X109689361Y-64492400D01*
X110366079Y-64492400D01*
X111000568Y-64366192D01*
X111538462Y-64006783D01*
X111897871Y-63468889D01*
X112024079Y-62834400D01*
X111897871Y-62199911D01*
X111538462Y-61662017D01*
X111000568Y-61302608D01*
X110366079Y-61176400D01*
X109689361Y-61176400D01*
X109054872Y-61302608D01*
X108516978Y-61662017D01*
X108157569Y-62199911D01*
X108031361Y-62834400D01*
X106386840Y-62834400D01*
X106386840Y-59602900D01*
X108069720Y-59602900D01*
X108069720Y-60465284D01*
X108169894Y-60707127D01*
X108354993Y-60892225D01*
X108596835Y-60992400D01*
X109759220Y-60992400D01*
X109923720Y-60827900D01*
X109923720Y-59438400D01*
X110131720Y-59438400D01*
X110131720Y-60827900D01*
X110296220Y-60992400D01*
X111458605Y-60992400D01*
X111700447Y-60892225D01*
X111885546Y-60707127D01*
X111985720Y-60465284D01*
X111985720Y-59602900D01*
X111821220Y-59438400D01*
X110131720Y-59438400D01*
X109923720Y-59438400D01*
X108234220Y-59438400D01*
X108069720Y-59602900D01*
X106386840Y-59602900D01*
X106386840Y-58203516D01*
X108069720Y-58203516D01*
X108069720Y-59065900D01*
X108234220Y-59230400D01*
X109923720Y-59230400D01*
X109923720Y-57840900D01*
X110131720Y-57840900D01*
X110131720Y-59230400D01*
X111821220Y-59230400D01*
X111985720Y-59065900D01*
X111985720Y-58203516D01*
X111885546Y-57961673D01*
X111700447Y-57776575D01*
X111458605Y-57676400D01*
X110296220Y-57676400D01*
X110131720Y-57840900D01*
X109923720Y-57840900D01*
X109759220Y-57676400D01*
X108596835Y-57676400D01*
X108354993Y-57776575D01*
X108169894Y-57961673D01*
X108069720Y-58203516D01*
X106386840Y-58203516D01*
X106386840Y-55311040D01*
X107995801Y-55311040D01*
X108122009Y-55945529D01*
X108481418Y-56483423D01*
X109019312Y-56842832D01*
X109653801Y-56969040D01*
X110330519Y-56969040D01*
X110965008Y-56842832D01*
X111502902Y-56483423D01*
X111862311Y-55945529D01*
X111988519Y-55311040D01*
X111862311Y-54676551D01*
X111502902Y-54138657D01*
X110965008Y-53779248D01*
X110330519Y-53653040D01*
X109653801Y-53653040D01*
X109019312Y-53779248D01*
X108481418Y-54138657D01*
X108122009Y-54676551D01*
X107995801Y-55311040D01*
X106386840Y-55311040D01*
X106386840Y-52079540D01*
X108034160Y-52079540D01*
X108034160Y-52941924D01*
X108134334Y-53183767D01*
X108319433Y-53368865D01*
X108561275Y-53469040D01*
X109723660Y-53469040D01*
X109888160Y-53304540D01*
X109888160Y-51915040D01*
X110096160Y-51915040D01*
X110096160Y-53304540D01*
X110260660Y-53469040D01*
X111423045Y-53469040D01*
X111664887Y-53368865D01*
X111849986Y-53183767D01*
X111950160Y-52941924D01*
X111950160Y-52079540D01*
X111785660Y-51915040D01*
X110096160Y-51915040D01*
X109888160Y-51915040D01*
X108198660Y-51915040D01*
X108034160Y-52079540D01*
X106386840Y-52079540D01*
X106386840Y-50680156D01*
X108034160Y-50680156D01*
X108034160Y-51542540D01*
X108198660Y-51707040D01*
X109888160Y-51707040D01*
X109888160Y-50317540D01*
X110096160Y-50317540D01*
X110096160Y-51707040D01*
X111785660Y-51707040D01*
X111950160Y-51542540D01*
X111950160Y-50680156D01*
X111849986Y-50438313D01*
X111664887Y-50253215D01*
X111423045Y-50153040D01*
X110260660Y-50153040D01*
X110096160Y-50317540D01*
X109888160Y-50317540D01*
X109723660Y-50153040D01*
X108561275Y-50153040D01*
X108319433Y-50253215D01*
X108134334Y-50438313D01*
X108034160Y-50680156D01*
X106386840Y-50680156D01*
X106386840Y-41906400D01*
X144105461Y-41906400D01*
X143692079Y-42077206D01*
G36*
X139406280Y-53548280D02*
X139473494Y-53886190D01*
X139664905Y-54172655D01*
X142288205Y-56795955D01*
X142237990Y-57048400D01*
X142353815Y-57630691D01*
X142683656Y-58124334D01*
X142974208Y-58318474D01*
X142907547Y-58348390D01*
X142500143Y-58780251D01*
X142306317Y-59248206D01*
X142436291Y-59484400D01*
X143685400Y-59484400D01*
X143685400Y-59464400D01*
X143893400Y-59464400D01*
X143893400Y-59484400D01*
X143913400Y-59484400D01*
X143913400Y-59692400D01*
X143893400Y-59692400D01*
X143893400Y-59712400D01*
X143685400Y-59712400D01*
X143685400Y-59692400D01*
X142436291Y-59692400D01*
X142306317Y-59928594D01*
X142500143Y-60396549D01*
X142907547Y-60828410D01*
X142974208Y-60858326D01*
X142683656Y-61052466D01*
X142353815Y-61546109D01*
X142237990Y-62128400D01*
X142353815Y-62710691D01*
X142683656Y-63204334D01*
X142974097Y-63398400D01*
X142683656Y-63592466D01*
X142353815Y-64086109D01*
X142237990Y-64668400D01*
X142353815Y-65250691D01*
X142683656Y-65744334D01*
X142974097Y-65938400D01*
X142683656Y-66132466D01*
X142638264Y-66200400D01*
X125104555Y-66200400D01*
X124972450Y-66068065D01*
X124528620Y-65883770D01*
X124048048Y-65883351D01*
X123715510Y-66020753D01*
X123568186Y-65959578D01*
X138674042Y-50853721D01*
X138674045Y-50853719D01*
X138728618Y-50799146D01*
X138750512Y-50799165D01*
X139194663Y-50615646D01*
X139406280Y-50404397D01*
X139406280Y-53548280D01*
X139406280Y-53548280D01*
G37*
X139406280Y-53548280D02*
X139473494Y-53886190D01*
X139664905Y-54172655D01*
X142288205Y-56795955D01*
X142237990Y-57048400D01*
X142353815Y-57630691D01*
X142683656Y-58124334D01*
X142974208Y-58318474D01*
X142907547Y-58348390D01*
X142500143Y-58780251D01*
X142306317Y-59248206D01*
X142436291Y-59484400D01*
X143685400Y-59484400D01*
X143685400Y-59464400D01*
X143893400Y-59464400D01*
X143893400Y-59484400D01*
X143913400Y-59484400D01*
X143913400Y-59692400D01*
X143893400Y-59692400D01*
X143893400Y-59712400D01*
X143685400Y-59712400D01*
X143685400Y-59692400D01*
X142436291Y-59692400D01*
X142306317Y-59928594D01*
X142500143Y-60396549D01*
X142907547Y-60828410D01*
X142974208Y-60858326D01*
X142683656Y-61052466D01*
X142353815Y-61546109D01*
X142237990Y-62128400D01*
X142353815Y-62710691D01*
X142683656Y-63204334D01*
X142974097Y-63398400D01*
X142683656Y-63592466D01*
X142353815Y-64086109D01*
X142237990Y-64668400D01*
X142353815Y-65250691D01*
X142683656Y-65744334D01*
X142974097Y-65938400D01*
X142683656Y-66132466D01*
X142638264Y-66200400D01*
X125104555Y-66200400D01*
X124972450Y-66068065D01*
X124528620Y-65883770D01*
X124048048Y-65883351D01*
X123715510Y-66020753D01*
X123568186Y-65959578D01*
X138674042Y-50853721D01*
X138674045Y-50853719D01*
X138728618Y-50799146D01*
X138750512Y-50799165D01*
X139194663Y-50615646D01*
X139406280Y-50404397D01*
X139406280Y-53548280D01*
M02*
