M48
;DRILL file {KiCad 4.0.2-stable} date 7/5/2016 1:27:38 AM
;FORMAT={-:-/ absolute / inch / decimal}
FMAT,2
INCH,TZ
T1C0.028
T2C0.031
T3C0.039
T4C0.040
T5C0.047
T6C0.138
%
G90
G05
M72
T1
X4.8482Y-2.6414
X4.8932Y-2.6414
X4.9202Y-1.8854
X4.9532Y-1.8484
X5.1972Y-2.3474
X5.2482Y-2.3474
X5.2662Y-1.7614
X5.2972Y-2.3478
X5.3102Y-1.7614
X5.3302Y-2.8934
X5.3462Y-2.3464
X5.3612Y-1.9334
X5.3772Y-2.8934
X5.4082Y-1.9514
X5.4232Y-2.8924
X5.4532Y-1.9524
X5.4982Y-1.8224
X5.5232Y-1.8624
X5.5232Y-1.9064
X5.5332Y-2.9524
X5.5342Y-2.8564
X5.5342Y-2.9044
T2
X4.9532Y-3.7824
X5.0242Y-3.7834
X5.0822Y-3.3614
X5.1232Y-3.3024
X5.3532Y-3.3524
X5.4762Y-3.3064
X5.4762Y-3.3754
T3
X4.3764Y-2.8838
X4.3764Y-3.183
T4
X5.661Y-1.946
X5.661Y-2.046
X5.661Y-2.146
X5.661Y-2.246
X5.661Y-2.346
X5.661Y-2.446
X5.661Y-2.546
X5.661Y-2.646
X5.661Y-2.746
X5.661Y-2.846
X5.661Y-2.946
X5.661Y-3.046
X5.661Y-3.146
X5.661Y-3.246
X5.661Y-3.346
X5.661Y-3.446
X5.661Y-3.546
X5.661Y-3.646
X5.661Y-3.746
X5.661Y-3.846
X5.761Y-1.946
X5.761Y-2.046
X5.761Y-2.146
X5.761Y-2.246
X5.761Y-2.346
X5.761Y-2.446
X5.761Y-2.546
X5.761Y-2.646
X5.761Y-2.746
X5.761Y-2.846
X5.761Y-2.946
X5.761Y-3.046
X5.761Y-3.146
X5.761Y-3.246
X5.761Y-3.346
X5.761Y-3.446
X5.761Y-3.546
X5.761Y-3.646
X5.761Y-3.746
X5.761Y-3.846
T5
X4.2902Y-3.976
X4.293Y-3.8382
X4.2934Y-3.7004
X4.2934Y-4.1138
X4.3304Y-2.0398
X4.3304Y-2.1776
X4.3318Y-2.336
X4.3318Y-2.4738
T6
X4.7902Y-3.5648
X4.801Y-2.256
X5.7108Y-1.737
X5.7126Y-4.0754
T0
M30
