G04 #@! TF.FileFunction,Copper,L1,Top,Signal*
%FSLAX46Y46*%
G04 Gerber Fmt 4.6, Leading zero omitted, Abs format (unit mm)*
G04 Created by KiCad (PCBNEW 4.0.2-stable) date 7/5/2016 2:11:45 AM*
%MOMM*%
G01*
G04 APERTURE LIST*
%ADD10C,0.100000*%
%ADD11C,3.500000*%
%ADD12R,1.500000X1.250000*%
%ADD13R,1.250000X1.500000*%
%ADD14R,2.400300X4.000500*%
%ADD15R,2.400300X3.500120*%
%ADD16R,1.220000X0.910000*%
%ADD17R,1.800860X2.499360*%
%ADD18R,0.910000X1.220000*%
%ADD19R,2.300000X5.600000*%
%ADD20R,2.900680X5.400040*%
%ADD21R,2.600000X2.000000*%
%ADD22O,2.600000X2.000000*%
%ADD23R,1.727200X1.727200*%
%ADD24O,1.727200X1.727200*%
%ADD25R,0.800100X0.800100*%
%ADD26R,1.300000X1.500000*%
%ADD27R,1.500000X1.300000*%
%ADD28R,1.550000X0.600000*%
%ADD29R,3.000000X0.899160*%
%ADD30R,3.000000X1.000760*%
%ADD31R,1.100000X4.600000*%
%ADD32R,10.800000X9.400000*%
%ADD33C,2.000000*%
%ADD34C,1.100000*%
%ADD35C,1.700000*%
%ADD36C,0.600000*%
%ADD37C,1.100000*%
%ADD38C,0.700000*%
%ADD39C,1.300000*%
%ADD40C,1.700000*%
%ADD41C,0.450000*%
%ADD42C,0.800000*%
%ADD43C,1.600000*%
%ADD44C,0.300000*%
G04 APERTURE END LIST*
D10*
D11*
X121671080Y-90545920D03*
X121945400Y-57302400D03*
X145100040Y-103515160D03*
D12*
X123316680Y-46431200D03*
X125816680Y-46431200D03*
X125786200Y-44343320D03*
X123286200Y-44343320D03*
D13*
X136138920Y-53995320D03*
X136138920Y-51495320D03*
D14*
X123225560Y-96098360D03*
X123225560Y-104099360D03*
D13*
X114929920Y-101807960D03*
X114929920Y-104307960D03*
D15*
X122407680Y-75529440D03*
X122407680Y-82031840D03*
D13*
X136352280Y-68508560D03*
X136352280Y-71008560D03*
D16*
X128986280Y-50953160D03*
X128986280Y-54223160D03*
D17*
X115067080Y-98102420D03*
X115067080Y-94104460D03*
D16*
X129032000Y-71424040D03*
X129032000Y-68154040D03*
D17*
X126685040Y-86393020D03*
X126685040Y-90390980D03*
D18*
X119739920Y-70012560D03*
X116469920Y-70012560D03*
D19*
X108288600Y-87985600D03*
X115688600Y-87985600D03*
D20*
X130083560Y-79700120D03*
X140086080Y-79700120D03*
D21*
X109992160Y-51811040D03*
D22*
X109992160Y-55311040D03*
D21*
X110027720Y-59334400D03*
D22*
X110027720Y-62834400D03*
D23*
X143789400Y-49428400D03*
D24*
X146329400Y-49428400D03*
X143789400Y-51968400D03*
X146329400Y-51968400D03*
X143789400Y-54508400D03*
X146329400Y-54508400D03*
X143789400Y-57048400D03*
X146329400Y-57048400D03*
X143789400Y-59588400D03*
X146329400Y-59588400D03*
X143789400Y-62128400D03*
X146329400Y-62128400D03*
X143789400Y-64668400D03*
X146329400Y-64668400D03*
X143789400Y-67208400D03*
X146329400Y-67208400D03*
X143789400Y-69748400D03*
X146329400Y-69748400D03*
X143789400Y-72288400D03*
X146329400Y-72288400D03*
X143789400Y-74828400D03*
X146329400Y-74828400D03*
X143789400Y-77368400D03*
X146329400Y-77368400D03*
X143789400Y-79908400D03*
X146329400Y-79908400D03*
X143789400Y-82448400D03*
X146329400Y-82448400D03*
X143789400Y-84988400D03*
X146329400Y-84988400D03*
X143789400Y-87528400D03*
X146329400Y-87528400D03*
X143789400Y-90068400D03*
X146329400Y-90068400D03*
X143789400Y-92608400D03*
X146329400Y-92608400D03*
X143789400Y-95148400D03*
X146329400Y-95148400D03*
X143789400Y-97688400D03*
X146329400Y-97688400D03*
D25*
X110418880Y-66299040D03*
X110418880Y-68199040D03*
X112417860Y-67249040D03*
D26*
X126283720Y-51287680D03*
X126283720Y-53987680D03*
X131775200Y-53908960D03*
X131775200Y-51208960D03*
X128803400Y-46912520D03*
X128803400Y-44212520D03*
X138597640Y-53939440D03*
X138597640Y-51239440D03*
X126268480Y-68408560D03*
X126268480Y-71108560D03*
D27*
X116866680Y-67086480D03*
X119566680Y-67086480D03*
D26*
X131770120Y-68423800D03*
X131770120Y-71123800D03*
X138841480Y-68312040D03*
X138841480Y-71012040D03*
D28*
X137853400Y-47213520D03*
X137853400Y-45943520D03*
X137853400Y-44673520D03*
X137853400Y-43403520D03*
X132453400Y-43403520D03*
X132453400Y-44673520D03*
X132453400Y-45943520D03*
X132453400Y-47213520D03*
D29*
X130454400Y-59682380D03*
D30*
X130454400Y-57033160D03*
X138054080Y-57033160D03*
X138054080Y-59634120D03*
D31*
X132283520Y-91292680D03*
X133983520Y-91292680D03*
X137383520Y-91292680D03*
D32*
X135683520Y-100442680D03*
D31*
X135683520Y-91292680D03*
X139083520Y-91292680D03*
D29*
X130342640Y-65204340D03*
D30*
X130342640Y-62555120D03*
X137942320Y-62555120D03*
X137942320Y-65156080D03*
D21*
X109052200Y-93990280D03*
D22*
X109042200Y-97490280D03*
X108972200Y-100990280D03*
X109052200Y-104490280D03*
D11*
X145054320Y-44119800D03*
D33*
X111160560Y-80848200D03*
X111160560Y-73248520D03*
D34*
X140568680Y-73771760D03*
X135793480Y-59598560D03*
X133304280Y-59623960D03*
X132008880Y-59623960D03*
X134548880Y-59634120D03*
X124973080Y-47889160D03*
X125811280Y-46949360D03*
X133761480Y-44739560D03*
X134879080Y-44739560D03*
D35*
X127614680Y-96098360D03*
X139095480Y-83982560D03*
X139095480Y-85735160D03*
X125811280Y-96072960D03*
D34*
X119715280Y-73720960D03*
X119766080Y-71384160D03*
X119739920Y-72552560D03*
X140568680Y-72552560D03*
X140543280Y-74990960D03*
D35*
X129087880Y-85379560D03*
X130129280Y-83880960D03*
X135971280Y-85150962D03*
D34*
X136328988Y-49262868D03*
X137368280Y-49565560D03*
X135387080Y-73492360D03*
X136580880Y-73492360D03*
X138511280Y-49590956D03*
X137749280Y-73466960D03*
X140289280Y-48422560D03*
X139654280Y-46288960D03*
X140289280Y-47304960D03*
X123144280Y-67091560D03*
X124287280Y-67091560D03*
D36*
X135793480Y-59598560D02*
X134584440Y-59598560D01*
X134584440Y-59598560D02*
X134548880Y-59634120D01*
X133304280Y-59623960D02*
X134691120Y-59623960D01*
X134691120Y-59623960D02*
X134701280Y-59634120D01*
D37*
X126268480Y-71108560D02*
X126268480Y-71638160D01*
X133532880Y-73212960D02*
X133913880Y-72831960D01*
X126268480Y-71638160D02*
X127843280Y-73212960D01*
X127843280Y-73212960D02*
X133532880Y-73212960D01*
X133913880Y-72831960D02*
X133913880Y-71721960D01*
X133913880Y-71721960D02*
X134627280Y-71008560D01*
D38*
X143789400Y-79908400D02*
X142321280Y-81376520D01*
X142321280Y-81376520D02*
X142321280Y-83474560D01*
X142321280Y-83474560D02*
X141305280Y-84490560D01*
X141305280Y-84490560D02*
X141305280Y-97434400D01*
X141305280Y-97434400D02*
X141559280Y-97688400D01*
X146329400Y-64668400D02*
X146883120Y-64668400D01*
X146883120Y-64668400D02*
X148264880Y-66050160D01*
X148264880Y-66050160D02*
X148264880Y-70901560D01*
X148264880Y-70901560D02*
X147223480Y-71942960D01*
X147223480Y-71942960D02*
X146674840Y-71942960D01*
X146674840Y-71942960D02*
X146329400Y-72288400D01*
X146329400Y-84988400D02*
X147462240Y-84988400D01*
X147462240Y-84988400D02*
X148239480Y-84211160D01*
X148239480Y-84211160D02*
X148239480Y-73339960D01*
X147187920Y-72288400D02*
X146329400Y-72288400D01*
X148239480Y-73339960D02*
X147187920Y-72288400D01*
X147147280Y-85252560D02*
X147452080Y-85252560D01*
X148264880Y-88960960D02*
X147157440Y-90068400D01*
X147452080Y-85252560D02*
X148264880Y-86065360D01*
X148264880Y-86065360D02*
X148264880Y-88960960D01*
X147157440Y-90068400D02*
X146329400Y-90068400D01*
X146329400Y-90068400D02*
X146984720Y-90068400D01*
X146984720Y-90068400D02*
X148214080Y-91297760D01*
X148214080Y-91297760D02*
X148214080Y-98816160D01*
X148214080Y-98816160D02*
X146639280Y-100390960D01*
X146639280Y-100390960D02*
X135735240Y-100390960D01*
X135735240Y-100390960D02*
X135683520Y-100442680D01*
D36*
X132453400Y-43403520D02*
X131978400Y-43403520D01*
X131978400Y-43403520D02*
X131053840Y-42478960D01*
X131053840Y-42478960D02*
X124795280Y-42478960D01*
X124795280Y-42478960D02*
X123286200Y-43988040D01*
X123286200Y-43988040D02*
X123286200Y-44343320D01*
D37*
X130454400Y-59682380D02*
X126895860Y-59682380D01*
X126895860Y-59682380D02*
X124541280Y-62036960D01*
X124541280Y-62036960D02*
X113030280Y-62036960D01*
X110327720Y-59334400D02*
X110027720Y-59334400D01*
X113030280Y-62036960D02*
X110327720Y-59334400D01*
D38*
X109992160Y-51811040D02*
X109992160Y-51694080D01*
X109992160Y-51694080D02*
X113930040Y-47756200D01*
X113930040Y-47756200D02*
X123316680Y-47756200D01*
X136138920Y-51495320D02*
X136097640Y-51495320D01*
X136097640Y-51495320D02*
X134193280Y-49590960D01*
X134193280Y-49590960D02*
X123316680Y-49590960D01*
D37*
X123286200Y-44343320D02*
X123286200Y-46400720D01*
X123286200Y-46400720D02*
X123316680Y-46431200D01*
X134627280Y-71008560D02*
X136352280Y-71008560D01*
X138054080Y-59634120D02*
X133685280Y-59634120D01*
X133685280Y-59634120D02*
X130502660Y-59634120D01*
X133939280Y-65156080D02*
X133939280Y-59888120D01*
X133939280Y-59888120D02*
X133685280Y-59634120D01*
X130502660Y-59634120D02*
X130454400Y-59682380D01*
X137942320Y-65156080D02*
X133939280Y-65156080D01*
X133939280Y-65156080D02*
X130390900Y-65156080D01*
X134627280Y-71008560D02*
X133939280Y-70320560D01*
X133939280Y-70320560D02*
X133939280Y-65156080D01*
X130390900Y-65156080D02*
X130342640Y-65204340D01*
D39*
X110418880Y-66299040D02*
X107269280Y-66299040D01*
X107269280Y-66299040D02*
X107269280Y-61020960D01*
X107269280Y-61020960D02*
X108955840Y-59334400D01*
X108955840Y-59334400D02*
X110027720Y-59334400D01*
X122407680Y-82031840D02*
X119907530Y-82031840D01*
X119907530Y-82031840D02*
X118566410Y-83372960D01*
X118566410Y-83372960D02*
X109047280Y-83372960D01*
X109047280Y-83372960D02*
X107269280Y-81594960D01*
X107269280Y-81594960D02*
X107269280Y-61020960D01*
X107269280Y-61020960D02*
X108955840Y-59334400D01*
X108955840Y-59334400D02*
X110027720Y-59334400D01*
D37*
X132283520Y-91292680D02*
X127586740Y-91292680D01*
X127586740Y-91292680D02*
X126685040Y-90390980D01*
X132283520Y-91292680D02*
X132283520Y-97042680D01*
D39*
X132283520Y-97042680D02*
X135683520Y-100442680D01*
D37*
X135683520Y-91292680D02*
X135683520Y-100442680D01*
D40*
X143789400Y-97688400D02*
X138437800Y-97688400D01*
X138437800Y-97688400D02*
X135683520Y-100442680D01*
D39*
X126685040Y-90390980D02*
X122407680Y-86113620D01*
X122407680Y-86113620D02*
X122407680Y-82031840D01*
D40*
X123225560Y-104099360D02*
X132026840Y-104099360D01*
X132026840Y-104099360D02*
X135683520Y-100442680D01*
X114929920Y-104307960D02*
X123016960Y-104307960D01*
X123016960Y-104307960D02*
X123225560Y-104099360D01*
X109052200Y-104490280D02*
X114747600Y-104490280D01*
X114747600Y-104490280D02*
X114929920Y-104307960D01*
D38*
X130342640Y-65204340D02*
X134447280Y-65204340D01*
X134447280Y-65204340D02*
X137894060Y-65204340D01*
D41*
X134701280Y-59634120D02*
X134151281Y-60184119D01*
X134151281Y-60184119D02*
X134151281Y-64908341D01*
X134151281Y-64908341D02*
X134447280Y-65204340D01*
X134701280Y-59634120D02*
X138054080Y-59634120D01*
D38*
X134701280Y-59634120D02*
X130502660Y-59634120D01*
X136352280Y-71008560D02*
X136352280Y-71133560D01*
X137894060Y-65204340D02*
X137942320Y-65156080D01*
X143789400Y-97688400D02*
X141559280Y-97688400D01*
X141559280Y-97688400D02*
X138437800Y-97688400D01*
X109727720Y-59334400D02*
X110027720Y-59334400D01*
X109992160Y-51811040D02*
X109875200Y-51811040D01*
X109875200Y-51811040D02*
X107777280Y-53908960D01*
X107777280Y-53908960D02*
X107777280Y-57383960D01*
X107777280Y-57383960D02*
X109727720Y-59334400D01*
X123316680Y-47756200D02*
X123316680Y-46431200D01*
X123316680Y-52370640D02*
X123316680Y-49590960D01*
X123316680Y-49590960D02*
X123316680Y-47756200D01*
X126283720Y-53987680D02*
X124933720Y-53987680D01*
X124933720Y-53987680D02*
X123316680Y-52370640D01*
X136352280Y-70883560D02*
X136352280Y-71008560D01*
X137942320Y-65156080D02*
X136942700Y-65156080D01*
X123261120Y-103919020D02*
X132207180Y-103919020D01*
X132207180Y-103919020D02*
X135683520Y-100442680D01*
X123261120Y-103919020D02*
X115318860Y-103919020D01*
X115318860Y-103919020D02*
X114929920Y-104307960D01*
D37*
X125523079Y-47339161D02*
X124973080Y-47889160D01*
X125816680Y-47045560D02*
X125523079Y-47339161D01*
X125816680Y-46431200D02*
X125816680Y-47045560D01*
D36*
X132453400Y-45943520D02*
X129772400Y-45943520D01*
X129772400Y-45943520D02*
X128803400Y-46912520D01*
D37*
X125816680Y-46431200D02*
X128322080Y-46431200D01*
X128322080Y-46431200D02*
X128803400Y-46912520D01*
D41*
X134813040Y-44673520D02*
X134879080Y-44739560D01*
X132453400Y-44673520D02*
X134813040Y-44673520D01*
D37*
X128803400Y-44212520D02*
X125917000Y-44212520D01*
X125917000Y-44212520D02*
X125786200Y-44343320D01*
D41*
X132453400Y-44673520D02*
X133678400Y-44673520D01*
D36*
X132453400Y-44673520D02*
X129264400Y-44673520D01*
X129264400Y-44673520D02*
X128803400Y-44212520D01*
D38*
X138054080Y-57033160D02*
X140111480Y-57033160D01*
X140111480Y-57033160D02*
X141178280Y-58099960D01*
X141178280Y-58099960D02*
X141178280Y-60411360D01*
X141178280Y-60411360D02*
X142895320Y-62128400D01*
X142895320Y-62128400D02*
X143789400Y-62128400D01*
D36*
X138597640Y-56489600D02*
X138054080Y-57033160D01*
D37*
X138597640Y-53939440D02*
X138597640Y-56489600D01*
X136138920Y-53995320D02*
X138541760Y-53995320D01*
X138541760Y-53995320D02*
X138597640Y-53939440D01*
D40*
X127614680Y-96098360D02*
X125836680Y-96098360D01*
D36*
X125836680Y-96098360D02*
X125811280Y-96072960D01*
D40*
X123225560Y-96098360D02*
X125785880Y-96098360D01*
X125785880Y-96098360D02*
X125811280Y-96072960D01*
D37*
X139083520Y-91292680D02*
X139083520Y-85723200D01*
D40*
X114929920Y-101807960D02*
X114929920Y-98239580D01*
X114929920Y-98239580D02*
X115067080Y-98102420D01*
X115067080Y-98102420D02*
X121221500Y-98102420D01*
X121221500Y-98102420D02*
X123225560Y-96098360D01*
D38*
X139273280Y-91102920D02*
X139083520Y-91292680D01*
X115067080Y-98102420D02*
X121076720Y-98102420D01*
X121076720Y-98102420D02*
X123261120Y-95918020D01*
D37*
X119766080Y-71384160D02*
X119766080Y-72526400D01*
X119766080Y-72526400D02*
X119739920Y-72552560D01*
D39*
X119739920Y-70012560D02*
X119739920Y-72552560D01*
X119739920Y-72552560D02*
X119739920Y-75529440D01*
D37*
X140568680Y-72552560D02*
X140568680Y-74965560D01*
D36*
X140568680Y-74965560D02*
X140543280Y-74990960D01*
D37*
X140543280Y-74990960D02*
X140543280Y-79242920D01*
X140543280Y-79242920D02*
X140086080Y-79700120D01*
X122407680Y-75529440D02*
X137165080Y-75529440D01*
X137165080Y-75529440D02*
X140086080Y-78450440D01*
X140086080Y-78450440D02*
X140086080Y-79700120D01*
D39*
X119969280Y-74990960D02*
X119969280Y-75529440D01*
X119969280Y-75300080D02*
X119969280Y-74990960D01*
X119739920Y-75529440D02*
X119969280Y-75300080D01*
X111160560Y-80848200D02*
X112588040Y-80848200D01*
X117906800Y-75529440D02*
X119969280Y-75529440D01*
X112588040Y-80848200D02*
X117906800Y-75529440D01*
X119969280Y-75529440D02*
X122407680Y-75529440D01*
D37*
X140086080Y-79700120D02*
X137335740Y-79700120D01*
X137335740Y-79700120D02*
X133983520Y-83052340D01*
X133983520Y-83052340D02*
X133983520Y-87692680D01*
X133983520Y-87692680D02*
X133983520Y-91292680D01*
D38*
X146329400Y-49428400D02*
X146329400Y-51968400D01*
D37*
X137942320Y-62555120D02*
X140542320Y-62555120D01*
X140542320Y-62555120D02*
X142485120Y-64497920D01*
X142485120Y-64497920D02*
X142485120Y-64668400D01*
X143789400Y-64668400D02*
X142485120Y-64668400D01*
X142485120Y-64668400D02*
X138841480Y-68312040D01*
X136352280Y-68508560D02*
X138644960Y-68508560D01*
X138644960Y-68508560D02*
X138841480Y-68312040D01*
D38*
X137942320Y-62555120D02*
X140045440Y-62555120D01*
X140045440Y-62555120D02*
X142158720Y-64668400D01*
X142158720Y-64668400D02*
X143789400Y-64668400D01*
D37*
X126283720Y-51287680D02*
X128651760Y-51287680D01*
X128651760Y-51287680D02*
X128986280Y-50953160D01*
X131775200Y-51208960D02*
X129242080Y-51208960D01*
X129242080Y-51208960D02*
X128986280Y-50953160D01*
D38*
X128986280Y-54223160D02*
X128986280Y-54543960D01*
X128986280Y-54543960D02*
X123271280Y-60258960D01*
X123271280Y-60258960D02*
X117429280Y-60258960D01*
X117429280Y-60258960D02*
X112481360Y-55311040D01*
X112481360Y-55311040D02*
X109992160Y-55311040D01*
D40*
X115067080Y-94104460D02*
X115067080Y-88607120D01*
X115067080Y-88607120D02*
X115688600Y-87985600D01*
D42*
X126268480Y-68408560D02*
X126594880Y-68408560D01*
X126594880Y-68408560D02*
X129032000Y-70845680D01*
X129032000Y-70845680D02*
X129032000Y-71424040D01*
D37*
X131754880Y-71108560D02*
X131770120Y-71123800D01*
D38*
X131770120Y-71123800D02*
X129332240Y-71123800D01*
X129332240Y-71123800D02*
X129032000Y-71424040D01*
D36*
X110027720Y-62834400D02*
X110063160Y-62798960D01*
X110063160Y-62798960D02*
X111079280Y-62798960D01*
X112349280Y-64068960D02*
X124287280Y-64068960D01*
X111079280Y-62798960D02*
X112349280Y-64068960D01*
X124287280Y-64068960D02*
X128372360Y-68154040D01*
X128372360Y-68154040D02*
X129032000Y-68154040D01*
X130129280Y-83880960D02*
X130129280Y-84388960D01*
X130129280Y-84388960D02*
X129875280Y-84642960D01*
X130083560Y-79700120D02*
X130083560Y-82649060D01*
X130083560Y-82649060D02*
X130129280Y-82694780D01*
D43*
X130129280Y-83880960D02*
X130129280Y-79745840D01*
D40*
X130129280Y-79745840D02*
X130083560Y-79700120D01*
D43*
X130083560Y-82864960D02*
X130083560Y-79700120D01*
X130083560Y-82864960D02*
X130083560Y-82994500D01*
X129875280Y-84642960D02*
X128125220Y-86393020D01*
D40*
X130129280Y-82694780D02*
X130129280Y-84134960D01*
X130337560Y-80624680D02*
X130129280Y-80832960D01*
D43*
X128125220Y-86393020D02*
X126685040Y-86393020D01*
D39*
X126685040Y-86393020D02*
X128125220Y-86393020D01*
D37*
X136521279Y-85700961D02*
X135971280Y-85150962D01*
X137383520Y-86563202D02*
X136521279Y-85700961D01*
X137383520Y-91292680D02*
X137383520Y-86563202D01*
D39*
X116469920Y-70012560D02*
X110418880Y-70012560D01*
X110520480Y-69910960D02*
X110418880Y-69910960D01*
X110418880Y-70012560D02*
X110520480Y-69910960D01*
X110418880Y-68199040D02*
X110418880Y-69910960D01*
X110418880Y-69910960D02*
X110418880Y-72506840D01*
X110418880Y-72506840D02*
X111160560Y-73248520D01*
D40*
X109052200Y-93990280D02*
X109052200Y-88749200D01*
X109052200Y-88749200D02*
X108288600Y-87985600D01*
D37*
X135387080Y-73492360D02*
X136580880Y-73492360D01*
X137749280Y-73466960D02*
X136606280Y-73466960D01*
D36*
X136606280Y-73466960D02*
X136580880Y-73492360D01*
X137733463Y-49590956D02*
X138511280Y-49590956D01*
X134355840Y-47213520D02*
X136733276Y-49590956D01*
X132453400Y-47213520D02*
X134355840Y-47213520D01*
X136733276Y-49590956D02*
X137733463Y-49590956D01*
D38*
X138511280Y-50098960D02*
X138511280Y-49590956D01*
D36*
X138511280Y-50098960D02*
X138511280Y-49844960D01*
X138511280Y-49844960D02*
X138765280Y-49590960D01*
X138511280Y-50860960D02*
X138511280Y-50098960D01*
D38*
X138765280Y-49590960D02*
X143626840Y-49590960D01*
X143626840Y-49590960D02*
X143789400Y-49428400D01*
X138511280Y-50098960D02*
X138511280Y-51153080D01*
X138597640Y-51239440D02*
X138597640Y-51028600D01*
X138597640Y-51028600D02*
X138765280Y-50860960D01*
D37*
X143789400Y-69748400D02*
X143118840Y-70418960D01*
X143118840Y-70418960D02*
X139434560Y-70418960D01*
X139434560Y-70418960D02*
X138841480Y-71012040D01*
X138841480Y-71012040D02*
X138841480Y-72374760D01*
X138841480Y-72374760D02*
X137749280Y-73466960D01*
D38*
X138511280Y-51153080D02*
X138597640Y-51239440D01*
D41*
X140289280Y-47304960D02*
X140289280Y-48422560D01*
X139654280Y-46288960D02*
X139400280Y-46288960D01*
X139400280Y-46288960D02*
X139054840Y-45943520D01*
X137853400Y-45943520D02*
X139054840Y-45943520D01*
X139054840Y-45943520D02*
X140289280Y-47177960D01*
X140289280Y-47177960D02*
X140289280Y-47304960D01*
D36*
X137853400Y-44673520D02*
X137853400Y-45943520D01*
D41*
X137853400Y-43403520D02*
X139435840Y-43403520D01*
X139435840Y-43403520D02*
X143083280Y-47050960D01*
X143083280Y-47050960D02*
X146791680Y-47050960D01*
X146791680Y-47050960D02*
X147909280Y-48168560D01*
X147909280Y-48168560D02*
X147909280Y-55468520D01*
X147909280Y-55468520D02*
X146329400Y-57048400D01*
X137853400Y-47213520D02*
X136628400Y-47213520D01*
X136628400Y-47213520D02*
X135980282Y-46565402D01*
X148671280Y-43698160D02*
X148671280Y-57210960D01*
X135980282Y-46565402D02*
X135980282Y-42977958D01*
X135980282Y-42977958D02*
X137393680Y-41564560D01*
X146537680Y-41564560D02*
X148671280Y-43698160D01*
X137393680Y-41564560D02*
X146537680Y-41564560D01*
X148671280Y-57210960D02*
X146329400Y-59552840D01*
X146329400Y-59552840D02*
X146329400Y-59588400D01*
D37*
X119566680Y-67086480D02*
X124256790Y-67086480D01*
X124256795Y-67061075D02*
X124287280Y-67091560D01*
D38*
X119666680Y-67086480D02*
X119566680Y-67086480D01*
D39*
X112417860Y-67249040D02*
X116704120Y-67249040D01*
X116704120Y-67249040D02*
X116866680Y-67086480D01*
D38*
X116866680Y-67086480D02*
X112580420Y-67086480D01*
X112580420Y-67086480D02*
X112417860Y-67249040D01*
D37*
X131775200Y-53908960D02*
X131775200Y-55712360D01*
X131775200Y-55712360D02*
X130454400Y-57033160D01*
D36*
X130342640Y-62555120D02*
X128849120Y-62555120D01*
X131770120Y-68323800D02*
X131770120Y-68423800D01*
X128849120Y-62555120D02*
X127335280Y-64068960D01*
X127335280Y-64068960D02*
X127335280Y-65338960D01*
X127335280Y-65338960D02*
X128859280Y-66862960D01*
X128859280Y-66862960D02*
X130309280Y-66862960D01*
X130309280Y-66862960D02*
X131770120Y-68323800D01*
D44*
G36*
X135355907Y-42353583D02*
X135164496Y-42640048D01*
X135141122Y-42757559D01*
X135097282Y-42977958D01*
X135097282Y-43531750D01*
X134639848Y-43531351D01*
X134320041Y-43663492D01*
X134002820Y-43531770D01*
X133745926Y-43531546D01*
X133721900Y-43507520D01*
X132557400Y-43507520D01*
X132557400Y-43527520D01*
X132349400Y-43527520D01*
X132349400Y-43507520D01*
X131184900Y-43507520D01*
X131020400Y-43672020D01*
X131020400Y-43715520D01*
X130124290Y-43715520D01*
X130124290Y-43462520D01*
X130078408Y-43218680D01*
X129934299Y-42994728D01*
X129901965Y-42972635D01*
X131020400Y-42972635D01*
X131020400Y-43135020D01*
X131184900Y-43299520D01*
X132349400Y-43299520D01*
X132349400Y-42610020D01*
X132557400Y-42610020D01*
X132557400Y-43299520D01*
X133721900Y-43299520D01*
X133886400Y-43135020D01*
X133886400Y-42972635D01*
X133786225Y-42730793D01*
X133601127Y-42545694D01*
X133359284Y-42445520D01*
X132721900Y-42445520D01*
X132557400Y-42610020D01*
X132349400Y-42610020D01*
X132184900Y-42445520D01*
X131547516Y-42445520D01*
X131305673Y-42545694D01*
X131120575Y-42730793D01*
X131020400Y-42972635D01*
X129901965Y-42972635D01*
X129714414Y-42844487D01*
X129453400Y-42791630D01*
X128153400Y-42791630D01*
X127909560Y-42837512D01*
X127685608Y-42981621D01*
X127669962Y-43004520D01*
X125917000Y-43004520D01*
X125701278Y-43047430D01*
X125036200Y-43047430D01*
X124792360Y-43093312D01*
X124568408Y-43237421D01*
X124534898Y-43286465D01*
X124408927Y-43160494D01*
X124167084Y-43060320D01*
X123554700Y-43060320D01*
X123390200Y-43224820D01*
X123390200Y-44239320D01*
X123410200Y-44239320D01*
X123410200Y-44447320D01*
X123390200Y-44447320D01*
X123390200Y-45461820D01*
X123420680Y-45492300D01*
X123420680Y-46327200D01*
X123440680Y-46327200D01*
X123440680Y-46535200D01*
X123420680Y-46535200D01*
X123420680Y-47549700D01*
X123585180Y-47714200D01*
X123765232Y-47714200D01*
X123764871Y-48128392D01*
X123948390Y-48572543D01*
X124287910Y-48912655D01*
X124731740Y-49096950D01*
X125212312Y-49097369D01*
X125656463Y-48913850D01*
X125996575Y-48574330D01*
X125996784Y-48573826D01*
X126670865Y-47899745D01*
X126821689Y-47674021D01*
X126875802Y-47639200D01*
X127482510Y-47639200D01*
X127482510Y-47662520D01*
X127528392Y-47906360D01*
X127672501Y-48130312D01*
X127892386Y-48280553D01*
X128153400Y-48333410D01*
X129453400Y-48333410D01*
X129697240Y-48287528D01*
X129921192Y-48143419D01*
X130071433Y-47923534D01*
X130124290Y-47662520D01*
X130124290Y-46946446D01*
X130169216Y-46901520D01*
X131009940Y-46901520D01*
X131007510Y-46913520D01*
X131007510Y-47513520D01*
X131053392Y-47757360D01*
X131197501Y-47981312D01*
X131417386Y-48131553D01*
X131678400Y-48184410D01*
X133228400Y-48184410D01*
X133296904Y-48171520D01*
X133959024Y-48171520D01*
X135120926Y-49333422D01*
X135120779Y-49502100D01*
X135304298Y-49946251D01*
X135445121Y-50087320D01*
X135383035Y-50087320D01*
X135141193Y-50187495D01*
X134956094Y-50372593D01*
X134855920Y-50614436D01*
X134855920Y-51226820D01*
X135020420Y-51391320D01*
X136034920Y-51391320D01*
X136034920Y-51371320D01*
X136242920Y-51371320D01*
X136242920Y-51391320D01*
X136262920Y-51391320D01*
X136262920Y-51599320D01*
X136242920Y-51599320D01*
X136242920Y-51619320D01*
X136034920Y-51619320D01*
X136034920Y-51599320D01*
X135020420Y-51599320D01*
X134855920Y-51763820D01*
X134855920Y-52376204D01*
X134956094Y-52618047D01*
X135080409Y-52742362D01*
X135046128Y-52764421D01*
X134895887Y-52984306D01*
X134843030Y-53245320D01*
X134843030Y-54745320D01*
X134888912Y-54989160D01*
X135033021Y-55213112D01*
X135252906Y-55363353D01*
X135513920Y-55416210D01*
X136763920Y-55416210D01*
X137007760Y-55370328D01*
X137231712Y-55226219D01*
X137247358Y-55203320D01*
X137389640Y-55203320D01*
X137389640Y-55861890D01*
X136554080Y-55861890D01*
X136310240Y-55907772D01*
X136086288Y-56051881D01*
X135936047Y-56271766D01*
X135883190Y-56532780D01*
X135883190Y-57533540D01*
X135929072Y-57777380D01*
X136073181Y-58001332D01*
X136293066Y-58151573D01*
X136554080Y-58204430D01*
X139554080Y-58204430D01*
X139797920Y-58158548D01*
X139806086Y-58153294D01*
X140170280Y-58517488D01*
X140170280Y-58901942D01*
X140111905Y-58761013D01*
X139926807Y-58575914D01*
X139684964Y-58475740D01*
X138322580Y-58475740D01*
X138158080Y-58640240D01*
X138158080Y-59530120D01*
X138178080Y-59530120D01*
X138178080Y-59738120D01*
X138158080Y-59738120D01*
X138158080Y-60628000D01*
X138322580Y-60792500D01*
X139684964Y-60792500D01*
X139926807Y-60692326D01*
X140111905Y-60507227D01*
X140170280Y-60366298D01*
X140170280Y-60411355D01*
X140170279Y-60411360D01*
X140247009Y-60797105D01*
X140465516Y-61124124D01*
X140724812Y-61383420D01*
X140542320Y-61347120D01*
X137942320Y-61347120D01*
X137757667Y-61383850D01*
X136442320Y-61383850D01*
X136198480Y-61429732D01*
X135974528Y-61573841D01*
X135824287Y-61793726D01*
X135771430Y-62054740D01*
X135771430Y-63055500D01*
X135817312Y-63299340D01*
X135961421Y-63523292D01*
X136181306Y-63673533D01*
X136442320Y-63726390D01*
X137757667Y-63726390D01*
X137942320Y-63763120D01*
X139827912Y-63763120D01*
X140754971Y-64690179D01*
X140060445Y-65384705D01*
X139935820Y-65260080D01*
X138046320Y-65260080D01*
X138046320Y-66149960D01*
X138210820Y-66314460D01*
X139130690Y-66314460D01*
X138554000Y-66891150D01*
X138191480Y-66891150D01*
X137947640Y-66937032D01*
X137723688Y-67081141D01*
X137573765Y-67300560D01*
X137464480Y-67300560D01*
X137458179Y-67290768D01*
X137238294Y-67140527D01*
X136977280Y-67087670D01*
X135727280Y-67087670D01*
X135483440Y-67133552D01*
X135259488Y-67277661D01*
X135109247Y-67497546D01*
X135056390Y-67758560D01*
X135056390Y-69258560D01*
X135102272Y-69502400D01*
X135246381Y-69726352D01*
X135295425Y-69759862D01*
X135169454Y-69885833D01*
X135069280Y-70127676D01*
X135069280Y-70740060D01*
X135233780Y-70904560D01*
X136248280Y-70904560D01*
X136248280Y-70884560D01*
X136456280Y-70884560D01*
X136456280Y-70904560D01*
X136476280Y-70904560D01*
X136476280Y-71112560D01*
X136456280Y-71112560D01*
X136456280Y-71132560D01*
X136248280Y-71132560D01*
X136248280Y-71112560D01*
X135233780Y-71112560D01*
X135069280Y-71277060D01*
X135069280Y-71889444D01*
X135169454Y-72131287D01*
X135322471Y-72284303D01*
X135147848Y-72284151D01*
X134703697Y-72467670D01*
X134363585Y-72807190D01*
X134179290Y-73251020D01*
X134178871Y-73731592D01*
X134362390Y-74175743D01*
X134507833Y-74321440D01*
X124278720Y-74321440D01*
X124278720Y-73779380D01*
X124232838Y-73535540D01*
X124088729Y-73311588D01*
X123868844Y-73161347D01*
X123607830Y-73108490D01*
X121207530Y-73108490D01*
X121047920Y-73138523D01*
X121047920Y-71377060D01*
X124960480Y-71377060D01*
X124960480Y-71989444D01*
X125060654Y-72231287D01*
X125245753Y-72416385D01*
X125487595Y-72516560D01*
X125999980Y-72516560D01*
X126164480Y-72352060D01*
X126164480Y-71212560D01*
X126372480Y-71212560D01*
X126372480Y-72352060D01*
X126536980Y-72516560D01*
X127049365Y-72516560D01*
X127291207Y-72416385D01*
X127476306Y-72231287D01*
X127576480Y-71989444D01*
X127576480Y-71377060D01*
X127411980Y-71212560D01*
X126372480Y-71212560D01*
X126164480Y-71212560D01*
X125124980Y-71212560D01*
X124960480Y-71377060D01*
X121047920Y-71377060D01*
X121047920Y-70012560D01*
X120948354Y-69512010D01*
X120862120Y-69382952D01*
X120819928Y-69158720D01*
X120675819Y-68934768D01*
X120455934Y-68784527D01*
X120194920Y-68731670D01*
X119876211Y-68731670D01*
X119739920Y-68704560D01*
X119603629Y-68731670D01*
X119284920Y-68731670D01*
X119041080Y-68777552D01*
X118817128Y-68921661D01*
X118666887Y-69141546D01*
X118618123Y-69382348D01*
X118531486Y-69512010D01*
X118431920Y-70012560D01*
X118431920Y-74221440D01*
X117906805Y-74221440D01*
X117906800Y-74221439D01*
X117406251Y-74321005D01*
X117267981Y-74413394D01*
X116981904Y-74604544D01*
X116981902Y-74604547D01*
X112121972Y-79464476D01*
X112100968Y-79443436D01*
X111491803Y-79190489D01*
X110832210Y-79189913D01*
X110222605Y-79441797D01*
X109755796Y-79907792D01*
X109502849Y-80516957D01*
X109502273Y-81176550D01*
X109754157Y-81786155D01*
X110220152Y-82252964D01*
X110829317Y-82505911D01*
X111488910Y-82506487D01*
X111987823Y-82300340D01*
X120549530Y-82300340D01*
X120549530Y-83912784D01*
X120649704Y-84154627D01*
X120834803Y-84339725D01*
X121076645Y-84439900D01*
X122139180Y-84439900D01*
X122303680Y-84275400D01*
X122303680Y-82135840D01*
X122511680Y-82135840D01*
X122511680Y-84275400D01*
X122676180Y-84439900D01*
X123738715Y-84439900D01*
X123980557Y-84339725D01*
X124165656Y-84154627D01*
X124265830Y-83912784D01*
X124265830Y-82300340D01*
X124101330Y-82135840D01*
X122511680Y-82135840D01*
X122303680Y-82135840D01*
X120714030Y-82135840D01*
X120549530Y-82300340D01*
X111987823Y-82300340D01*
X112098515Y-82254603D01*
X112197090Y-82156200D01*
X112588040Y-82156200D01*
X113088590Y-82056634D01*
X113512936Y-81773096D01*
X115135135Y-80150896D01*
X120549530Y-80150896D01*
X120549530Y-81763340D01*
X120714030Y-81927840D01*
X122303680Y-81927840D01*
X122303680Y-79788280D01*
X122511680Y-79788280D01*
X122511680Y-81927840D01*
X124101330Y-81927840D01*
X124265830Y-81763340D01*
X124265830Y-80150896D01*
X124165656Y-79909053D01*
X123980557Y-79723955D01*
X123738715Y-79623780D01*
X122676180Y-79623780D01*
X122511680Y-79788280D01*
X122303680Y-79788280D01*
X122139180Y-79623780D01*
X121076645Y-79623780D01*
X120834803Y-79723955D01*
X120649704Y-79909053D01*
X120549530Y-80150896D01*
X115135135Y-80150896D01*
X118448591Y-76837440D01*
X120536640Y-76837440D01*
X120536640Y-77279500D01*
X120582522Y-77523340D01*
X120726631Y-77747292D01*
X120946516Y-77897533D01*
X121207530Y-77950390D01*
X123607830Y-77950390D01*
X123851670Y-77904508D01*
X124075622Y-77760399D01*
X124225863Y-77540514D01*
X124278720Y-77279500D01*
X124278720Y-76737440D01*
X128016312Y-76737440D01*
X128015187Y-76739086D01*
X127962330Y-77000100D01*
X127962330Y-82400140D01*
X128008212Y-82643980D01*
X128152321Y-82867932D01*
X128372206Y-83018173D01*
X128621280Y-83068612D01*
X128621280Y-83835037D01*
X128441220Y-84015097D01*
X128234783Y-84100395D01*
X127815429Y-84519018D01*
X127585470Y-84472450D01*
X125784610Y-84472450D01*
X125540770Y-84518332D01*
X125316818Y-84662441D01*
X125166577Y-84882326D01*
X125113720Y-85143340D01*
X125113720Y-87642700D01*
X125159602Y-87886540D01*
X125303711Y-88110492D01*
X125523596Y-88260733D01*
X125784610Y-88313590D01*
X127585470Y-88313590D01*
X127829310Y-88267708D01*
X128053262Y-88123599D01*
X128203503Y-87903714D01*
X128217907Y-87832583D01*
X128683173Y-87740036D01*
X129156182Y-87423982D01*
X129907681Y-86672483D01*
X129940977Y-86658725D01*
X130365554Y-86234888D01*
X130379954Y-86200209D01*
X130906242Y-85673921D01*
X131222296Y-85200912D01*
X131233510Y-85144536D01*
X131522490Y-84712047D01*
X131619471Y-84224491D01*
X131637017Y-84182236D01*
X131637057Y-84136080D01*
X131637280Y-84134960D01*
X131637280Y-83880960D01*
X131637541Y-83582316D01*
X131637280Y-83581684D01*
X131637280Y-83051578D01*
X131777740Y-83025148D01*
X132001692Y-82881039D01*
X132151933Y-82661154D01*
X132204790Y-82400140D01*
X132204790Y-77000100D01*
X132158908Y-76756260D01*
X132146798Y-76737440D01*
X136664710Y-76737440D01*
X137964850Y-78037580D01*
X137964850Y-78492120D01*
X137335740Y-78492120D01*
X136873458Y-78584074D01*
X136527788Y-78815043D01*
X136481555Y-78845935D01*
X133129335Y-82198155D01*
X132867474Y-82590058D01*
X132775520Y-83052340D01*
X132775520Y-88334680D01*
X132552020Y-88334680D01*
X132387520Y-88499180D01*
X132387520Y-91188680D01*
X132407520Y-91188680D01*
X132407520Y-91396680D01*
X132387520Y-91396680D01*
X132387520Y-94086180D01*
X132552020Y-94250680D01*
X132964405Y-94250680D01*
X133130381Y-94181930D01*
X133172506Y-94210713D01*
X133433520Y-94263570D01*
X134533520Y-94263570D01*
X134777360Y-94217688D01*
X134834390Y-94180990D01*
X135002635Y-94250680D01*
X135415020Y-94250680D01*
X135579520Y-94086180D01*
X135579520Y-91396680D01*
X135559520Y-91396680D01*
X135559520Y-91188680D01*
X135579520Y-91188680D01*
X135579520Y-88499180D01*
X135415020Y-88334680D01*
X135191520Y-88334680D01*
X135191520Y-86460015D01*
X135670004Y-86658699D01*
X135770735Y-86658787D01*
X136175520Y-87063572D01*
X136175520Y-88334680D01*
X135952020Y-88334680D01*
X135787520Y-88499180D01*
X135787520Y-91188680D01*
X135807520Y-91188680D01*
X135807520Y-91396680D01*
X135787520Y-91396680D01*
X135787520Y-94086180D01*
X135952020Y-94250680D01*
X136364405Y-94250680D01*
X136530381Y-94181930D01*
X136572506Y-94210713D01*
X136833520Y-94263570D01*
X137933520Y-94263570D01*
X138177360Y-94217688D01*
X138231617Y-94182775D01*
X138272506Y-94210713D01*
X138533520Y-94263570D01*
X139633520Y-94263570D01*
X139877360Y-94217688D01*
X140101312Y-94073579D01*
X140251553Y-93853694D01*
X140304410Y-93592680D01*
X140304410Y-88992680D01*
X140291520Y-88924176D01*
X140291520Y-86671980D01*
X140373154Y-86590488D01*
X140603217Y-86036436D01*
X140603741Y-85436516D01*
X140374645Y-84882063D01*
X140351813Y-84859191D01*
X140373154Y-84837888D01*
X140603217Y-84283836D01*
X140603741Y-83683916D01*
X140374645Y-83129463D01*
X140316314Y-83071030D01*
X141536420Y-83071030D01*
X141780260Y-83025148D01*
X142004212Y-82881039D01*
X142154453Y-82661154D01*
X142207310Y-82400140D01*
X142207310Y-77000100D01*
X142161428Y-76756260D01*
X142017319Y-76532308D01*
X141797434Y-76382067D01*
X141751280Y-76372721D01*
X141751280Y-75093254D01*
X141776680Y-74965560D01*
X141776680Y-73772241D01*
X141776889Y-73532528D01*
X141776680Y-73532022D01*
X141776680Y-72552560D01*
X141776889Y-72313328D01*
X141593370Y-71869177D01*
X141351575Y-71626960D01*
X142406701Y-71626960D01*
X142353815Y-71706109D01*
X142237990Y-72288400D01*
X142353815Y-72870691D01*
X142683656Y-73364334D01*
X142974097Y-73558400D01*
X142683656Y-73752466D01*
X142353815Y-74246109D01*
X142237990Y-74828400D01*
X142353815Y-75410691D01*
X142683656Y-75904334D01*
X142974097Y-76098400D01*
X142683656Y-76292466D01*
X142353815Y-76786109D01*
X142237990Y-77368400D01*
X142353815Y-77950691D01*
X142683656Y-78444334D01*
X142974208Y-78638474D01*
X142907547Y-78668390D01*
X142500143Y-79100251D01*
X142306317Y-79568206D01*
X142436291Y-79804400D01*
X143685400Y-79804400D01*
X143685400Y-79784400D01*
X143893400Y-79784400D01*
X143893400Y-79804400D01*
X143913400Y-79804400D01*
X143913400Y-80012400D01*
X143893400Y-80012400D01*
X143893400Y-80032400D01*
X143685400Y-80032400D01*
X143685400Y-80012400D01*
X142436291Y-80012400D01*
X142306317Y-80248594D01*
X142500143Y-80716549D01*
X142907547Y-81148410D01*
X142974208Y-81178326D01*
X142683656Y-81372466D01*
X142353815Y-81866109D01*
X142237990Y-82448400D01*
X142353815Y-83030691D01*
X142683656Y-83524334D01*
X142974097Y-83718400D01*
X142683656Y-83912466D01*
X142353815Y-84406109D01*
X142237990Y-84988400D01*
X142353815Y-85570691D01*
X142683656Y-86064334D01*
X142974097Y-86258400D01*
X142683656Y-86452466D01*
X142353815Y-86946109D01*
X142237990Y-87528400D01*
X142353815Y-88110691D01*
X142683656Y-88604334D01*
X142974097Y-88798400D01*
X142683656Y-88992466D01*
X142353815Y-89486109D01*
X142237990Y-90068400D01*
X142353815Y-90650691D01*
X142683656Y-91144334D01*
X142974097Y-91338400D01*
X142683656Y-91532466D01*
X142353815Y-92026109D01*
X142237990Y-92608400D01*
X142353815Y-93190691D01*
X142683656Y-93684334D01*
X142974097Y-93878400D01*
X142683656Y-94072466D01*
X142353815Y-94566109D01*
X142237990Y-95148400D01*
X142353815Y-95730691D01*
X142683656Y-96224334D01*
X142974208Y-96418474D01*
X142907547Y-96448390D01*
X142500143Y-96880251D01*
X142306317Y-97348206D01*
X142436291Y-97584400D01*
X143685400Y-97584400D01*
X143685400Y-97564400D01*
X143893400Y-97564400D01*
X143893400Y-97584400D01*
X143913400Y-97584400D01*
X143913400Y-97792400D01*
X143893400Y-97792400D01*
X143893400Y-99041949D01*
X144129595Y-99171490D01*
X144671253Y-98928410D01*
X145058796Y-98517603D01*
X145223656Y-98764334D01*
X145717299Y-99094175D01*
X146299590Y-99210000D01*
X146359210Y-99210000D01*
X146941501Y-99094175D01*
X147435144Y-98764334D01*
X147764985Y-98270691D01*
X147880810Y-97688400D01*
X147764985Y-97106109D01*
X147435144Y-96612466D01*
X147144703Y-96418400D01*
X147435144Y-96224334D01*
X147764985Y-95730691D01*
X147880810Y-95148400D01*
X147764985Y-94566109D01*
X147435144Y-94072466D01*
X147144703Y-93878400D01*
X147435144Y-93684334D01*
X147764985Y-93190691D01*
X147880810Y-92608400D01*
X147764985Y-92026109D01*
X147435144Y-91532466D01*
X147144592Y-91338326D01*
X147211253Y-91308410D01*
X147618657Y-90876549D01*
X147812483Y-90408594D01*
X147682509Y-90172400D01*
X146433400Y-90172400D01*
X146433400Y-90192400D01*
X146225400Y-90192400D01*
X146225400Y-90172400D01*
X146205400Y-90172400D01*
X146205400Y-89964400D01*
X146225400Y-89964400D01*
X146225400Y-89944400D01*
X146433400Y-89944400D01*
X146433400Y-89964400D01*
X147682509Y-89964400D01*
X147812483Y-89728206D01*
X147618657Y-89260251D01*
X147211253Y-88828390D01*
X147144592Y-88798474D01*
X147435144Y-88604334D01*
X147764985Y-88110691D01*
X147880810Y-87528400D01*
X147764985Y-86946109D01*
X147435144Y-86452466D01*
X147144592Y-86258326D01*
X147211253Y-86228410D01*
X147618657Y-85796549D01*
X147812483Y-85328594D01*
X147682509Y-85092400D01*
X146433400Y-85092400D01*
X146433400Y-85112400D01*
X146225400Y-85112400D01*
X146225400Y-85092400D01*
X146205400Y-85092400D01*
X146205400Y-84884400D01*
X146225400Y-84884400D01*
X146225400Y-84864400D01*
X146433400Y-84864400D01*
X146433400Y-84884400D01*
X147682509Y-84884400D01*
X147812483Y-84648206D01*
X147618657Y-84180251D01*
X147211253Y-83748390D01*
X147144592Y-83718474D01*
X147435144Y-83524334D01*
X147764985Y-83030691D01*
X147880810Y-82448400D01*
X147764985Y-81866109D01*
X147435144Y-81372466D01*
X147144703Y-81178400D01*
X147435144Y-80984334D01*
X147764985Y-80490691D01*
X147880810Y-79908400D01*
X147764985Y-79326109D01*
X147435144Y-78832466D01*
X147144703Y-78638400D01*
X147435144Y-78444334D01*
X147764985Y-77950691D01*
X147880810Y-77368400D01*
X147764985Y-76786109D01*
X147435144Y-76292466D01*
X147144703Y-76098400D01*
X147435144Y-75904334D01*
X147764985Y-75410691D01*
X147880810Y-74828400D01*
X147764985Y-74246109D01*
X147435144Y-73752466D01*
X147144592Y-73558326D01*
X147211253Y-73528410D01*
X147618657Y-73096549D01*
X147812483Y-72628594D01*
X147682509Y-72392400D01*
X146433400Y-72392400D01*
X146433400Y-72412400D01*
X146225400Y-72412400D01*
X146225400Y-72392400D01*
X146205400Y-72392400D01*
X146205400Y-72184400D01*
X146225400Y-72184400D01*
X146225400Y-72164400D01*
X146433400Y-72164400D01*
X146433400Y-72184400D01*
X147682509Y-72184400D01*
X147812483Y-71948206D01*
X147618657Y-71480251D01*
X147211253Y-71048390D01*
X147144592Y-71018474D01*
X147435144Y-70824334D01*
X147764985Y-70330691D01*
X147880810Y-69748400D01*
X147764985Y-69166109D01*
X147435144Y-68672466D01*
X147144703Y-68478400D01*
X147435144Y-68284334D01*
X147764985Y-67790691D01*
X147880810Y-67208400D01*
X147764985Y-66626109D01*
X147435144Y-66132466D01*
X147144592Y-65938326D01*
X147211253Y-65908410D01*
X147618657Y-65476549D01*
X147812483Y-65008594D01*
X147682509Y-64772400D01*
X146433400Y-64772400D01*
X146433400Y-64792400D01*
X146225400Y-64792400D01*
X146225400Y-64772400D01*
X146205400Y-64772400D01*
X146205400Y-64564400D01*
X146225400Y-64564400D01*
X146225400Y-64544400D01*
X146433400Y-64544400D01*
X146433400Y-64564400D01*
X147682509Y-64564400D01*
X147812483Y-64328206D01*
X147618657Y-63860251D01*
X147211253Y-63428390D01*
X147144592Y-63398474D01*
X147435144Y-63204334D01*
X147764985Y-62710691D01*
X147880810Y-62128400D01*
X147764985Y-61546109D01*
X147435144Y-61052466D01*
X147144703Y-60858400D01*
X147435144Y-60664334D01*
X147764985Y-60170691D01*
X147880810Y-59588400D01*
X147824696Y-59306295D01*
X148446294Y-58684697D01*
X148446294Y-105805444D01*
X145856975Y-105807861D01*
X146462281Y-105557754D01*
X147140253Y-104880964D01*
X147507622Y-103996242D01*
X147508458Y-103038280D01*
X147142634Y-102152919D01*
X146465844Y-101474947D01*
X145581122Y-101107578D01*
X144623160Y-101106742D01*
X143737799Y-101472566D01*
X143059827Y-102149356D01*
X142692458Y-103034078D01*
X142691622Y-103992040D01*
X143057446Y-104877401D01*
X143734236Y-105555373D01*
X144345693Y-105809273D01*
X125083710Y-105827258D01*
X125083710Y-104367860D01*
X124919210Y-104203360D01*
X123329560Y-104203360D01*
X123329560Y-104223360D01*
X123121560Y-104223360D01*
X123121560Y-104203360D01*
X121531910Y-104203360D01*
X121367410Y-104367860D01*
X121367410Y-105830727D01*
X110267837Y-105841091D01*
X110598122Y-105589124D01*
X110923791Y-105028686D01*
X110970293Y-104851857D01*
X110842075Y-104594280D01*
X109156200Y-104594280D01*
X109156200Y-104614280D01*
X108948200Y-104614280D01*
X108948200Y-104594280D01*
X107262325Y-104594280D01*
X107134107Y-104851857D01*
X107180609Y-105028686D01*
X107506278Y-105589124D01*
X107839535Y-105843359D01*
X106386840Y-105844715D01*
X106386840Y-104576460D01*
X113646920Y-104576460D01*
X113646920Y-105188844D01*
X113747094Y-105430687D01*
X113932193Y-105615785D01*
X114174035Y-105715960D01*
X114661420Y-105715960D01*
X114825920Y-105551460D01*
X114825920Y-104411960D01*
X115033920Y-104411960D01*
X115033920Y-105551460D01*
X115198420Y-105715960D01*
X115685805Y-105715960D01*
X115927647Y-105615785D01*
X116112746Y-105430687D01*
X116212920Y-105188844D01*
X116212920Y-104576460D01*
X116048420Y-104411960D01*
X115033920Y-104411960D01*
X114825920Y-104411960D01*
X113811420Y-104411960D01*
X113646920Y-104576460D01*
X106386840Y-104576460D01*
X106386840Y-104128703D01*
X107134107Y-104128703D01*
X107262325Y-104386280D01*
X108948200Y-104386280D01*
X108948200Y-102832280D01*
X109156200Y-102832280D01*
X109156200Y-104386280D01*
X110842075Y-104386280D01*
X110970293Y-104128703D01*
X110923791Y-103951874D01*
X110598122Y-103391436D01*
X110082773Y-102998287D01*
X109456200Y-102832280D01*
X109156200Y-102832280D01*
X108948200Y-102832280D01*
X108648200Y-102832280D01*
X108021627Y-102998287D01*
X107506278Y-103391436D01*
X107180609Y-103951874D01*
X107134107Y-104128703D01*
X106386840Y-104128703D01*
X106386840Y-100990280D01*
X106975841Y-100990280D01*
X107102049Y-101624769D01*
X107461458Y-102162663D01*
X107999352Y-102522072D01*
X108633841Y-102648280D01*
X109310559Y-102648280D01*
X109945048Y-102522072D01*
X110482942Y-102162663D01*
X110842351Y-101624769D01*
X110968559Y-100990280D01*
X110842351Y-100355791D01*
X110482942Y-99817897D01*
X109945048Y-99458488D01*
X109310559Y-99332280D01*
X108633841Y-99332280D01*
X107999352Y-99458488D01*
X107461458Y-99817897D01*
X107102049Y-100355791D01*
X106975841Y-100990280D01*
X106386840Y-100990280D01*
X106386840Y-97490280D01*
X107045841Y-97490280D01*
X107172049Y-98124769D01*
X107531458Y-98662663D01*
X108069352Y-99022072D01*
X108703841Y-99148280D01*
X109380559Y-99148280D01*
X110015048Y-99022072D01*
X110552942Y-98662663D01*
X110835636Y-98239580D01*
X113421920Y-98239580D01*
X113421920Y-101807960D01*
X113536710Y-102385047D01*
X113634030Y-102530697D01*
X113634030Y-102557960D01*
X113679912Y-102801800D01*
X113824021Y-103025752D01*
X113873065Y-103059262D01*
X113747094Y-103185233D01*
X113646920Y-103427076D01*
X113646920Y-104039460D01*
X113811420Y-104203960D01*
X114825920Y-104203960D01*
X114825920Y-104183960D01*
X115033920Y-104183960D01*
X115033920Y-104203960D01*
X116048420Y-104203960D01*
X116212920Y-104039460D01*
X116212920Y-103427076D01*
X116112746Y-103185233D01*
X115988431Y-103060918D01*
X116022712Y-103038859D01*
X116172953Y-102818974D01*
X116225810Y-102557960D01*
X116225810Y-102530697D01*
X116323130Y-102385047D01*
X116406041Y-101968226D01*
X121367410Y-101968226D01*
X121367410Y-103830860D01*
X121531910Y-103995360D01*
X123121560Y-103995360D01*
X123121560Y-101605610D01*
X123329560Y-101605610D01*
X123329560Y-103995360D01*
X124919210Y-103995360D01*
X125083710Y-103830860D01*
X125083710Y-101968226D01*
X124983536Y-101726383D01*
X124798437Y-101541285D01*
X124556595Y-101441110D01*
X123494060Y-101441110D01*
X123329560Y-101605610D01*
X123121560Y-101605610D01*
X122957060Y-101441110D01*
X121894525Y-101441110D01*
X121652683Y-101541285D01*
X121467584Y-101726383D01*
X121367410Y-101968226D01*
X116406041Y-101968226D01*
X116437920Y-101807960D01*
X116437920Y-100711180D01*
X129625520Y-100711180D01*
X129625520Y-105273564D01*
X129725694Y-105515407D01*
X129910793Y-105700505D01*
X130152635Y-105800680D01*
X135415020Y-105800680D01*
X135579520Y-105636180D01*
X135579520Y-100546680D01*
X135787520Y-100546680D01*
X135787520Y-105636180D01*
X135952020Y-105800680D01*
X141214405Y-105800680D01*
X141456247Y-105700505D01*
X141641346Y-105515407D01*
X141741520Y-105273564D01*
X141741520Y-100711180D01*
X141577020Y-100546680D01*
X135787520Y-100546680D01*
X135579520Y-100546680D01*
X129790020Y-100546680D01*
X129625520Y-100711180D01*
X116437920Y-100711180D01*
X116437920Y-99829167D01*
X116585543Y-99613114D01*
X116586089Y-99610420D01*
X121221500Y-99610420D01*
X121798587Y-99495630D01*
X122287817Y-99168737D01*
X122687054Y-98769500D01*
X124425710Y-98769500D01*
X124669550Y-98723618D01*
X124893502Y-98579509D01*
X125043743Y-98359624D01*
X125096600Y-98098610D01*
X125096600Y-97606360D01*
X125785880Y-97606360D01*
X125811280Y-97601308D01*
X125836680Y-97606360D01*
X127614509Y-97606360D01*
X127913324Y-97606621D01*
X128467777Y-97377525D01*
X128892354Y-96953688D01*
X129122417Y-96399636D01*
X129122941Y-95799716D01*
X129045294Y-95611796D01*
X129625520Y-95611796D01*
X129625520Y-100174180D01*
X129790020Y-100338680D01*
X135579520Y-100338680D01*
X135579520Y-95249180D01*
X135787520Y-95249180D01*
X135787520Y-100338680D01*
X141577020Y-100338680D01*
X141741520Y-100174180D01*
X141741520Y-98028594D01*
X142306317Y-98028594D01*
X142500143Y-98496549D01*
X142907547Y-98928410D01*
X143449205Y-99171490D01*
X143685400Y-99041949D01*
X143685400Y-97792400D01*
X142436291Y-97792400D01*
X142306317Y-98028594D01*
X141741520Y-98028594D01*
X141741520Y-95611796D01*
X141641346Y-95369953D01*
X141456247Y-95184855D01*
X141214405Y-95084680D01*
X135952020Y-95084680D01*
X135787520Y-95249180D01*
X135579520Y-95249180D01*
X135415020Y-95084680D01*
X130152635Y-95084680D01*
X129910793Y-95184855D01*
X129725694Y-95369953D01*
X129625520Y-95611796D01*
X129045294Y-95611796D01*
X128893845Y-95245263D01*
X128470008Y-94820686D01*
X127915956Y-94590623D01*
X127316036Y-94590099D01*
X127315404Y-94590360D01*
X126173092Y-94590360D01*
X126112556Y-94565223D01*
X125512636Y-94564699D01*
X125450532Y-94590360D01*
X125096600Y-94590360D01*
X125096600Y-94098110D01*
X125050718Y-93854270D01*
X124906609Y-93630318D01*
X124686724Y-93480077D01*
X124425710Y-93427220D01*
X122025410Y-93427220D01*
X121781570Y-93473102D01*
X121557618Y-93617211D01*
X121407377Y-93837096D01*
X121354520Y-94098110D01*
X121354520Y-95836766D01*
X120596866Y-96594420D01*
X116583200Y-96594420D01*
X116448409Y-96384948D01*
X116228524Y-96234707D01*
X115967510Y-96181850D01*
X114166650Y-96181850D01*
X113922810Y-96227732D01*
X113698858Y-96371841D01*
X113548617Y-96591726D01*
X113495760Y-96852740D01*
X113495760Y-97868362D01*
X113421920Y-98239580D01*
X110835636Y-98239580D01*
X110912351Y-98124769D01*
X111038559Y-97490280D01*
X110912351Y-96855791D01*
X110552942Y-96317897D01*
X110015048Y-95958488D01*
X109380559Y-95832280D01*
X108703841Y-95832280D01*
X108069352Y-95958488D01*
X107531458Y-96317897D01*
X107172049Y-96855791D01*
X107045841Y-97490280D01*
X106386840Y-97490280D01*
X106386840Y-85185600D01*
X106467710Y-85185600D01*
X106467710Y-90785600D01*
X106513592Y-91029440D01*
X106657701Y-91253392D01*
X106877586Y-91403633D01*
X107138600Y-91456490D01*
X107544200Y-91456490D01*
X107544200Y-92358528D01*
X107508360Y-92365272D01*
X107284408Y-92509381D01*
X107134167Y-92729266D01*
X107081310Y-92990280D01*
X107081310Y-94990280D01*
X107127192Y-95234120D01*
X107271301Y-95458072D01*
X107491186Y-95608313D01*
X107752200Y-95661170D01*
X110352200Y-95661170D01*
X110596040Y-95615288D01*
X110819992Y-95471179D01*
X110970233Y-95251294D01*
X111023090Y-94990280D01*
X111023090Y-92990280D01*
X110997594Y-92854780D01*
X113495760Y-92854780D01*
X113495760Y-95354140D01*
X113541642Y-95597980D01*
X113685751Y-95821932D01*
X113905636Y-95972173D01*
X114166650Y-96025030D01*
X115967510Y-96025030D01*
X116211350Y-95979148D01*
X116435302Y-95835039D01*
X116585543Y-95615154D01*
X116638400Y-95354140D01*
X116638400Y-92854780D01*
X116592518Y-92610940D01*
X116575080Y-92583841D01*
X116575080Y-91456490D01*
X116838600Y-91456490D01*
X117082440Y-91410608D01*
X117306392Y-91266499D01*
X117456633Y-91046614D01*
X117461455Y-91022800D01*
X119262662Y-91022800D01*
X119628486Y-91908161D01*
X120305276Y-92586133D01*
X121189998Y-92953502D01*
X122147960Y-92954338D01*
X123033321Y-92588514D01*
X123711293Y-91911724D01*
X124078662Y-91027002D01*
X124078982Y-90659480D01*
X125126610Y-90659480D01*
X125126610Y-91771544D01*
X125226784Y-92013387D01*
X125411883Y-92198485D01*
X125653725Y-92298660D01*
X126416540Y-92298660D01*
X126581040Y-92134160D01*
X126581040Y-90494980D01*
X126789040Y-90494980D01*
X126789040Y-92134160D01*
X126953540Y-92298660D01*
X127716355Y-92298660D01*
X127958197Y-92198485D01*
X128143296Y-92013387D01*
X128243470Y-91771544D01*
X128243470Y-91561180D01*
X131075520Y-91561180D01*
X131075520Y-93723564D01*
X131175694Y-93965407D01*
X131360793Y-94150505D01*
X131602635Y-94250680D01*
X132015020Y-94250680D01*
X132179520Y-94086180D01*
X132179520Y-91396680D01*
X131240020Y-91396680D01*
X131075520Y-91561180D01*
X128243470Y-91561180D01*
X128243470Y-90659480D01*
X128078970Y-90494980D01*
X126789040Y-90494980D01*
X126581040Y-90494980D01*
X125291110Y-90494980D01*
X125126610Y-90659480D01*
X124078982Y-90659480D01*
X124079498Y-90069040D01*
X123713674Y-89183679D01*
X123540714Y-89010416D01*
X125126610Y-89010416D01*
X125126610Y-90122480D01*
X125291110Y-90286980D01*
X126581040Y-90286980D01*
X126581040Y-88647800D01*
X126789040Y-88647800D01*
X126789040Y-90286980D01*
X128078970Y-90286980D01*
X128243470Y-90122480D01*
X128243470Y-89010416D01*
X128181910Y-88861796D01*
X131075520Y-88861796D01*
X131075520Y-91024180D01*
X131240020Y-91188680D01*
X132179520Y-91188680D01*
X132179520Y-88499180D01*
X132015020Y-88334680D01*
X131602635Y-88334680D01*
X131360793Y-88434855D01*
X131175694Y-88619953D01*
X131075520Y-88861796D01*
X128181910Y-88861796D01*
X128143296Y-88768573D01*
X127958197Y-88583475D01*
X127716355Y-88483300D01*
X126953540Y-88483300D01*
X126789040Y-88647800D01*
X126581040Y-88647800D01*
X126416540Y-88483300D01*
X125653725Y-88483300D01*
X125411883Y-88583475D01*
X125226784Y-88768573D01*
X125126610Y-89010416D01*
X123540714Y-89010416D01*
X123036884Y-88505707D01*
X122152162Y-88138338D01*
X121194200Y-88137502D01*
X120308839Y-88503326D01*
X119630867Y-89180116D01*
X119263498Y-90064838D01*
X119262662Y-91022800D01*
X117461455Y-91022800D01*
X117509490Y-90785600D01*
X117509490Y-85185600D01*
X117463608Y-84941760D01*
X117319499Y-84717808D01*
X117099614Y-84567567D01*
X116838600Y-84514710D01*
X114538600Y-84514710D01*
X114294760Y-84560592D01*
X114070808Y-84704701D01*
X113920567Y-84924586D01*
X113867710Y-85185600D01*
X113867710Y-87739931D01*
X113673870Y-88030033D01*
X113559080Y-88607120D01*
X113559080Y-92578453D01*
X113548617Y-92593766D01*
X113495760Y-92854780D01*
X110997594Y-92854780D01*
X110977208Y-92746440D01*
X110833099Y-92522488D01*
X110613214Y-92372247D01*
X110560200Y-92361511D01*
X110560200Y-88749200D01*
X110445410Y-88172113D01*
X110118517Y-87682883D01*
X110109490Y-87673856D01*
X110109490Y-85185600D01*
X110063608Y-84941760D01*
X109919499Y-84717808D01*
X109699614Y-84567567D01*
X109438600Y-84514710D01*
X107138600Y-84514710D01*
X106894760Y-84560592D01*
X106670808Y-84704701D01*
X106520567Y-84924586D01*
X106467710Y-85185600D01*
X106386840Y-85185600D01*
X106386840Y-65768106D01*
X109360830Y-65768106D01*
X109360830Y-66030540D01*
X109525330Y-66195040D01*
X110314880Y-66195040D01*
X110314880Y-65405490D01*
X110522880Y-65405490D01*
X110522880Y-66195040D01*
X111312430Y-66195040D01*
X111476930Y-66030540D01*
X111476930Y-65768106D01*
X111376756Y-65526263D01*
X111191657Y-65341165D01*
X110949815Y-65240990D01*
X110687380Y-65240990D01*
X110522880Y-65405490D01*
X110314880Y-65405490D01*
X110150380Y-65240990D01*
X109887945Y-65240990D01*
X109646103Y-65341165D01*
X109461004Y-65526263D01*
X109360830Y-65768106D01*
X106386840Y-65768106D01*
X106386840Y-62834400D01*
X108031361Y-62834400D01*
X108157569Y-63468889D01*
X108516978Y-64006783D01*
X109054872Y-64366192D01*
X109689361Y-64492400D01*
X110366079Y-64492400D01*
X111000568Y-64366192D01*
X111175087Y-64249583D01*
X111671872Y-64746368D01*
X111982669Y-64954037D01*
X112349280Y-65026960D01*
X123890464Y-65026960D01*
X124902539Y-66039035D01*
X124789550Y-65992118D01*
X124719076Y-65945029D01*
X124636674Y-65928638D01*
X124528620Y-65883770D01*
X124410591Y-65883667D01*
X124256795Y-65853075D01*
X124129076Y-65878480D01*
X120665555Y-65878480D01*
X120577694Y-65818447D01*
X120316680Y-65765590D01*
X118816680Y-65765590D01*
X118572840Y-65811472D01*
X118348888Y-65955581D01*
X118215122Y-66151355D01*
X118097579Y-65968688D01*
X117877694Y-65818447D01*
X117616680Y-65765590D01*
X116116680Y-65765590D01*
X115872840Y-65811472D01*
X115671485Y-65941040D01*
X112417860Y-65941040D01*
X111917310Y-66040606D01*
X111492964Y-66324144D01*
X111389051Y-66479661D01*
X111312430Y-66403040D01*
X110522880Y-66403040D01*
X110522880Y-66423040D01*
X110314880Y-66423040D01*
X110314880Y-66403040D01*
X109525330Y-66403040D01*
X109360830Y-66567540D01*
X109360830Y-66829974D01*
X109461004Y-67071817D01*
X109595501Y-67206313D01*
X109493984Y-67274144D01*
X109210446Y-67698490D01*
X109110880Y-68199040D01*
X109110880Y-72506840D01*
X109210446Y-73007390D01*
X109493984Y-73431736D01*
X109502392Y-73440144D01*
X109502273Y-73576870D01*
X109754157Y-74186475D01*
X110220152Y-74653284D01*
X110829317Y-74906231D01*
X111488910Y-74906807D01*
X112098515Y-74654923D01*
X112565324Y-74188928D01*
X112818271Y-73579763D01*
X112818847Y-72920170D01*
X112566963Y-72310565D01*
X112100968Y-71843756D01*
X111726880Y-71688421D01*
X111726880Y-71320560D01*
X116469920Y-71320560D01*
X116606211Y-71293450D01*
X116924920Y-71293450D01*
X117168760Y-71247568D01*
X117392712Y-71103459D01*
X117542953Y-70883574D01*
X117591717Y-70642772D01*
X117678354Y-70513110D01*
X117777920Y-70012560D01*
X117678354Y-69512010D01*
X117592120Y-69382952D01*
X117549928Y-69158720D01*
X117405819Y-68934768D01*
X117185934Y-68784527D01*
X116924920Y-68731670D01*
X116606211Y-68731670D01*
X116469920Y-68704560D01*
X111726880Y-68704560D01*
X111726880Y-68330233D01*
X111917310Y-68457474D01*
X112417860Y-68557040D01*
X116704120Y-68557040D01*
X117204670Y-68457474D01*
X117279656Y-68407370D01*
X117616680Y-68407370D01*
X117860520Y-68361488D01*
X118084472Y-68217379D01*
X118218238Y-68021605D01*
X118335781Y-68204272D01*
X118555666Y-68354513D01*
X118816680Y-68407370D01*
X120316680Y-68407370D01*
X120560520Y-68361488D01*
X120664654Y-68294480D01*
X122891212Y-68294480D01*
X122902940Y-68299350D01*
X123383512Y-68299769D01*
X123396312Y-68294480D01*
X124034212Y-68294480D01*
X124045940Y-68299350D01*
X124526512Y-68299769D01*
X124947590Y-68125784D01*
X124947590Y-69158560D01*
X124993472Y-69402400D01*
X125137581Y-69626352D01*
X125337300Y-69762814D01*
X125245753Y-69800735D01*
X125060654Y-69985833D01*
X124960480Y-70227676D01*
X124960480Y-70840060D01*
X125124980Y-71004560D01*
X126164480Y-71004560D01*
X126164480Y-70984560D01*
X126372480Y-70984560D01*
X126372480Y-71004560D01*
X127411980Y-71004560D01*
X127553311Y-70863229D01*
X127751110Y-71061028D01*
X127751110Y-71879040D01*
X127796992Y-72122880D01*
X127941101Y-72346832D01*
X128160986Y-72497073D01*
X128422000Y-72549930D01*
X129642000Y-72549930D01*
X129885840Y-72504048D01*
X130109792Y-72359939D01*
X130260033Y-72140054D01*
X130261704Y-72131800D01*
X130504224Y-72131800D01*
X130639221Y-72341592D01*
X130859106Y-72491833D01*
X131120120Y-72544690D01*
X132420120Y-72544690D01*
X132663960Y-72498808D01*
X132887912Y-72354699D01*
X133038153Y-72134814D01*
X133091010Y-71873800D01*
X133091010Y-70373800D01*
X133045128Y-70129960D01*
X132901019Y-69906008D01*
X132705245Y-69772242D01*
X132887912Y-69654699D01*
X133038153Y-69434814D01*
X133091010Y-69173800D01*
X133091010Y-67673800D01*
X133045128Y-67429960D01*
X132901019Y-67206008D01*
X132681134Y-67055767D01*
X132420120Y-67002910D01*
X131804046Y-67002910D01*
X131113056Y-66311920D01*
X131973524Y-66311920D01*
X132215367Y-66211746D01*
X132400465Y-66026647D01*
X132500640Y-65784805D01*
X132500640Y-65472840D01*
X132452380Y-65424580D01*
X135784320Y-65424580D01*
X135784320Y-65787345D01*
X135884495Y-66029187D01*
X136069593Y-66214286D01*
X136311436Y-66314460D01*
X137673820Y-66314460D01*
X137838320Y-66149960D01*
X137838320Y-65260080D01*
X135948820Y-65260080D01*
X135784320Y-65424580D01*
X132452380Y-65424580D01*
X132336140Y-65308340D01*
X130446640Y-65308340D01*
X130446640Y-65328340D01*
X130238640Y-65328340D01*
X130238640Y-65308340D01*
X130218640Y-65308340D01*
X130218640Y-65100340D01*
X130238640Y-65100340D01*
X130238640Y-64261260D01*
X130446640Y-64261260D01*
X130446640Y-65100340D01*
X132336140Y-65100340D01*
X132500640Y-64935840D01*
X132500640Y-64623875D01*
X132459608Y-64524815D01*
X135784320Y-64524815D01*
X135784320Y-64887580D01*
X135948820Y-65052080D01*
X137838320Y-65052080D01*
X137838320Y-64162200D01*
X138046320Y-64162200D01*
X138046320Y-65052080D01*
X139935820Y-65052080D01*
X140100320Y-64887580D01*
X140100320Y-64524815D01*
X140000145Y-64282973D01*
X139815047Y-64097874D01*
X139573204Y-63997700D01*
X138210820Y-63997700D01*
X138046320Y-64162200D01*
X137838320Y-64162200D01*
X137673820Y-63997700D01*
X136311436Y-63997700D01*
X136069593Y-64097874D01*
X135884495Y-64282973D01*
X135784320Y-64524815D01*
X132459608Y-64524815D01*
X132400465Y-64382033D01*
X132215367Y-64196934D01*
X131973524Y-64096760D01*
X130611140Y-64096760D01*
X130446640Y-64261260D01*
X130238640Y-64261260D01*
X130074140Y-64096760D01*
X128711756Y-64096760D01*
X128627323Y-64131733D01*
X129032666Y-63726390D01*
X131842640Y-63726390D01*
X132086480Y-63680508D01*
X132310432Y-63536399D01*
X132460673Y-63316514D01*
X132513530Y-63055500D01*
X132513530Y-62054740D01*
X132467648Y-61810900D01*
X132323539Y-61586948D01*
X132103654Y-61436707D01*
X131842640Y-61383850D01*
X128842640Y-61383850D01*
X128598800Y-61429732D01*
X128374848Y-61573841D01*
X128224607Y-61793726D01*
X128213215Y-61849980D01*
X128171712Y-61877712D01*
X126657872Y-63391552D01*
X126450203Y-63702349D01*
X126377280Y-64068960D01*
X126377280Y-64804144D01*
X124964688Y-63391552D01*
X124653891Y-63183883D01*
X124287280Y-63110960D01*
X112746096Y-63110960D01*
X111913470Y-62278334D01*
X111897871Y-62199911D01*
X111538462Y-61662017D01*
X111000568Y-61302608D01*
X110366079Y-61176400D01*
X109689361Y-61176400D01*
X109054872Y-61302608D01*
X108516978Y-61662017D01*
X108157569Y-62199911D01*
X108031361Y-62834400D01*
X106386840Y-62834400D01*
X106386840Y-59602900D01*
X108069720Y-59602900D01*
X108069720Y-60465284D01*
X108169894Y-60707127D01*
X108354993Y-60892225D01*
X108596835Y-60992400D01*
X109759220Y-60992400D01*
X109923720Y-60827900D01*
X109923720Y-59438400D01*
X110131720Y-59438400D01*
X110131720Y-60827900D01*
X110296220Y-60992400D01*
X111458605Y-60992400D01*
X111700447Y-60892225D01*
X111885546Y-60707127D01*
X111985720Y-60465284D01*
X111985720Y-59602900D01*
X111821220Y-59438400D01*
X110131720Y-59438400D01*
X109923720Y-59438400D01*
X108234220Y-59438400D01*
X108069720Y-59602900D01*
X106386840Y-59602900D01*
X106386840Y-58203516D01*
X108069720Y-58203516D01*
X108069720Y-59065900D01*
X108234220Y-59230400D01*
X109923720Y-59230400D01*
X109923720Y-57840900D01*
X110131720Y-57840900D01*
X110131720Y-59230400D01*
X111821220Y-59230400D01*
X111985720Y-59065900D01*
X111985720Y-58203516D01*
X111885546Y-57961673D01*
X111700447Y-57776575D01*
X111458605Y-57676400D01*
X110296220Y-57676400D01*
X110131720Y-57840900D01*
X109923720Y-57840900D01*
X109759220Y-57676400D01*
X108596835Y-57676400D01*
X108354993Y-57776575D01*
X108169894Y-57961673D01*
X108069720Y-58203516D01*
X106386840Y-58203516D01*
X106386840Y-55311040D01*
X107995801Y-55311040D01*
X108122009Y-55945529D01*
X108481418Y-56483423D01*
X109019312Y-56842832D01*
X109653801Y-56969040D01*
X110330519Y-56969040D01*
X110965008Y-56842832D01*
X111502902Y-56483423D01*
X111612739Y-56319040D01*
X112063832Y-56319040D01*
X116716514Y-60971721D01*
X116716516Y-60971724D01*
X116944599Y-61124124D01*
X117043535Y-61190231D01*
X117429280Y-61266961D01*
X117429285Y-61266960D01*
X123271275Y-61266960D01*
X123271280Y-61266961D01*
X123657025Y-61190231D01*
X123984044Y-60971724D01*
X125004887Y-59950880D01*
X128296400Y-59950880D01*
X128296400Y-60262845D01*
X128396575Y-60504687D01*
X128581673Y-60689786D01*
X128823516Y-60789960D01*
X130185900Y-60789960D01*
X130350400Y-60625460D01*
X130350400Y-59786380D01*
X130558400Y-59786380D01*
X130558400Y-60625460D01*
X130722900Y-60789960D01*
X132085284Y-60789960D01*
X132327127Y-60689786D01*
X132512225Y-60504687D01*
X132612400Y-60262845D01*
X132612400Y-59950880D01*
X132564140Y-59902620D01*
X135896080Y-59902620D01*
X135896080Y-60265385D01*
X135996255Y-60507227D01*
X136181353Y-60692326D01*
X136423196Y-60792500D01*
X137785580Y-60792500D01*
X137950080Y-60628000D01*
X137950080Y-59738120D01*
X136060580Y-59738120D01*
X135896080Y-59902620D01*
X132564140Y-59902620D01*
X132447900Y-59786380D01*
X130558400Y-59786380D01*
X130350400Y-59786380D01*
X128460900Y-59786380D01*
X128296400Y-59950880D01*
X125004887Y-59950880D01*
X125853852Y-59101915D01*
X128296400Y-59101915D01*
X128296400Y-59413880D01*
X128460900Y-59578380D01*
X130350400Y-59578380D01*
X130350400Y-58739300D01*
X130558400Y-58739300D01*
X130558400Y-59578380D01*
X132447900Y-59578380D01*
X132612400Y-59413880D01*
X132612400Y-59101915D01*
X132571368Y-59002855D01*
X135896080Y-59002855D01*
X135896080Y-59365620D01*
X136060580Y-59530120D01*
X137950080Y-59530120D01*
X137950080Y-58640240D01*
X137785580Y-58475740D01*
X136423196Y-58475740D01*
X136181353Y-58575914D01*
X135996255Y-58761013D01*
X135896080Y-59002855D01*
X132571368Y-59002855D01*
X132512225Y-58860073D01*
X132327127Y-58674974D01*
X132085284Y-58574800D01*
X130722900Y-58574800D01*
X130558400Y-58739300D01*
X130350400Y-58739300D01*
X130185900Y-58574800D01*
X128823516Y-58574800D01*
X128581673Y-58674974D01*
X128396575Y-58860073D01*
X128296400Y-59101915D01*
X125853852Y-59101915D01*
X128283510Y-56672257D01*
X128283510Y-57533540D01*
X128329392Y-57777380D01*
X128473501Y-58001332D01*
X128693386Y-58151573D01*
X128954400Y-58204430D01*
X130269747Y-58204430D01*
X130454400Y-58241160D01*
X130639053Y-58204430D01*
X131954400Y-58204430D01*
X132198240Y-58158548D01*
X132422192Y-58014439D01*
X132572433Y-57794554D01*
X132625290Y-57533540D01*
X132625290Y-56570640D01*
X132629385Y-56566545D01*
X132696494Y-56466109D01*
X132891246Y-56174642D01*
X132983200Y-55712360D01*
X132983200Y-55007835D01*
X133043233Y-54919974D01*
X133096090Y-54658960D01*
X133096090Y-53158960D01*
X133050208Y-52915120D01*
X132906099Y-52691168D01*
X132710325Y-52557402D01*
X132892992Y-52439859D01*
X133043233Y-52219974D01*
X133096090Y-51958960D01*
X133096090Y-50458960D01*
X133050208Y-50215120D01*
X132906099Y-49991168D01*
X132686214Y-49840927D01*
X132425200Y-49788070D01*
X131125200Y-49788070D01*
X130881360Y-49833952D01*
X130657408Y-49978061D01*
X130641762Y-50000960D01*
X130034139Y-50000960D01*
X129857294Y-49880127D01*
X129596280Y-49827270D01*
X129399077Y-49827270D01*
X128986280Y-49745160D01*
X128573483Y-49827270D01*
X128376280Y-49827270D01*
X128132440Y-49873152D01*
X127908488Y-50017261D01*
X127865839Y-50079680D01*
X127420920Y-50079680D01*
X127414619Y-50069888D01*
X127194734Y-49919647D01*
X126933720Y-49866790D01*
X125633720Y-49866790D01*
X125389880Y-49912672D01*
X125165928Y-50056781D01*
X125015687Y-50276666D01*
X124962830Y-50537680D01*
X124962830Y-52037680D01*
X125008712Y-52281520D01*
X125152821Y-52505472D01*
X125352540Y-52641934D01*
X125260993Y-52679855D01*
X125075894Y-52864953D01*
X124975720Y-53106796D01*
X124975720Y-53719180D01*
X125140220Y-53883680D01*
X126179720Y-53883680D01*
X126179720Y-53863680D01*
X126387720Y-53863680D01*
X126387720Y-53883680D01*
X127427220Y-53883680D01*
X127591720Y-53719180D01*
X127591720Y-53106796D01*
X127491546Y-52864953D01*
X127306447Y-52679855D01*
X127211804Y-52640652D01*
X127401512Y-52518579D01*
X127417158Y-52495680D01*
X128651760Y-52495680D01*
X129114042Y-52403726D01*
X129128152Y-52394298D01*
X129242080Y-52416960D01*
X130638000Y-52416960D01*
X130644301Y-52426752D01*
X130840075Y-52560518D01*
X130657408Y-52678061D01*
X130507167Y-52897946D01*
X130454310Y-53158960D01*
X130454310Y-54658960D01*
X130500192Y-54902800D01*
X130567200Y-55006934D01*
X130567200Y-55211990D01*
X129917300Y-55861890D01*
X129093877Y-55861890D01*
X129609136Y-55346631D01*
X129840120Y-55303168D01*
X130064072Y-55159059D01*
X130214313Y-54939174D01*
X130267170Y-54678160D01*
X130267170Y-53768160D01*
X130221288Y-53524320D01*
X130077179Y-53300368D01*
X129857294Y-53150127D01*
X129596280Y-53097270D01*
X128376280Y-53097270D01*
X128132440Y-53143152D01*
X127908488Y-53287261D01*
X127758247Y-53507146D01*
X127705390Y-53768160D01*
X127705390Y-54399323D01*
X127591720Y-54512993D01*
X127591720Y-54256180D01*
X127427220Y-54091680D01*
X126387720Y-54091680D01*
X126387720Y-55231180D01*
X126552220Y-55395680D01*
X126709033Y-55395680D01*
X124353010Y-57751703D01*
X124353818Y-56825520D01*
X123987994Y-55940159D01*
X123311204Y-55262187D01*
X122426482Y-54894818D01*
X121468520Y-54893982D01*
X120583159Y-55259806D01*
X119905187Y-55936596D01*
X119537818Y-56821318D01*
X119536982Y-57779280D01*
X119902806Y-58664641D01*
X120488103Y-59250960D01*
X117846807Y-59250960D01*
X113194124Y-54598276D01*
X112867105Y-54379769D01*
X112481360Y-54303039D01*
X112481355Y-54303040D01*
X111612739Y-54303040D01*
X111581429Y-54256180D01*
X124975720Y-54256180D01*
X124975720Y-54868564D01*
X125075894Y-55110407D01*
X125260993Y-55295505D01*
X125502835Y-55395680D01*
X126015220Y-55395680D01*
X126179720Y-55231180D01*
X126179720Y-54091680D01*
X125140220Y-54091680D01*
X124975720Y-54256180D01*
X111581429Y-54256180D01*
X111502902Y-54138657D01*
X110965008Y-53779248D01*
X110330519Y-53653040D01*
X109653801Y-53653040D01*
X109019312Y-53779248D01*
X108481418Y-54138657D01*
X108122009Y-54676551D01*
X107995801Y-55311040D01*
X106386840Y-55311040D01*
X106386840Y-52079540D01*
X108034160Y-52079540D01*
X108034160Y-52941924D01*
X108134334Y-53183767D01*
X108319433Y-53368865D01*
X108561275Y-53469040D01*
X109723660Y-53469040D01*
X109888160Y-53304540D01*
X109888160Y-51915040D01*
X110096160Y-51915040D01*
X110096160Y-53304540D01*
X110260660Y-53469040D01*
X111423045Y-53469040D01*
X111664887Y-53368865D01*
X111849986Y-53183767D01*
X111950160Y-52941924D01*
X111950160Y-52079540D01*
X111785660Y-51915040D01*
X110096160Y-51915040D01*
X109888160Y-51915040D01*
X108198660Y-51915040D01*
X108034160Y-52079540D01*
X106386840Y-52079540D01*
X106386840Y-50680156D01*
X108034160Y-50680156D01*
X108034160Y-51542540D01*
X108198660Y-51707040D01*
X109888160Y-51707040D01*
X109888160Y-50317540D01*
X110096160Y-50317540D01*
X110096160Y-51707040D01*
X111785660Y-51707040D01*
X111950160Y-51542540D01*
X111950160Y-50680156D01*
X111849986Y-50438313D01*
X111664887Y-50253215D01*
X111423045Y-50153040D01*
X110260660Y-50153040D01*
X110096160Y-50317540D01*
X109888160Y-50317540D01*
X109723660Y-50153040D01*
X108561275Y-50153040D01*
X108319433Y-50253215D01*
X108134334Y-50438313D01*
X108034160Y-50680156D01*
X106386840Y-50680156D01*
X106386840Y-46699700D01*
X121908680Y-46699700D01*
X121908680Y-47187085D01*
X122008855Y-47428927D01*
X122193953Y-47614026D01*
X122435796Y-47714200D01*
X123048180Y-47714200D01*
X123212680Y-47549700D01*
X123212680Y-46535200D01*
X122073180Y-46535200D01*
X121908680Y-46699700D01*
X106386840Y-46699700D01*
X106386840Y-44611820D01*
X121878200Y-44611820D01*
X121878200Y-45099205D01*
X121978375Y-45341047D01*
X122039828Y-45402500D01*
X122008855Y-45433473D01*
X121908680Y-45675315D01*
X121908680Y-46162700D01*
X122073180Y-46327200D01*
X123212680Y-46327200D01*
X123212680Y-45312700D01*
X123182200Y-45282220D01*
X123182200Y-44447320D01*
X122042700Y-44447320D01*
X121878200Y-44611820D01*
X106386840Y-44611820D01*
X106386840Y-43587435D01*
X121878200Y-43587435D01*
X121878200Y-44074820D01*
X122042700Y-44239320D01*
X123182200Y-44239320D01*
X123182200Y-43224820D01*
X123017700Y-43060320D01*
X122405316Y-43060320D01*
X122163473Y-43160494D01*
X121978375Y-43345593D01*
X121878200Y-43587435D01*
X106386840Y-43587435D01*
X106386840Y-41906400D01*
X135803090Y-41906400D01*
X135355907Y-42353583D01*
X135355907Y-42353583D01*
G37*
X135355907Y-42353583D02*
X135164496Y-42640048D01*
X135141122Y-42757559D01*
X135097282Y-42977958D01*
X135097282Y-43531750D01*
X134639848Y-43531351D01*
X134320041Y-43663492D01*
X134002820Y-43531770D01*
X133745926Y-43531546D01*
X133721900Y-43507520D01*
X132557400Y-43507520D01*
X132557400Y-43527520D01*
X132349400Y-43527520D01*
X132349400Y-43507520D01*
X131184900Y-43507520D01*
X131020400Y-43672020D01*
X131020400Y-43715520D01*
X130124290Y-43715520D01*
X130124290Y-43462520D01*
X130078408Y-43218680D01*
X129934299Y-42994728D01*
X129901965Y-42972635D01*
X131020400Y-42972635D01*
X131020400Y-43135020D01*
X131184900Y-43299520D01*
X132349400Y-43299520D01*
X132349400Y-42610020D01*
X132557400Y-42610020D01*
X132557400Y-43299520D01*
X133721900Y-43299520D01*
X133886400Y-43135020D01*
X133886400Y-42972635D01*
X133786225Y-42730793D01*
X133601127Y-42545694D01*
X133359284Y-42445520D01*
X132721900Y-42445520D01*
X132557400Y-42610020D01*
X132349400Y-42610020D01*
X132184900Y-42445520D01*
X131547516Y-42445520D01*
X131305673Y-42545694D01*
X131120575Y-42730793D01*
X131020400Y-42972635D01*
X129901965Y-42972635D01*
X129714414Y-42844487D01*
X129453400Y-42791630D01*
X128153400Y-42791630D01*
X127909560Y-42837512D01*
X127685608Y-42981621D01*
X127669962Y-43004520D01*
X125917000Y-43004520D01*
X125701278Y-43047430D01*
X125036200Y-43047430D01*
X124792360Y-43093312D01*
X124568408Y-43237421D01*
X124534898Y-43286465D01*
X124408927Y-43160494D01*
X124167084Y-43060320D01*
X123554700Y-43060320D01*
X123390200Y-43224820D01*
X123390200Y-44239320D01*
X123410200Y-44239320D01*
X123410200Y-44447320D01*
X123390200Y-44447320D01*
X123390200Y-45461820D01*
X123420680Y-45492300D01*
X123420680Y-46327200D01*
X123440680Y-46327200D01*
X123440680Y-46535200D01*
X123420680Y-46535200D01*
X123420680Y-47549700D01*
X123585180Y-47714200D01*
X123765232Y-47714200D01*
X123764871Y-48128392D01*
X123948390Y-48572543D01*
X124287910Y-48912655D01*
X124731740Y-49096950D01*
X125212312Y-49097369D01*
X125656463Y-48913850D01*
X125996575Y-48574330D01*
X125996784Y-48573826D01*
X126670865Y-47899745D01*
X126821689Y-47674021D01*
X126875802Y-47639200D01*
X127482510Y-47639200D01*
X127482510Y-47662520D01*
X127528392Y-47906360D01*
X127672501Y-48130312D01*
X127892386Y-48280553D01*
X128153400Y-48333410D01*
X129453400Y-48333410D01*
X129697240Y-48287528D01*
X129921192Y-48143419D01*
X130071433Y-47923534D01*
X130124290Y-47662520D01*
X130124290Y-46946446D01*
X130169216Y-46901520D01*
X131009940Y-46901520D01*
X131007510Y-46913520D01*
X131007510Y-47513520D01*
X131053392Y-47757360D01*
X131197501Y-47981312D01*
X131417386Y-48131553D01*
X131678400Y-48184410D01*
X133228400Y-48184410D01*
X133296904Y-48171520D01*
X133959024Y-48171520D01*
X135120926Y-49333422D01*
X135120779Y-49502100D01*
X135304298Y-49946251D01*
X135445121Y-50087320D01*
X135383035Y-50087320D01*
X135141193Y-50187495D01*
X134956094Y-50372593D01*
X134855920Y-50614436D01*
X134855920Y-51226820D01*
X135020420Y-51391320D01*
X136034920Y-51391320D01*
X136034920Y-51371320D01*
X136242920Y-51371320D01*
X136242920Y-51391320D01*
X136262920Y-51391320D01*
X136262920Y-51599320D01*
X136242920Y-51599320D01*
X136242920Y-51619320D01*
X136034920Y-51619320D01*
X136034920Y-51599320D01*
X135020420Y-51599320D01*
X134855920Y-51763820D01*
X134855920Y-52376204D01*
X134956094Y-52618047D01*
X135080409Y-52742362D01*
X135046128Y-52764421D01*
X134895887Y-52984306D01*
X134843030Y-53245320D01*
X134843030Y-54745320D01*
X134888912Y-54989160D01*
X135033021Y-55213112D01*
X135252906Y-55363353D01*
X135513920Y-55416210D01*
X136763920Y-55416210D01*
X137007760Y-55370328D01*
X137231712Y-55226219D01*
X137247358Y-55203320D01*
X137389640Y-55203320D01*
X137389640Y-55861890D01*
X136554080Y-55861890D01*
X136310240Y-55907772D01*
X136086288Y-56051881D01*
X135936047Y-56271766D01*
X135883190Y-56532780D01*
X135883190Y-57533540D01*
X135929072Y-57777380D01*
X136073181Y-58001332D01*
X136293066Y-58151573D01*
X136554080Y-58204430D01*
X139554080Y-58204430D01*
X139797920Y-58158548D01*
X139806086Y-58153294D01*
X140170280Y-58517488D01*
X140170280Y-58901942D01*
X140111905Y-58761013D01*
X139926807Y-58575914D01*
X139684964Y-58475740D01*
X138322580Y-58475740D01*
X138158080Y-58640240D01*
X138158080Y-59530120D01*
X138178080Y-59530120D01*
X138178080Y-59738120D01*
X138158080Y-59738120D01*
X138158080Y-60628000D01*
X138322580Y-60792500D01*
X139684964Y-60792500D01*
X139926807Y-60692326D01*
X140111905Y-60507227D01*
X140170280Y-60366298D01*
X140170280Y-60411355D01*
X140170279Y-60411360D01*
X140247009Y-60797105D01*
X140465516Y-61124124D01*
X140724812Y-61383420D01*
X140542320Y-61347120D01*
X137942320Y-61347120D01*
X137757667Y-61383850D01*
X136442320Y-61383850D01*
X136198480Y-61429732D01*
X135974528Y-61573841D01*
X135824287Y-61793726D01*
X135771430Y-62054740D01*
X135771430Y-63055500D01*
X135817312Y-63299340D01*
X135961421Y-63523292D01*
X136181306Y-63673533D01*
X136442320Y-63726390D01*
X137757667Y-63726390D01*
X137942320Y-63763120D01*
X139827912Y-63763120D01*
X140754971Y-64690179D01*
X140060445Y-65384705D01*
X139935820Y-65260080D01*
X138046320Y-65260080D01*
X138046320Y-66149960D01*
X138210820Y-66314460D01*
X139130690Y-66314460D01*
X138554000Y-66891150D01*
X138191480Y-66891150D01*
X137947640Y-66937032D01*
X137723688Y-67081141D01*
X137573765Y-67300560D01*
X137464480Y-67300560D01*
X137458179Y-67290768D01*
X137238294Y-67140527D01*
X136977280Y-67087670D01*
X135727280Y-67087670D01*
X135483440Y-67133552D01*
X135259488Y-67277661D01*
X135109247Y-67497546D01*
X135056390Y-67758560D01*
X135056390Y-69258560D01*
X135102272Y-69502400D01*
X135246381Y-69726352D01*
X135295425Y-69759862D01*
X135169454Y-69885833D01*
X135069280Y-70127676D01*
X135069280Y-70740060D01*
X135233780Y-70904560D01*
X136248280Y-70904560D01*
X136248280Y-70884560D01*
X136456280Y-70884560D01*
X136456280Y-70904560D01*
X136476280Y-70904560D01*
X136476280Y-71112560D01*
X136456280Y-71112560D01*
X136456280Y-71132560D01*
X136248280Y-71132560D01*
X136248280Y-71112560D01*
X135233780Y-71112560D01*
X135069280Y-71277060D01*
X135069280Y-71889444D01*
X135169454Y-72131287D01*
X135322471Y-72284303D01*
X135147848Y-72284151D01*
X134703697Y-72467670D01*
X134363585Y-72807190D01*
X134179290Y-73251020D01*
X134178871Y-73731592D01*
X134362390Y-74175743D01*
X134507833Y-74321440D01*
X124278720Y-74321440D01*
X124278720Y-73779380D01*
X124232838Y-73535540D01*
X124088729Y-73311588D01*
X123868844Y-73161347D01*
X123607830Y-73108490D01*
X121207530Y-73108490D01*
X121047920Y-73138523D01*
X121047920Y-71377060D01*
X124960480Y-71377060D01*
X124960480Y-71989444D01*
X125060654Y-72231287D01*
X125245753Y-72416385D01*
X125487595Y-72516560D01*
X125999980Y-72516560D01*
X126164480Y-72352060D01*
X126164480Y-71212560D01*
X126372480Y-71212560D01*
X126372480Y-72352060D01*
X126536980Y-72516560D01*
X127049365Y-72516560D01*
X127291207Y-72416385D01*
X127476306Y-72231287D01*
X127576480Y-71989444D01*
X127576480Y-71377060D01*
X127411980Y-71212560D01*
X126372480Y-71212560D01*
X126164480Y-71212560D01*
X125124980Y-71212560D01*
X124960480Y-71377060D01*
X121047920Y-71377060D01*
X121047920Y-70012560D01*
X120948354Y-69512010D01*
X120862120Y-69382952D01*
X120819928Y-69158720D01*
X120675819Y-68934768D01*
X120455934Y-68784527D01*
X120194920Y-68731670D01*
X119876211Y-68731670D01*
X119739920Y-68704560D01*
X119603629Y-68731670D01*
X119284920Y-68731670D01*
X119041080Y-68777552D01*
X118817128Y-68921661D01*
X118666887Y-69141546D01*
X118618123Y-69382348D01*
X118531486Y-69512010D01*
X118431920Y-70012560D01*
X118431920Y-74221440D01*
X117906805Y-74221440D01*
X117906800Y-74221439D01*
X117406251Y-74321005D01*
X117267981Y-74413394D01*
X116981904Y-74604544D01*
X116981902Y-74604547D01*
X112121972Y-79464476D01*
X112100968Y-79443436D01*
X111491803Y-79190489D01*
X110832210Y-79189913D01*
X110222605Y-79441797D01*
X109755796Y-79907792D01*
X109502849Y-80516957D01*
X109502273Y-81176550D01*
X109754157Y-81786155D01*
X110220152Y-82252964D01*
X110829317Y-82505911D01*
X111488910Y-82506487D01*
X111987823Y-82300340D01*
X120549530Y-82300340D01*
X120549530Y-83912784D01*
X120649704Y-84154627D01*
X120834803Y-84339725D01*
X121076645Y-84439900D01*
X122139180Y-84439900D01*
X122303680Y-84275400D01*
X122303680Y-82135840D01*
X122511680Y-82135840D01*
X122511680Y-84275400D01*
X122676180Y-84439900D01*
X123738715Y-84439900D01*
X123980557Y-84339725D01*
X124165656Y-84154627D01*
X124265830Y-83912784D01*
X124265830Y-82300340D01*
X124101330Y-82135840D01*
X122511680Y-82135840D01*
X122303680Y-82135840D01*
X120714030Y-82135840D01*
X120549530Y-82300340D01*
X111987823Y-82300340D01*
X112098515Y-82254603D01*
X112197090Y-82156200D01*
X112588040Y-82156200D01*
X113088590Y-82056634D01*
X113512936Y-81773096D01*
X115135135Y-80150896D01*
X120549530Y-80150896D01*
X120549530Y-81763340D01*
X120714030Y-81927840D01*
X122303680Y-81927840D01*
X122303680Y-79788280D01*
X122511680Y-79788280D01*
X122511680Y-81927840D01*
X124101330Y-81927840D01*
X124265830Y-81763340D01*
X124265830Y-80150896D01*
X124165656Y-79909053D01*
X123980557Y-79723955D01*
X123738715Y-79623780D01*
X122676180Y-79623780D01*
X122511680Y-79788280D01*
X122303680Y-79788280D01*
X122139180Y-79623780D01*
X121076645Y-79623780D01*
X120834803Y-79723955D01*
X120649704Y-79909053D01*
X120549530Y-80150896D01*
X115135135Y-80150896D01*
X118448591Y-76837440D01*
X120536640Y-76837440D01*
X120536640Y-77279500D01*
X120582522Y-77523340D01*
X120726631Y-77747292D01*
X120946516Y-77897533D01*
X121207530Y-77950390D01*
X123607830Y-77950390D01*
X123851670Y-77904508D01*
X124075622Y-77760399D01*
X124225863Y-77540514D01*
X124278720Y-77279500D01*
X124278720Y-76737440D01*
X128016312Y-76737440D01*
X128015187Y-76739086D01*
X127962330Y-77000100D01*
X127962330Y-82400140D01*
X128008212Y-82643980D01*
X128152321Y-82867932D01*
X128372206Y-83018173D01*
X128621280Y-83068612D01*
X128621280Y-83835037D01*
X128441220Y-84015097D01*
X128234783Y-84100395D01*
X127815429Y-84519018D01*
X127585470Y-84472450D01*
X125784610Y-84472450D01*
X125540770Y-84518332D01*
X125316818Y-84662441D01*
X125166577Y-84882326D01*
X125113720Y-85143340D01*
X125113720Y-87642700D01*
X125159602Y-87886540D01*
X125303711Y-88110492D01*
X125523596Y-88260733D01*
X125784610Y-88313590D01*
X127585470Y-88313590D01*
X127829310Y-88267708D01*
X128053262Y-88123599D01*
X128203503Y-87903714D01*
X128217907Y-87832583D01*
X128683173Y-87740036D01*
X129156182Y-87423982D01*
X129907681Y-86672483D01*
X129940977Y-86658725D01*
X130365554Y-86234888D01*
X130379954Y-86200209D01*
X130906242Y-85673921D01*
X131222296Y-85200912D01*
X131233510Y-85144536D01*
X131522490Y-84712047D01*
X131619471Y-84224491D01*
X131637017Y-84182236D01*
X131637057Y-84136080D01*
X131637280Y-84134960D01*
X131637280Y-83880960D01*
X131637541Y-83582316D01*
X131637280Y-83581684D01*
X131637280Y-83051578D01*
X131777740Y-83025148D01*
X132001692Y-82881039D01*
X132151933Y-82661154D01*
X132204790Y-82400140D01*
X132204790Y-77000100D01*
X132158908Y-76756260D01*
X132146798Y-76737440D01*
X136664710Y-76737440D01*
X137964850Y-78037580D01*
X137964850Y-78492120D01*
X137335740Y-78492120D01*
X136873458Y-78584074D01*
X136527788Y-78815043D01*
X136481555Y-78845935D01*
X133129335Y-82198155D01*
X132867474Y-82590058D01*
X132775520Y-83052340D01*
X132775520Y-88334680D01*
X132552020Y-88334680D01*
X132387520Y-88499180D01*
X132387520Y-91188680D01*
X132407520Y-91188680D01*
X132407520Y-91396680D01*
X132387520Y-91396680D01*
X132387520Y-94086180D01*
X132552020Y-94250680D01*
X132964405Y-94250680D01*
X133130381Y-94181930D01*
X133172506Y-94210713D01*
X133433520Y-94263570D01*
X134533520Y-94263570D01*
X134777360Y-94217688D01*
X134834390Y-94180990D01*
X135002635Y-94250680D01*
X135415020Y-94250680D01*
X135579520Y-94086180D01*
X135579520Y-91396680D01*
X135559520Y-91396680D01*
X135559520Y-91188680D01*
X135579520Y-91188680D01*
X135579520Y-88499180D01*
X135415020Y-88334680D01*
X135191520Y-88334680D01*
X135191520Y-86460015D01*
X135670004Y-86658699D01*
X135770735Y-86658787D01*
X136175520Y-87063572D01*
X136175520Y-88334680D01*
X135952020Y-88334680D01*
X135787520Y-88499180D01*
X135787520Y-91188680D01*
X135807520Y-91188680D01*
X135807520Y-91396680D01*
X135787520Y-91396680D01*
X135787520Y-94086180D01*
X135952020Y-94250680D01*
X136364405Y-94250680D01*
X136530381Y-94181930D01*
X136572506Y-94210713D01*
X136833520Y-94263570D01*
X137933520Y-94263570D01*
X138177360Y-94217688D01*
X138231617Y-94182775D01*
X138272506Y-94210713D01*
X138533520Y-94263570D01*
X139633520Y-94263570D01*
X139877360Y-94217688D01*
X140101312Y-94073579D01*
X140251553Y-93853694D01*
X140304410Y-93592680D01*
X140304410Y-88992680D01*
X140291520Y-88924176D01*
X140291520Y-86671980D01*
X140373154Y-86590488D01*
X140603217Y-86036436D01*
X140603741Y-85436516D01*
X140374645Y-84882063D01*
X140351813Y-84859191D01*
X140373154Y-84837888D01*
X140603217Y-84283836D01*
X140603741Y-83683916D01*
X140374645Y-83129463D01*
X140316314Y-83071030D01*
X141536420Y-83071030D01*
X141780260Y-83025148D01*
X142004212Y-82881039D01*
X142154453Y-82661154D01*
X142207310Y-82400140D01*
X142207310Y-77000100D01*
X142161428Y-76756260D01*
X142017319Y-76532308D01*
X141797434Y-76382067D01*
X141751280Y-76372721D01*
X141751280Y-75093254D01*
X141776680Y-74965560D01*
X141776680Y-73772241D01*
X141776889Y-73532528D01*
X141776680Y-73532022D01*
X141776680Y-72552560D01*
X141776889Y-72313328D01*
X141593370Y-71869177D01*
X141351575Y-71626960D01*
X142406701Y-71626960D01*
X142353815Y-71706109D01*
X142237990Y-72288400D01*
X142353815Y-72870691D01*
X142683656Y-73364334D01*
X142974097Y-73558400D01*
X142683656Y-73752466D01*
X142353815Y-74246109D01*
X142237990Y-74828400D01*
X142353815Y-75410691D01*
X142683656Y-75904334D01*
X142974097Y-76098400D01*
X142683656Y-76292466D01*
X142353815Y-76786109D01*
X142237990Y-77368400D01*
X142353815Y-77950691D01*
X142683656Y-78444334D01*
X142974208Y-78638474D01*
X142907547Y-78668390D01*
X142500143Y-79100251D01*
X142306317Y-79568206D01*
X142436291Y-79804400D01*
X143685400Y-79804400D01*
X143685400Y-79784400D01*
X143893400Y-79784400D01*
X143893400Y-79804400D01*
X143913400Y-79804400D01*
X143913400Y-80012400D01*
X143893400Y-80012400D01*
X143893400Y-80032400D01*
X143685400Y-80032400D01*
X143685400Y-80012400D01*
X142436291Y-80012400D01*
X142306317Y-80248594D01*
X142500143Y-80716549D01*
X142907547Y-81148410D01*
X142974208Y-81178326D01*
X142683656Y-81372466D01*
X142353815Y-81866109D01*
X142237990Y-82448400D01*
X142353815Y-83030691D01*
X142683656Y-83524334D01*
X142974097Y-83718400D01*
X142683656Y-83912466D01*
X142353815Y-84406109D01*
X142237990Y-84988400D01*
X142353815Y-85570691D01*
X142683656Y-86064334D01*
X142974097Y-86258400D01*
X142683656Y-86452466D01*
X142353815Y-86946109D01*
X142237990Y-87528400D01*
X142353815Y-88110691D01*
X142683656Y-88604334D01*
X142974097Y-88798400D01*
X142683656Y-88992466D01*
X142353815Y-89486109D01*
X142237990Y-90068400D01*
X142353815Y-90650691D01*
X142683656Y-91144334D01*
X142974097Y-91338400D01*
X142683656Y-91532466D01*
X142353815Y-92026109D01*
X142237990Y-92608400D01*
X142353815Y-93190691D01*
X142683656Y-93684334D01*
X142974097Y-93878400D01*
X142683656Y-94072466D01*
X142353815Y-94566109D01*
X142237990Y-95148400D01*
X142353815Y-95730691D01*
X142683656Y-96224334D01*
X142974208Y-96418474D01*
X142907547Y-96448390D01*
X142500143Y-96880251D01*
X142306317Y-97348206D01*
X142436291Y-97584400D01*
X143685400Y-97584400D01*
X143685400Y-97564400D01*
X143893400Y-97564400D01*
X143893400Y-97584400D01*
X143913400Y-97584400D01*
X143913400Y-97792400D01*
X143893400Y-97792400D01*
X143893400Y-99041949D01*
X144129595Y-99171490D01*
X144671253Y-98928410D01*
X145058796Y-98517603D01*
X145223656Y-98764334D01*
X145717299Y-99094175D01*
X146299590Y-99210000D01*
X146359210Y-99210000D01*
X146941501Y-99094175D01*
X147435144Y-98764334D01*
X147764985Y-98270691D01*
X147880810Y-97688400D01*
X147764985Y-97106109D01*
X147435144Y-96612466D01*
X147144703Y-96418400D01*
X147435144Y-96224334D01*
X147764985Y-95730691D01*
X147880810Y-95148400D01*
X147764985Y-94566109D01*
X147435144Y-94072466D01*
X147144703Y-93878400D01*
X147435144Y-93684334D01*
X147764985Y-93190691D01*
X147880810Y-92608400D01*
X147764985Y-92026109D01*
X147435144Y-91532466D01*
X147144592Y-91338326D01*
X147211253Y-91308410D01*
X147618657Y-90876549D01*
X147812483Y-90408594D01*
X147682509Y-90172400D01*
X146433400Y-90172400D01*
X146433400Y-90192400D01*
X146225400Y-90192400D01*
X146225400Y-90172400D01*
X146205400Y-90172400D01*
X146205400Y-89964400D01*
X146225400Y-89964400D01*
X146225400Y-89944400D01*
X146433400Y-89944400D01*
X146433400Y-89964400D01*
X147682509Y-89964400D01*
X147812483Y-89728206D01*
X147618657Y-89260251D01*
X147211253Y-88828390D01*
X147144592Y-88798474D01*
X147435144Y-88604334D01*
X147764985Y-88110691D01*
X147880810Y-87528400D01*
X147764985Y-86946109D01*
X147435144Y-86452466D01*
X147144592Y-86258326D01*
X147211253Y-86228410D01*
X147618657Y-85796549D01*
X147812483Y-85328594D01*
X147682509Y-85092400D01*
X146433400Y-85092400D01*
X146433400Y-85112400D01*
X146225400Y-85112400D01*
X146225400Y-85092400D01*
X146205400Y-85092400D01*
X146205400Y-84884400D01*
X146225400Y-84884400D01*
X146225400Y-84864400D01*
X146433400Y-84864400D01*
X146433400Y-84884400D01*
X147682509Y-84884400D01*
X147812483Y-84648206D01*
X147618657Y-84180251D01*
X147211253Y-83748390D01*
X147144592Y-83718474D01*
X147435144Y-83524334D01*
X147764985Y-83030691D01*
X147880810Y-82448400D01*
X147764985Y-81866109D01*
X147435144Y-81372466D01*
X147144703Y-81178400D01*
X147435144Y-80984334D01*
X147764985Y-80490691D01*
X147880810Y-79908400D01*
X147764985Y-79326109D01*
X147435144Y-78832466D01*
X147144703Y-78638400D01*
X147435144Y-78444334D01*
X147764985Y-77950691D01*
X147880810Y-77368400D01*
X147764985Y-76786109D01*
X147435144Y-76292466D01*
X147144703Y-76098400D01*
X147435144Y-75904334D01*
X147764985Y-75410691D01*
X147880810Y-74828400D01*
X147764985Y-74246109D01*
X147435144Y-73752466D01*
X147144592Y-73558326D01*
X147211253Y-73528410D01*
X147618657Y-73096549D01*
X147812483Y-72628594D01*
X147682509Y-72392400D01*
X146433400Y-72392400D01*
X146433400Y-72412400D01*
X146225400Y-72412400D01*
X146225400Y-72392400D01*
X146205400Y-72392400D01*
X146205400Y-72184400D01*
X146225400Y-72184400D01*
X146225400Y-72164400D01*
X146433400Y-72164400D01*
X146433400Y-72184400D01*
X147682509Y-72184400D01*
X147812483Y-71948206D01*
X147618657Y-71480251D01*
X147211253Y-71048390D01*
X147144592Y-71018474D01*
X147435144Y-70824334D01*
X147764985Y-70330691D01*
X147880810Y-69748400D01*
X147764985Y-69166109D01*
X147435144Y-68672466D01*
X147144703Y-68478400D01*
X147435144Y-68284334D01*
X147764985Y-67790691D01*
X147880810Y-67208400D01*
X147764985Y-66626109D01*
X147435144Y-66132466D01*
X147144592Y-65938326D01*
X147211253Y-65908410D01*
X147618657Y-65476549D01*
X147812483Y-65008594D01*
X147682509Y-64772400D01*
X146433400Y-64772400D01*
X146433400Y-64792400D01*
X146225400Y-64792400D01*
X146225400Y-64772400D01*
X146205400Y-64772400D01*
X146205400Y-64564400D01*
X146225400Y-64564400D01*
X146225400Y-64544400D01*
X146433400Y-64544400D01*
X146433400Y-64564400D01*
X147682509Y-64564400D01*
X147812483Y-64328206D01*
X147618657Y-63860251D01*
X147211253Y-63428390D01*
X147144592Y-63398474D01*
X147435144Y-63204334D01*
X147764985Y-62710691D01*
X147880810Y-62128400D01*
X147764985Y-61546109D01*
X147435144Y-61052466D01*
X147144703Y-60858400D01*
X147435144Y-60664334D01*
X147764985Y-60170691D01*
X147880810Y-59588400D01*
X147824696Y-59306295D01*
X148446294Y-58684697D01*
X148446294Y-105805444D01*
X145856975Y-105807861D01*
X146462281Y-105557754D01*
X147140253Y-104880964D01*
X147507622Y-103996242D01*
X147508458Y-103038280D01*
X147142634Y-102152919D01*
X146465844Y-101474947D01*
X145581122Y-101107578D01*
X144623160Y-101106742D01*
X143737799Y-101472566D01*
X143059827Y-102149356D01*
X142692458Y-103034078D01*
X142691622Y-103992040D01*
X143057446Y-104877401D01*
X143734236Y-105555373D01*
X144345693Y-105809273D01*
X125083710Y-105827258D01*
X125083710Y-104367860D01*
X124919210Y-104203360D01*
X123329560Y-104203360D01*
X123329560Y-104223360D01*
X123121560Y-104223360D01*
X123121560Y-104203360D01*
X121531910Y-104203360D01*
X121367410Y-104367860D01*
X121367410Y-105830727D01*
X110267837Y-105841091D01*
X110598122Y-105589124D01*
X110923791Y-105028686D01*
X110970293Y-104851857D01*
X110842075Y-104594280D01*
X109156200Y-104594280D01*
X109156200Y-104614280D01*
X108948200Y-104614280D01*
X108948200Y-104594280D01*
X107262325Y-104594280D01*
X107134107Y-104851857D01*
X107180609Y-105028686D01*
X107506278Y-105589124D01*
X107839535Y-105843359D01*
X106386840Y-105844715D01*
X106386840Y-104576460D01*
X113646920Y-104576460D01*
X113646920Y-105188844D01*
X113747094Y-105430687D01*
X113932193Y-105615785D01*
X114174035Y-105715960D01*
X114661420Y-105715960D01*
X114825920Y-105551460D01*
X114825920Y-104411960D01*
X115033920Y-104411960D01*
X115033920Y-105551460D01*
X115198420Y-105715960D01*
X115685805Y-105715960D01*
X115927647Y-105615785D01*
X116112746Y-105430687D01*
X116212920Y-105188844D01*
X116212920Y-104576460D01*
X116048420Y-104411960D01*
X115033920Y-104411960D01*
X114825920Y-104411960D01*
X113811420Y-104411960D01*
X113646920Y-104576460D01*
X106386840Y-104576460D01*
X106386840Y-104128703D01*
X107134107Y-104128703D01*
X107262325Y-104386280D01*
X108948200Y-104386280D01*
X108948200Y-102832280D01*
X109156200Y-102832280D01*
X109156200Y-104386280D01*
X110842075Y-104386280D01*
X110970293Y-104128703D01*
X110923791Y-103951874D01*
X110598122Y-103391436D01*
X110082773Y-102998287D01*
X109456200Y-102832280D01*
X109156200Y-102832280D01*
X108948200Y-102832280D01*
X108648200Y-102832280D01*
X108021627Y-102998287D01*
X107506278Y-103391436D01*
X107180609Y-103951874D01*
X107134107Y-104128703D01*
X106386840Y-104128703D01*
X106386840Y-100990280D01*
X106975841Y-100990280D01*
X107102049Y-101624769D01*
X107461458Y-102162663D01*
X107999352Y-102522072D01*
X108633841Y-102648280D01*
X109310559Y-102648280D01*
X109945048Y-102522072D01*
X110482942Y-102162663D01*
X110842351Y-101624769D01*
X110968559Y-100990280D01*
X110842351Y-100355791D01*
X110482942Y-99817897D01*
X109945048Y-99458488D01*
X109310559Y-99332280D01*
X108633841Y-99332280D01*
X107999352Y-99458488D01*
X107461458Y-99817897D01*
X107102049Y-100355791D01*
X106975841Y-100990280D01*
X106386840Y-100990280D01*
X106386840Y-97490280D01*
X107045841Y-97490280D01*
X107172049Y-98124769D01*
X107531458Y-98662663D01*
X108069352Y-99022072D01*
X108703841Y-99148280D01*
X109380559Y-99148280D01*
X110015048Y-99022072D01*
X110552942Y-98662663D01*
X110835636Y-98239580D01*
X113421920Y-98239580D01*
X113421920Y-101807960D01*
X113536710Y-102385047D01*
X113634030Y-102530697D01*
X113634030Y-102557960D01*
X113679912Y-102801800D01*
X113824021Y-103025752D01*
X113873065Y-103059262D01*
X113747094Y-103185233D01*
X113646920Y-103427076D01*
X113646920Y-104039460D01*
X113811420Y-104203960D01*
X114825920Y-104203960D01*
X114825920Y-104183960D01*
X115033920Y-104183960D01*
X115033920Y-104203960D01*
X116048420Y-104203960D01*
X116212920Y-104039460D01*
X116212920Y-103427076D01*
X116112746Y-103185233D01*
X115988431Y-103060918D01*
X116022712Y-103038859D01*
X116172953Y-102818974D01*
X116225810Y-102557960D01*
X116225810Y-102530697D01*
X116323130Y-102385047D01*
X116406041Y-101968226D01*
X121367410Y-101968226D01*
X121367410Y-103830860D01*
X121531910Y-103995360D01*
X123121560Y-103995360D01*
X123121560Y-101605610D01*
X123329560Y-101605610D01*
X123329560Y-103995360D01*
X124919210Y-103995360D01*
X125083710Y-103830860D01*
X125083710Y-101968226D01*
X124983536Y-101726383D01*
X124798437Y-101541285D01*
X124556595Y-101441110D01*
X123494060Y-101441110D01*
X123329560Y-101605610D01*
X123121560Y-101605610D01*
X122957060Y-101441110D01*
X121894525Y-101441110D01*
X121652683Y-101541285D01*
X121467584Y-101726383D01*
X121367410Y-101968226D01*
X116406041Y-101968226D01*
X116437920Y-101807960D01*
X116437920Y-100711180D01*
X129625520Y-100711180D01*
X129625520Y-105273564D01*
X129725694Y-105515407D01*
X129910793Y-105700505D01*
X130152635Y-105800680D01*
X135415020Y-105800680D01*
X135579520Y-105636180D01*
X135579520Y-100546680D01*
X135787520Y-100546680D01*
X135787520Y-105636180D01*
X135952020Y-105800680D01*
X141214405Y-105800680D01*
X141456247Y-105700505D01*
X141641346Y-105515407D01*
X141741520Y-105273564D01*
X141741520Y-100711180D01*
X141577020Y-100546680D01*
X135787520Y-100546680D01*
X135579520Y-100546680D01*
X129790020Y-100546680D01*
X129625520Y-100711180D01*
X116437920Y-100711180D01*
X116437920Y-99829167D01*
X116585543Y-99613114D01*
X116586089Y-99610420D01*
X121221500Y-99610420D01*
X121798587Y-99495630D01*
X122287817Y-99168737D01*
X122687054Y-98769500D01*
X124425710Y-98769500D01*
X124669550Y-98723618D01*
X124893502Y-98579509D01*
X125043743Y-98359624D01*
X125096600Y-98098610D01*
X125096600Y-97606360D01*
X125785880Y-97606360D01*
X125811280Y-97601308D01*
X125836680Y-97606360D01*
X127614509Y-97606360D01*
X127913324Y-97606621D01*
X128467777Y-97377525D01*
X128892354Y-96953688D01*
X129122417Y-96399636D01*
X129122941Y-95799716D01*
X129045294Y-95611796D01*
X129625520Y-95611796D01*
X129625520Y-100174180D01*
X129790020Y-100338680D01*
X135579520Y-100338680D01*
X135579520Y-95249180D01*
X135787520Y-95249180D01*
X135787520Y-100338680D01*
X141577020Y-100338680D01*
X141741520Y-100174180D01*
X141741520Y-98028594D01*
X142306317Y-98028594D01*
X142500143Y-98496549D01*
X142907547Y-98928410D01*
X143449205Y-99171490D01*
X143685400Y-99041949D01*
X143685400Y-97792400D01*
X142436291Y-97792400D01*
X142306317Y-98028594D01*
X141741520Y-98028594D01*
X141741520Y-95611796D01*
X141641346Y-95369953D01*
X141456247Y-95184855D01*
X141214405Y-95084680D01*
X135952020Y-95084680D01*
X135787520Y-95249180D01*
X135579520Y-95249180D01*
X135415020Y-95084680D01*
X130152635Y-95084680D01*
X129910793Y-95184855D01*
X129725694Y-95369953D01*
X129625520Y-95611796D01*
X129045294Y-95611796D01*
X128893845Y-95245263D01*
X128470008Y-94820686D01*
X127915956Y-94590623D01*
X127316036Y-94590099D01*
X127315404Y-94590360D01*
X126173092Y-94590360D01*
X126112556Y-94565223D01*
X125512636Y-94564699D01*
X125450532Y-94590360D01*
X125096600Y-94590360D01*
X125096600Y-94098110D01*
X125050718Y-93854270D01*
X124906609Y-93630318D01*
X124686724Y-93480077D01*
X124425710Y-93427220D01*
X122025410Y-93427220D01*
X121781570Y-93473102D01*
X121557618Y-93617211D01*
X121407377Y-93837096D01*
X121354520Y-94098110D01*
X121354520Y-95836766D01*
X120596866Y-96594420D01*
X116583200Y-96594420D01*
X116448409Y-96384948D01*
X116228524Y-96234707D01*
X115967510Y-96181850D01*
X114166650Y-96181850D01*
X113922810Y-96227732D01*
X113698858Y-96371841D01*
X113548617Y-96591726D01*
X113495760Y-96852740D01*
X113495760Y-97868362D01*
X113421920Y-98239580D01*
X110835636Y-98239580D01*
X110912351Y-98124769D01*
X111038559Y-97490280D01*
X110912351Y-96855791D01*
X110552942Y-96317897D01*
X110015048Y-95958488D01*
X109380559Y-95832280D01*
X108703841Y-95832280D01*
X108069352Y-95958488D01*
X107531458Y-96317897D01*
X107172049Y-96855791D01*
X107045841Y-97490280D01*
X106386840Y-97490280D01*
X106386840Y-85185600D01*
X106467710Y-85185600D01*
X106467710Y-90785600D01*
X106513592Y-91029440D01*
X106657701Y-91253392D01*
X106877586Y-91403633D01*
X107138600Y-91456490D01*
X107544200Y-91456490D01*
X107544200Y-92358528D01*
X107508360Y-92365272D01*
X107284408Y-92509381D01*
X107134167Y-92729266D01*
X107081310Y-92990280D01*
X107081310Y-94990280D01*
X107127192Y-95234120D01*
X107271301Y-95458072D01*
X107491186Y-95608313D01*
X107752200Y-95661170D01*
X110352200Y-95661170D01*
X110596040Y-95615288D01*
X110819992Y-95471179D01*
X110970233Y-95251294D01*
X111023090Y-94990280D01*
X111023090Y-92990280D01*
X110997594Y-92854780D01*
X113495760Y-92854780D01*
X113495760Y-95354140D01*
X113541642Y-95597980D01*
X113685751Y-95821932D01*
X113905636Y-95972173D01*
X114166650Y-96025030D01*
X115967510Y-96025030D01*
X116211350Y-95979148D01*
X116435302Y-95835039D01*
X116585543Y-95615154D01*
X116638400Y-95354140D01*
X116638400Y-92854780D01*
X116592518Y-92610940D01*
X116575080Y-92583841D01*
X116575080Y-91456490D01*
X116838600Y-91456490D01*
X117082440Y-91410608D01*
X117306392Y-91266499D01*
X117456633Y-91046614D01*
X117461455Y-91022800D01*
X119262662Y-91022800D01*
X119628486Y-91908161D01*
X120305276Y-92586133D01*
X121189998Y-92953502D01*
X122147960Y-92954338D01*
X123033321Y-92588514D01*
X123711293Y-91911724D01*
X124078662Y-91027002D01*
X124078982Y-90659480D01*
X125126610Y-90659480D01*
X125126610Y-91771544D01*
X125226784Y-92013387D01*
X125411883Y-92198485D01*
X125653725Y-92298660D01*
X126416540Y-92298660D01*
X126581040Y-92134160D01*
X126581040Y-90494980D01*
X126789040Y-90494980D01*
X126789040Y-92134160D01*
X126953540Y-92298660D01*
X127716355Y-92298660D01*
X127958197Y-92198485D01*
X128143296Y-92013387D01*
X128243470Y-91771544D01*
X128243470Y-91561180D01*
X131075520Y-91561180D01*
X131075520Y-93723564D01*
X131175694Y-93965407D01*
X131360793Y-94150505D01*
X131602635Y-94250680D01*
X132015020Y-94250680D01*
X132179520Y-94086180D01*
X132179520Y-91396680D01*
X131240020Y-91396680D01*
X131075520Y-91561180D01*
X128243470Y-91561180D01*
X128243470Y-90659480D01*
X128078970Y-90494980D01*
X126789040Y-90494980D01*
X126581040Y-90494980D01*
X125291110Y-90494980D01*
X125126610Y-90659480D01*
X124078982Y-90659480D01*
X124079498Y-90069040D01*
X123713674Y-89183679D01*
X123540714Y-89010416D01*
X125126610Y-89010416D01*
X125126610Y-90122480D01*
X125291110Y-90286980D01*
X126581040Y-90286980D01*
X126581040Y-88647800D01*
X126789040Y-88647800D01*
X126789040Y-90286980D01*
X128078970Y-90286980D01*
X128243470Y-90122480D01*
X128243470Y-89010416D01*
X128181910Y-88861796D01*
X131075520Y-88861796D01*
X131075520Y-91024180D01*
X131240020Y-91188680D01*
X132179520Y-91188680D01*
X132179520Y-88499180D01*
X132015020Y-88334680D01*
X131602635Y-88334680D01*
X131360793Y-88434855D01*
X131175694Y-88619953D01*
X131075520Y-88861796D01*
X128181910Y-88861796D01*
X128143296Y-88768573D01*
X127958197Y-88583475D01*
X127716355Y-88483300D01*
X126953540Y-88483300D01*
X126789040Y-88647800D01*
X126581040Y-88647800D01*
X126416540Y-88483300D01*
X125653725Y-88483300D01*
X125411883Y-88583475D01*
X125226784Y-88768573D01*
X125126610Y-89010416D01*
X123540714Y-89010416D01*
X123036884Y-88505707D01*
X122152162Y-88138338D01*
X121194200Y-88137502D01*
X120308839Y-88503326D01*
X119630867Y-89180116D01*
X119263498Y-90064838D01*
X119262662Y-91022800D01*
X117461455Y-91022800D01*
X117509490Y-90785600D01*
X117509490Y-85185600D01*
X117463608Y-84941760D01*
X117319499Y-84717808D01*
X117099614Y-84567567D01*
X116838600Y-84514710D01*
X114538600Y-84514710D01*
X114294760Y-84560592D01*
X114070808Y-84704701D01*
X113920567Y-84924586D01*
X113867710Y-85185600D01*
X113867710Y-87739931D01*
X113673870Y-88030033D01*
X113559080Y-88607120D01*
X113559080Y-92578453D01*
X113548617Y-92593766D01*
X113495760Y-92854780D01*
X110997594Y-92854780D01*
X110977208Y-92746440D01*
X110833099Y-92522488D01*
X110613214Y-92372247D01*
X110560200Y-92361511D01*
X110560200Y-88749200D01*
X110445410Y-88172113D01*
X110118517Y-87682883D01*
X110109490Y-87673856D01*
X110109490Y-85185600D01*
X110063608Y-84941760D01*
X109919499Y-84717808D01*
X109699614Y-84567567D01*
X109438600Y-84514710D01*
X107138600Y-84514710D01*
X106894760Y-84560592D01*
X106670808Y-84704701D01*
X106520567Y-84924586D01*
X106467710Y-85185600D01*
X106386840Y-85185600D01*
X106386840Y-65768106D01*
X109360830Y-65768106D01*
X109360830Y-66030540D01*
X109525330Y-66195040D01*
X110314880Y-66195040D01*
X110314880Y-65405490D01*
X110522880Y-65405490D01*
X110522880Y-66195040D01*
X111312430Y-66195040D01*
X111476930Y-66030540D01*
X111476930Y-65768106D01*
X111376756Y-65526263D01*
X111191657Y-65341165D01*
X110949815Y-65240990D01*
X110687380Y-65240990D01*
X110522880Y-65405490D01*
X110314880Y-65405490D01*
X110150380Y-65240990D01*
X109887945Y-65240990D01*
X109646103Y-65341165D01*
X109461004Y-65526263D01*
X109360830Y-65768106D01*
X106386840Y-65768106D01*
X106386840Y-62834400D01*
X108031361Y-62834400D01*
X108157569Y-63468889D01*
X108516978Y-64006783D01*
X109054872Y-64366192D01*
X109689361Y-64492400D01*
X110366079Y-64492400D01*
X111000568Y-64366192D01*
X111175087Y-64249583D01*
X111671872Y-64746368D01*
X111982669Y-64954037D01*
X112349280Y-65026960D01*
X123890464Y-65026960D01*
X124902539Y-66039035D01*
X124789550Y-65992118D01*
X124719076Y-65945029D01*
X124636674Y-65928638D01*
X124528620Y-65883770D01*
X124410591Y-65883667D01*
X124256795Y-65853075D01*
X124129076Y-65878480D01*
X120665555Y-65878480D01*
X120577694Y-65818447D01*
X120316680Y-65765590D01*
X118816680Y-65765590D01*
X118572840Y-65811472D01*
X118348888Y-65955581D01*
X118215122Y-66151355D01*
X118097579Y-65968688D01*
X117877694Y-65818447D01*
X117616680Y-65765590D01*
X116116680Y-65765590D01*
X115872840Y-65811472D01*
X115671485Y-65941040D01*
X112417860Y-65941040D01*
X111917310Y-66040606D01*
X111492964Y-66324144D01*
X111389051Y-66479661D01*
X111312430Y-66403040D01*
X110522880Y-66403040D01*
X110522880Y-66423040D01*
X110314880Y-66423040D01*
X110314880Y-66403040D01*
X109525330Y-66403040D01*
X109360830Y-66567540D01*
X109360830Y-66829974D01*
X109461004Y-67071817D01*
X109595501Y-67206313D01*
X109493984Y-67274144D01*
X109210446Y-67698490D01*
X109110880Y-68199040D01*
X109110880Y-72506840D01*
X109210446Y-73007390D01*
X109493984Y-73431736D01*
X109502392Y-73440144D01*
X109502273Y-73576870D01*
X109754157Y-74186475D01*
X110220152Y-74653284D01*
X110829317Y-74906231D01*
X111488910Y-74906807D01*
X112098515Y-74654923D01*
X112565324Y-74188928D01*
X112818271Y-73579763D01*
X112818847Y-72920170D01*
X112566963Y-72310565D01*
X112100968Y-71843756D01*
X111726880Y-71688421D01*
X111726880Y-71320560D01*
X116469920Y-71320560D01*
X116606211Y-71293450D01*
X116924920Y-71293450D01*
X117168760Y-71247568D01*
X117392712Y-71103459D01*
X117542953Y-70883574D01*
X117591717Y-70642772D01*
X117678354Y-70513110D01*
X117777920Y-70012560D01*
X117678354Y-69512010D01*
X117592120Y-69382952D01*
X117549928Y-69158720D01*
X117405819Y-68934768D01*
X117185934Y-68784527D01*
X116924920Y-68731670D01*
X116606211Y-68731670D01*
X116469920Y-68704560D01*
X111726880Y-68704560D01*
X111726880Y-68330233D01*
X111917310Y-68457474D01*
X112417860Y-68557040D01*
X116704120Y-68557040D01*
X117204670Y-68457474D01*
X117279656Y-68407370D01*
X117616680Y-68407370D01*
X117860520Y-68361488D01*
X118084472Y-68217379D01*
X118218238Y-68021605D01*
X118335781Y-68204272D01*
X118555666Y-68354513D01*
X118816680Y-68407370D01*
X120316680Y-68407370D01*
X120560520Y-68361488D01*
X120664654Y-68294480D01*
X122891212Y-68294480D01*
X122902940Y-68299350D01*
X123383512Y-68299769D01*
X123396312Y-68294480D01*
X124034212Y-68294480D01*
X124045940Y-68299350D01*
X124526512Y-68299769D01*
X124947590Y-68125784D01*
X124947590Y-69158560D01*
X124993472Y-69402400D01*
X125137581Y-69626352D01*
X125337300Y-69762814D01*
X125245753Y-69800735D01*
X125060654Y-69985833D01*
X124960480Y-70227676D01*
X124960480Y-70840060D01*
X125124980Y-71004560D01*
X126164480Y-71004560D01*
X126164480Y-70984560D01*
X126372480Y-70984560D01*
X126372480Y-71004560D01*
X127411980Y-71004560D01*
X127553311Y-70863229D01*
X127751110Y-71061028D01*
X127751110Y-71879040D01*
X127796992Y-72122880D01*
X127941101Y-72346832D01*
X128160986Y-72497073D01*
X128422000Y-72549930D01*
X129642000Y-72549930D01*
X129885840Y-72504048D01*
X130109792Y-72359939D01*
X130260033Y-72140054D01*
X130261704Y-72131800D01*
X130504224Y-72131800D01*
X130639221Y-72341592D01*
X130859106Y-72491833D01*
X131120120Y-72544690D01*
X132420120Y-72544690D01*
X132663960Y-72498808D01*
X132887912Y-72354699D01*
X133038153Y-72134814D01*
X133091010Y-71873800D01*
X133091010Y-70373800D01*
X133045128Y-70129960D01*
X132901019Y-69906008D01*
X132705245Y-69772242D01*
X132887912Y-69654699D01*
X133038153Y-69434814D01*
X133091010Y-69173800D01*
X133091010Y-67673800D01*
X133045128Y-67429960D01*
X132901019Y-67206008D01*
X132681134Y-67055767D01*
X132420120Y-67002910D01*
X131804046Y-67002910D01*
X131113056Y-66311920D01*
X131973524Y-66311920D01*
X132215367Y-66211746D01*
X132400465Y-66026647D01*
X132500640Y-65784805D01*
X132500640Y-65472840D01*
X132452380Y-65424580D01*
X135784320Y-65424580D01*
X135784320Y-65787345D01*
X135884495Y-66029187D01*
X136069593Y-66214286D01*
X136311436Y-66314460D01*
X137673820Y-66314460D01*
X137838320Y-66149960D01*
X137838320Y-65260080D01*
X135948820Y-65260080D01*
X135784320Y-65424580D01*
X132452380Y-65424580D01*
X132336140Y-65308340D01*
X130446640Y-65308340D01*
X130446640Y-65328340D01*
X130238640Y-65328340D01*
X130238640Y-65308340D01*
X130218640Y-65308340D01*
X130218640Y-65100340D01*
X130238640Y-65100340D01*
X130238640Y-64261260D01*
X130446640Y-64261260D01*
X130446640Y-65100340D01*
X132336140Y-65100340D01*
X132500640Y-64935840D01*
X132500640Y-64623875D01*
X132459608Y-64524815D01*
X135784320Y-64524815D01*
X135784320Y-64887580D01*
X135948820Y-65052080D01*
X137838320Y-65052080D01*
X137838320Y-64162200D01*
X138046320Y-64162200D01*
X138046320Y-65052080D01*
X139935820Y-65052080D01*
X140100320Y-64887580D01*
X140100320Y-64524815D01*
X140000145Y-64282973D01*
X139815047Y-64097874D01*
X139573204Y-63997700D01*
X138210820Y-63997700D01*
X138046320Y-64162200D01*
X137838320Y-64162200D01*
X137673820Y-63997700D01*
X136311436Y-63997700D01*
X136069593Y-64097874D01*
X135884495Y-64282973D01*
X135784320Y-64524815D01*
X132459608Y-64524815D01*
X132400465Y-64382033D01*
X132215367Y-64196934D01*
X131973524Y-64096760D01*
X130611140Y-64096760D01*
X130446640Y-64261260D01*
X130238640Y-64261260D01*
X130074140Y-64096760D01*
X128711756Y-64096760D01*
X128627323Y-64131733D01*
X129032666Y-63726390D01*
X131842640Y-63726390D01*
X132086480Y-63680508D01*
X132310432Y-63536399D01*
X132460673Y-63316514D01*
X132513530Y-63055500D01*
X132513530Y-62054740D01*
X132467648Y-61810900D01*
X132323539Y-61586948D01*
X132103654Y-61436707D01*
X131842640Y-61383850D01*
X128842640Y-61383850D01*
X128598800Y-61429732D01*
X128374848Y-61573841D01*
X128224607Y-61793726D01*
X128213215Y-61849980D01*
X128171712Y-61877712D01*
X126657872Y-63391552D01*
X126450203Y-63702349D01*
X126377280Y-64068960D01*
X126377280Y-64804144D01*
X124964688Y-63391552D01*
X124653891Y-63183883D01*
X124287280Y-63110960D01*
X112746096Y-63110960D01*
X111913470Y-62278334D01*
X111897871Y-62199911D01*
X111538462Y-61662017D01*
X111000568Y-61302608D01*
X110366079Y-61176400D01*
X109689361Y-61176400D01*
X109054872Y-61302608D01*
X108516978Y-61662017D01*
X108157569Y-62199911D01*
X108031361Y-62834400D01*
X106386840Y-62834400D01*
X106386840Y-59602900D01*
X108069720Y-59602900D01*
X108069720Y-60465284D01*
X108169894Y-60707127D01*
X108354993Y-60892225D01*
X108596835Y-60992400D01*
X109759220Y-60992400D01*
X109923720Y-60827900D01*
X109923720Y-59438400D01*
X110131720Y-59438400D01*
X110131720Y-60827900D01*
X110296220Y-60992400D01*
X111458605Y-60992400D01*
X111700447Y-60892225D01*
X111885546Y-60707127D01*
X111985720Y-60465284D01*
X111985720Y-59602900D01*
X111821220Y-59438400D01*
X110131720Y-59438400D01*
X109923720Y-59438400D01*
X108234220Y-59438400D01*
X108069720Y-59602900D01*
X106386840Y-59602900D01*
X106386840Y-58203516D01*
X108069720Y-58203516D01*
X108069720Y-59065900D01*
X108234220Y-59230400D01*
X109923720Y-59230400D01*
X109923720Y-57840900D01*
X110131720Y-57840900D01*
X110131720Y-59230400D01*
X111821220Y-59230400D01*
X111985720Y-59065900D01*
X111985720Y-58203516D01*
X111885546Y-57961673D01*
X111700447Y-57776575D01*
X111458605Y-57676400D01*
X110296220Y-57676400D01*
X110131720Y-57840900D01*
X109923720Y-57840900D01*
X109759220Y-57676400D01*
X108596835Y-57676400D01*
X108354993Y-57776575D01*
X108169894Y-57961673D01*
X108069720Y-58203516D01*
X106386840Y-58203516D01*
X106386840Y-55311040D01*
X107995801Y-55311040D01*
X108122009Y-55945529D01*
X108481418Y-56483423D01*
X109019312Y-56842832D01*
X109653801Y-56969040D01*
X110330519Y-56969040D01*
X110965008Y-56842832D01*
X111502902Y-56483423D01*
X111612739Y-56319040D01*
X112063832Y-56319040D01*
X116716514Y-60971721D01*
X116716516Y-60971724D01*
X116944599Y-61124124D01*
X117043535Y-61190231D01*
X117429280Y-61266961D01*
X117429285Y-61266960D01*
X123271275Y-61266960D01*
X123271280Y-61266961D01*
X123657025Y-61190231D01*
X123984044Y-60971724D01*
X125004887Y-59950880D01*
X128296400Y-59950880D01*
X128296400Y-60262845D01*
X128396575Y-60504687D01*
X128581673Y-60689786D01*
X128823516Y-60789960D01*
X130185900Y-60789960D01*
X130350400Y-60625460D01*
X130350400Y-59786380D01*
X130558400Y-59786380D01*
X130558400Y-60625460D01*
X130722900Y-60789960D01*
X132085284Y-60789960D01*
X132327127Y-60689786D01*
X132512225Y-60504687D01*
X132612400Y-60262845D01*
X132612400Y-59950880D01*
X132564140Y-59902620D01*
X135896080Y-59902620D01*
X135896080Y-60265385D01*
X135996255Y-60507227D01*
X136181353Y-60692326D01*
X136423196Y-60792500D01*
X137785580Y-60792500D01*
X137950080Y-60628000D01*
X137950080Y-59738120D01*
X136060580Y-59738120D01*
X135896080Y-59902620D01*
X132564140Y-59902620D01*
X132447900Y-59786380D01*
X130558400Y-59786380D01*
X130350400Y-59786380D01*
X128460900Y-59786380D01*
X128296400Y-59950880D01*
X125004887Y-59950880D01*
X125853852Y-59101915D01*
X128296400Y-59101915D01*
X128296400Y-59413880D01*
X128460900Y-59578380D01*
X130350400Y-59578380D01*
X130350400Y-58739300D01*
X130558400Y-58739300D01*
X130558400Y-59578380D01*
X132447900Y-59578380D01*
X132612400Y-59413880D01*
X132612400Y-59101915D01*
X132571368Y-59002855D01*
X135896080Y-59002855D01*
X135896080Y-59365620D01*
X136060580Y-59530120D01*
X137950080Y-59530120D01*
X137950080Y-58640240D01*
X137785580Y-58475740D01*
X136423196Y-58475740D01*
X136181353Y-58575914D01*
X135996255Y-58761013D01*
X135896080Y-59002855D01*
X132571368Y-59002855D01*
X132512225Y-58860073D01*
X132327127Y-58674974D01*
X132085284Y-58574800D01*
X130722900Y-58574800D01*
X130558400Y-58739300D01*
X130350400Y-58739300D01*
X130185900Y-58574800D01*
X128823516Y-58574800D01*
X128581673Y-58674974D01*
X128396575Y-58860073D01*
X128296400Y-59101915D01*
X125853852Y-59101915D01*
X128283510Y-56672257D01*
X128283510Y-57533540D01*
X128329392Y-57777380D01*
X128473501Y-58001332D01*
X128693386Y-58151573D01*
X128954400Y-58204430D01*
X130269747Y-58204430D01*
X130454400Y-58241160D01*
X130639053Y-58204430D01*
X131954400Y-58204430D01*
X132198240Y-58158548D01*
X132422192Y-58014439D01*
X132572433Y-57794554D01*
X132625290Y-57533540D01*
X132625290Y-56570640D01*
X132629385Y-56566545D01*
X132696494Y-56466109D01*
X132891246Y-56174642D01*
X132983200Y-55712360D01*
X132983200Y-55007835D01*
X133043233Y-54919974D01*
X133096090Y-54658960D01*
X133096090Y-53158960D01*
X133050208Y-52915120D01*
X132906099Y-52691168D01*
X132710325Y-52557402D01*
X132892992Y-52439859D01*
X133043233Y-52219974D01*
X133096090Y-51958960D01*
X133096090Y-50458960D01*
X133050208Y-50215120D01*
X132906099Y-49991168D01*
X132686214Y-49840927D01*
X132425200Y-49788070D01*
X131125200Y-49788070D01*
X130881360Y-49833952D01*
X130657408Y-49978061D01*
X130641762Y-50000960D01*
X130034139Y-50000960D01*
X129857294Y-49880127D01*
X129596280Y-49827270D01*
X129399077Y-49827270D01*
X128986280Y-49745160D01*
X128573483Y-49827270D01*
X128376280Y-49827270D01*
X128132440Y-49873152D01*
X127908488Y-50017261D01*
X127865839Y-50079680D01*
X127420920Y-50079680D01*
X127414619Y-50069888D01*
X127194734Y-49919647D01*
X126933720Y-49866790D01*
X125633720Y-49866790D01*
X125389880Y-49912672D01*
X125165928Y-50056781D01*
X125015687Y-50276666D01*
X124962830Y-50537680D01*
X124962830Y-52037680D01*
X125008712Y-52281520D01*
X125152821Y-52505472D01*
X125352540Y-52641934D01*
X125260993Y-52679855D01*
X125075894Y-52864953D01*
X124975720Y-53106796D01*
X124975720Y-53719180D01*
X125140220Y-53883680D01*
X126179720Y-53883680D01*
X126179720Y-53863680D01*
X126387720Y-53863680D01*
X126387720Y-53883680D01*
X127427220Y-53883680D01*
X127591720Y-53719180D01*
X127591720Y-53106796D01*
X127491546Y-52864953D01*
X127306447Y-52679855D01*
X127211804Y-52640652D01*
X127401512Y-52518579D01*
X127417158Y-52495680D01*
X128651760Y-52495680D01*
X129114042Y-52403726D01*
X129128152Y-52394298D01*
X129242080Y-52416960D01*
X130638000Y-52416960D01*
X130644301Y-52426752D01*
X130840075Y-52560518D01*
X130657408Y-52678061D01*
X130507167Y-52897946D01*
X130454310Y-53158960D01*
X130454310Y-54658960D01*
X130500192Y-54902800D01*
X130567200Y-55006934D01*
X130567200Y-55211990D01*
X129917300Y-55861890D01*
X129093877Y-55861890D01*
X129609136Y-55346631D01*
X129840120Y-55303168D01*
X130064072Y-55159059D01*
X130214313Y-54939174D01*
X130267170Y-54678160D01*
X130267170Y-53768160D01*
X130221288Y-53524320D01*
X130077179Y-53300368D01*
X129857294Y-53150127D01*
X129596280Y-53097270D01*
X128376280Y-53097270D01*
X128132440Y-53143152D01*
X127908488Y-53287261D01*
X127758247Y-53507146D01*
X127705390Y-53768160D01*
X127705390Y-54399323D01*
X127591720Y-54512993D01*
X127591720Y-54256180D01*
X127427220Y-54091680D01*
X126387720Y-54091680D01*
X126387720Y-55231180D01*
X126552220Y-55395680D01*
X126709033Y-55395680D01*
X124353010Y-57751703D01*
X124353818Y-56825520D01*
X123987994Y-55940159D01*
X123311204Y-55262187D01*
X122426482Y-54894818D01*
X121468520Y-54893982D01*
X120583159Y-55259806D01*
X119905187Y-55936596D01*
X119537818Y-56821318D01*
X119536982Y-57779280D01*
X119902806Y-58664641D01*
X120488103Y-59250960D01*
X117846807Y-59250960D01*
X113194124Y-54598276D01*
X112867105Y-54379769D01*
X112481360Y-54303039D01*
X112481355Y-54303040D01*
X111612739Y-54303040D01*
X111581429Y-54256180D01*
X124975720Y-54256180D01*
X124975720Y-54868564D01*
X125075894Y-55110407D01*
X125260993Y-55295505D01*
X125502835Y-55395680D01*
X126015220Y-55395680D01*
X126179720Y-55231180D01*
X126179720Y-54091680D01*
X125140220Y-54091680D01*
X124975720Y-54256180D01*
X111581429Y-54256180D01*
X111502902Y-54138657D01*
X110965008Y-53779248D01*
X110330519Y-53653040D01*
X109653801Y-53653040D01*
X109019312Y-53779248D01*
X108481418Y-54138657D01*
X108122009Y-54676551D01*
X107995801Y-55311040D01*
X106386840Y-55311040D01*
X106386840Y-52079540D01*
X108034160Y-52079540D01*
X108034160Y-52941924D01*
X108134334Y-53183767D01*
X108319433Y-53368865D01*
X108561275Y-53469040D01*
X109723660Y-53469040D01*
X109888160Y-53304540D01*
X109888160Y-51915040D01*
X110096160Y-51915040D01*
X110096160Y-53304540D01*
X110260660Y-53469040D01*
X111423045Y-53469040D01*
X111664887Y-53368865D01*
X111849986Y-53183767D01*
X111950160Y-52941924D01*
X111950160Y-52079540D01*
X111785660Y-51915040D01*
X110096160Y-51915040D01*
X109888160Y-51915040D01*
X108198660Y-51915040D01*
X108034160Y-52079540D01*
X106386840Y-52079540D01*
X106386840Y-50680156D01*
X108034160Y-50680156D01*
X108034160Y-51542540D01*
X108198660Y-51707040D01*
X109888160Y-51707040D01*
X109888160Y-50317540D01*
X110096160Y-50317540D01*
X110096160Y-51707040D01*
X111785660Y-51707040D01*
X111950160Y-51542540D01*
X111950160Y-50680156D01*
X111849986Y-50438313D01*
X111664887Y-50253215D01*
X111423045Y-50153040D01*
X110260660Y-50153040D01*
X110096160Y-50317540D01*
X109888160Y-50317540D01*
X109723660Y-50153040D01*
X108561275Y-50153040D01*
X108319433Y-50253215D01*
X108134334Y-50438313D01*
X108034160Y-50680156D01*
X106386840Y-50680156D01*
X106386840Y-46699700D01*
X121908680Y-46699700D01*
X121908680Y-47187085D01*
X122008855Y-47428927D01*
X122193953Y-47614026D01*
X122435796Y-47714200D01*
X123048180Y-47714200D01*
X123212680Y-47549700D01*
X123212680Y-46535200D01*
X122073180Y-46535200D01*
X121908680Y-46699700D01*
X106386840Y-46699700D01*
X106386840Y-44611820D01*
X121878200Y-44611820D01*
X121878200Y-45099205D01*
X121978375Y-45341047D01*
X122039828Y-45402500D01*
X122008855Y-45433473D01*
X121908680Y-45675315D01*
X121908680Y-46162700D01*
X122073180Y-46327200D01*
X123212680Y-46327200D01*
X123212680Y-45312700D01*
X123182200Y-45282220D01*
X123182200Y-44447320D01*
X122042700Y-44447320D01*
X121878200Y-44611820D01*
X106386840Y-44611820D01*
X106386840Y-43587435D01*
X121878200Y-43587435D01*
X121878200Y-44074820D01*
X122042700Y-44239320D01*
X123182200Y-44239320D01*
X123182200Y-43224820D01*
X123017700Y-43060320D01*
X122405316Y-43060320D01*
X122163473Y-43160494D01*
X121978375Y-43345593D01*
X121878200Y-43587435D01*
X106386840Y-43587435D01*
X106386840Y-41906400D01*
X135803090Y-41906400D01*
X135355907Y-42353583D01*
G36*
X142444901Y-50759792D02*
X142664786Y-50910033D01*
X142671068Y-50911305D01*
X142353815Y-51386109D01*
X142237990Y-51968400D01*
X142353815Y-52550691D01*
X142683656Y-53044334D01*
X142974097Y-53238400D01*
X142683656Y-53432466D01*
X142353815Y-53926109D01*
X142237990Y-54508400D01*
X142353815Y-55090691D01*
X142683656Y-55584334D01*
X142974097Y-55778400D01*
X142683656Y-55972466D01*
X142353815Y-56466109D01*
X142237990Y-57048400D01*
X142353815Y-57630691D01*
X142683656Y-58124334D01*
X142974208Y-58318474D01*
X142907547Y-58348390D01*
X142500143Y-58780251D01*
X142306317Y-59248206D01*
X142436291Y-59484400D01*
X143685400Y-59484400D01*
X143685400Y-59464400D01*
X143893400Y-59464400D01*
X143893400Y-59484400D01*
X143913400Y-59484400D01*
X143913400Y-59692400D01*
X143893400Y-59692400D01*
X143893400Y-59712400D01*
X143685400Y-59712400D01*
X143685400Y-59692400D01*
X142436291Y-59692400D01*
X142306317Y-59928594D01*
X142437318Y-60244870D01*
X142186280Y-59993832D01*
X142186280Y-58099960D01*
X142109551Y-57714215D01*
X141891044Y-57387196D01*
X140824244Y-56320396D01*
X140497225Y-56101889D01*
X140111480Y-56025159D01*
X140111475Y-56025160D01*
X139976689Y-56025160D01*
X139815094Y-55914747D01*
X139805640Y-55912833D01*
X139805640Y-55038315D01*
X139865673Y-54950454D01*
X139918530Y-54689440D01*
X139918530Y-53189440D01*
X139872648Y-52945600D01*
X139728539Y-52721648D01*
X139532765Y-52587882D01*
X139715432Y-52470339D01*
X139865673Y-52250454D01*
X139918530Y-51989440D01*
X139918530Y-50598960D01*
X142341409Y-50598960D01*
X142444901Y-50759792D01*
X142444901Y-50759792D01*
G37*
X142444901Y-50759792D02*
X142664786Y-50910033D01*
X142671068Y-50911305D01*
X142353815Y-51386109D01*
X142237990Y-51968400D01*
X142353815Y-52550691D01*
X142683656Y-53044334D01*
X142974097Y-53238400D01*
X142683656Y-53432466D01*
X142353815Y-53926109D01*
X142237990Y-54508400D01*
X142353815Y-55090691D01*
X142683656Y-55584334D01*
X142974097Y-55778400D01*
X142683656Y-55972466D01*
X142353815Y-56466109D01*
X142237990Y-57048400D01*
X142353815Y-57630691D01*
X142683656Y-58124334D01*
X142974208Y-58318474D01*
X142907547Y-58348390D01*
X142500143Y-58780251D01*
X142306317Y-59248206D01*
X142436291Y-59484400D01*
X143685400Y-59484400D01*
X143685400Y-59464400D01*
X143893400Y-59464400D01*
X143893400Y-59484400D01*
X143913400Y-59484400D01*
X143913400Y-59692400D01*
X143893400Y-59692400D01*
X143893400Y-59712400D01*
X143685400Y-59712400D01*
X143685400Y-59692400D01*
X142436291Y-59692400D01*
X142306317Y-59928594D01*
X142437318Y-60244870D01*
X142186280Y-59993832D01*
X142186280Y-58099960D01*
X142109551Y-57714215D01*
X141891044Y-57387196D01*
X140824244Y-56320396D01*
X140497225Y-56101889D01*
X140111480Y-56025159D01*
X140111475Y-56025160D01*
X139976689Y-56025160D01*
X139815094Y-55914747D01*
X139805640Y-55912833D01*
X139805640Y-55038315D01*
X139865673Y-54950454D01*
X139918530Y-54689440D01*
X139918530Y-53189440D01*
X139872648Y-52945600D01*
X139728539Y-52721648D01*
X139532765Y-52587882D01*
X139715432Y-52470339D01*
X139865673Y-52250454D01*
X139918530Y-51989440D01*
X139918530Y-50598960D01*
X142341409Y-50598960D01*
X142444901Y-50759792D01*
G36*
X146433400Y-54404400D02*
X146453400Y-54404400D01*
X146453400Y-54612400D01*
X146433400Y-54612400D01*
X146433400Y-54632400D01*
X146225400Y-54632400D01*
X146225400Y-54612400D01*
X146205400Y-54612400D01*
X146205400Y-54404400D01*
X146225400Y-54404400D01*
X146225400Y-54384400D01*
X146433400Y-54384400D01*
X146433400Y-54404400D01*
X146433400Y-54404400D01*
G37*
X146433400Y-54404400D02*
X146453400Y-54404400D01*
X146453400Y-54612400D01*
X146433400Y-54612400D01*
X146433400Y-54632400D01*
X146225400Y-54632400D01*
X146225400Y-54612400D01*
X146205400Y-54612400D01*
X146205400Y-54404400D01*
X146225400Y-54404400D01*
X146225400Y-54384400D01*
X146433400Y-54384400D01*
X146433400Y-54404400D01*
M02*
